<svg width="67" height="40" viewBox="0 0 67 40" fill="none" xmlns="http://www.w3.org/2000/svg">
<path d="M53.2173 3.96315C60.2376 8.44348 63.2588 16.6466 61.8674 25.2326C59.9993 36.7569 50.286 39.9271 50.2051 39.9999C57.5311 37.7328 61.8988 33.0961 63.3892 25.3836C65.0707 16.6844 60.7479 8.25747 53.2173 3.96045V3.96315Z" fill="#FF9BA0"/>
<path d="M55.04 0C54.768 0.70359 54.4488 1.75224 54.4623 2.25634C54.4736 2.64453 54.5185 2.97341 54.8377 3.56917C54.9614 3.90614 55.357 4.36172 55.4964 4.82269C55.5706 5.06801 55.6537 5.53707 55.6537 5.53707C55.638 5.31332 55.683 5.08418 56.0808 4.67982C56.8137 3.94118 56.8249 3.24298 56.5574 2.24556C56.3259 1.38292 55.0378 0.00269575 55.0378 0.00269575L55.04 0Z" fill="#FF9BA0"/>
<path d="M55.2063 0.816406C55.2063 0.816406 55.3255 1.68174 55.3907 2.31255C55.4986 3.36389 55.7369 4.3721 55.7369 4.3721C55.7369 4.3721 55.7976 3.8033 55.7369 2.92179C55.6717 1.93245 55.2041 0.819102 55.2041 0.819102L55.2063 0.816406Z" fill="#FF9BA0"/>
<path d="M58.7022 2.60742C58.32 3.2544 57.8367 4.23296 57.767 4.72898C57.7131 5.11447 57.7063 5.44604 57.9244 6.08763C57.9918 6.44078 58.3065 6.96105 58.3695 7.4382C58.4032 7.6916 58.41 8.16875 58.41 8.16875C58.4302 7.945 58.5134 7.72665 58.9697 7.40046C59.8127 6.80201 59.9363 6.11459 59.8351 5.08481C59.7475 4.19522 58.7022 2.60742 58.7022 2.60742Z" fill="#FF9BA0"/>
<path d="M58.6748 4.95005C58.6118 6.00409 58.6815 7.03925 58.6815 7.03925C58.6815 7.03925 58.8321 6.48932 58.9175 5.60781C59.0142 4.62117 58.7332 3.44043 58.7332 3.44043C58.7332 3.44043 58.7107 4.31385 58.6725 4.94735L58.6748 4.95005Z" fill="#FF9BA0"/>
<path d="M54.4879 5.62018C54.027 5.57435 53.5168 5.26703 53.1728 5.21042C52.5457 5.01094 52.2287 5.0325 51.86 5.10259C51.3857 5.19425 50.4641 5.7334 49.8594 6.15663C49.8594 6.15663 51.4262 7.17832 52.2849 7.23493C53.2785 7.29963 53.9326 7.14328 54.4744 6.24559C54.7689 5.75766 54.9779 5.66331 55.1915 5.63366C55.1915 5.63366 54.7329 5.64713 54.4879 5.62018Z" fill="#FF9BA0"/>
<path d="M52.1056 6.03345C51.5009 6.09838 50.6602 6.15519 50.6602 6.15519C50.6602 6.15519 51.8066 6.39869 52.7485 6.26071C53.5915 6.13626 54.113 5.95769 54.113 5.95769C54.113 5.95769 53.1149 5.92522 52.1033 6.03345H52.1056Z" fill="#FF9BA0"/>
<path d="M52.1561 2.00002C51.8684 1.75201 51.6009 1.5714 50.9602 1.42852C50.6342 1.30182 50.0453 1.30991 49.6204 1.11582C49.3934 1.01338 49 0.768066 49 0.768066C49.1708 0.902854 49.308 1.09156 49.3372 1.66845C49.3866 2.72788 49.8857 3.19963 50.7826 3.64713C51.5582 4.03531 53.406 3.94096 53.406 3.94096C53.0778 3.26433 52.5293 2.32351 52.1561 2.00272V2.00002Z" fill="#FF9BA0"/>
<path d="M49.7864 1.59863C49.7864 1.59863 50.1573 2.01917 50.834 2.55832C51.5915 3.15947 52.7042 3.52879 52.7042 3.52879C52.7042 3.52879 51.9984 3.05164 51.5016 2.68772C50.6699 2.07848 49.7842 1.59863 49.7842 1.59863H49.7864Z" fill="#FF9BA0"/>
<path d="M57.2906 8.28131C56.8298 8.23548 56.3195 7.92817 55.9756 7.87156C55.3484 7.67207 55.0314 7.69364 54.6628 7.76373C54.1885 7.85538 53.2668 8.39453 52.6621 8.81776C52.6621 8.81776 54.2289 9.83945 55.0876 9.89606C56.0812 9.96076 56.7354 9.80441 57.2771 8.90672C57.5716 8.41879 57.7807 8.32444 57.9942 8.29479C57.9942 8.29479 57.5356 8.30827 57.2906 8.28131Z" fill="#FF9BA0"/>
<path d="M54.9112 8.69653C54.3066 8.76146 53.4658 8.81828 53.4658 8.81828C53.4658 8.81828 54.6123 9.06178 55.5542 8.9238C56.3971 8.79934 56.9187 8.62078 56.9187 8.62078C56.9187 8.62078 55.9206 8.58831 54.909 8.69653H54.9112Z" fill="#FF9BA0"/>
<path d="M61.4034 6.15186C61.0145 6.79344 60.52 7.76661 60.448 8.26263C60.3918 8.64812 60.3806 8.9797 60.5919 9.62398C60.6548 9.97982 60.965 10.5001 61.0235 10.9799C61.055 11.2333 61.055 11.7132 61.055 11.7132C61.0774 11.4894 61.1629 11.2711 61.6237 10.9503C62.4734 10.3599 62.6038 9.6752 62.5116 8.64542C62.4329 7.75583 61.4034 6.15455 61.4034 6.15455V6.15186Z" fill="#FF9BA0"/>
<path d="M61.3523 8.49472C61.2781 9.54875 61.3388 10.5839 61.3388 10.5839C61.3388 10.5839 61.4962 10.0367 61.5906 9.15517C61.6962 8.17123 61.4287 6.98779 61.4287 6.98779C61.4287 6.98779 61.3973 7.86122 61.3523 8.49472Z" fill="#FF9BA0"/>
<path d="M59.3674 11.3521C58.9065 11.3008 58.3985 10.9881 58.0568 10.9288C57.4319 10.7213 57.1149 10.7401 56.7463 10.8048C56.2697 10.8911 55.3436 11.4222 54.7344 11.8373C54.7344 11.8373 56.2922 12.8779 57.1487 12.9426C58.14 13.0207 58.7964 12.8698 59.3494 11.9775C59.6506 11.4922 59.8574 11.4006 60.071 11.3709C60.071 11.3709 59.6124 11.379 59.3674 11.3521Z" fill="#FF9BA0"/>
<path d="M56.9835 11.7407C56.3766 11.7975 55.5381 11.8462 55.5381 11.8462C55.5381 11.8462 56.6823 12.1033 57.6264 11.9734C58.4694 11.8571 58.9954 11.6839 58.9954 11.6839C58.9954 11.6839 57.9973 11.6406 56.9858 11.738L56.9835 11.7407Z" fill="#FF9BA0"/>
<path d="M62.8916 12.4402C62.7499 12.8014 62.6645 13.1195 62.7207 13.7989C62.7027 14.1601 62.8848 14.7424 62.8331 15.2222C62.8061 15.4783 62.6982 15.942 62.6982 15.942C62.7724 15.7317 62.9028 15.5403 63.4243 15.3408C64.3819 14.9742 64.6674 14.3407 64.8113 13.319C64.9372 12.4348 64.2988 10.626 64.2988 10.626C63.775 11.1543 63.0736 11.9792 62.8916 12.4429V12.4402Z" fill="#FF9BA0"/>
<path d="M63.2305 14.9145C63.2305 14.9145 63.507 14.4212 63.7992 13.5882C64.1251 12.6582 64.1341 11.4424 64.1341 11.4424C64.1341 11.4424 63.9048 12.2835 63.7183 12.8873C63.4058 13.8928 63.2305 14.9145 63.2305 14.9145Z" fill="#FF9BA0"/>
<path d="M60.0647 14.5221C59.505 14.169 59.1925 14.107 58.8194 14.08C58.3383 14.045 57.3178 14.3361 56.6299 14.5895C56.6299 14.5895 57.9067 15.9832 58.725 16.2582C59.6713 16.5763 60.3435 16.5925 61.083 15.8592C61.4854 15.4603 61.708 15.4225 61.9215 15.4495C61.9215 15.4495 61.4742 15.3443 61.2426 15.2581C60.8065 15.0936 60.3839 14.665 60.0647 14.5248V14.5221Z" fill="#FF9BA0"/>
<path d="M57.4092 14.7969C57.4092 14.7969 58.4612 15.3252 59.4098 15.4331C60.2551 15.5274 60.8036 15.4897 60.8036 15.4897C60.8036 15.4897 59.8437 15.2039 58.8389 15.0476C58.2364 14.9559 57.4092 14.7969 57.4092 14.7969Z" fill="#FF9BA0"/>
<path d="M64.6621 16.7403C64.4351 17.0504 64.2732 17.3361 64.1631 18.0073C64.0552 18.3497 64.0889 18.9643 63.9203 19.4118C63.8304 19.6517 63.6123 20.0696 63.6123 20.0696C63.7359 19.8863 63.909 19.7353 64.462 19.6814C65.4781 19.5844 65.9097 19.0479 66.3008 18.0963C66.6403 17.2741 66.4717 15.3574 66.4717 15.3574C65.8355 15.7267 64.9543 16.3387 64.6621 16.7376V16.7403Z" fill="#FF9BA0"/>
<path d="M64.3789 19.22C64.3789 19.22 64.7678 18.8157 65.2556 18.0905C65.8019 17.2791 66.1098 16.1064 66.1098 16.1064C66.1098 16.1064 65.6805 16.8586 65.3523 17.3923C64.8038 18.2819 64.3789 19.2227 64.3789 19.2227V19.22Z" fill="#FF9BA0"/>
<path d="M64.3536 22.776C64.2007 23.0994 64.149 23.7114 63.922 24.1319C63.8006 24.3557 63.5264 24.7385 63.5264 24.7385C63.6725 24.574 63.8658 24.45 64.421 24.4797C65.4416 24.5336 65.9407 24.0672 66.4577 23.183C66.905 22.4201 66.9994 20.498 66.9994 20.498C66.3183 20.7703 65.3629 21.2448 65.019 21.5979C64.7515 21.8702 64.5537 22.129 64.3514 22.7786L64.3536 22.776Z" fill="#FF9BA0"/>
<path d="M64.4033 24.0114C64.4033 24.0114 64.8439 23.6691 65.4261 23.0221C66.0758 22.2996 66.5434 21.1836 66.5434 21.1836C66.5434 21.1836 66.0151 21.8656 65.6172 22.3428C64.9518 23.1407 64.4056 24.0087 64.4056 24.0087L64.4033 24.0114Z" fill="#FF9BA0"/>
<path d="M63.4077 27.9389C63.2009 28.2301 63.0435 28.8204 62.7445 29.1898C62.5849 29.3865 62.25 29.7127 62.25 29.7127C62.4231 29.5806 62.6344 29.4944 63.1739 29.6292C64.1675 29.8772 64.7407 29.5106 65.4039 28.7423C65.9793 28.0764 66.4087 26.2056 66.4087 26.2056C65.6916 26.343 64.6688 26.6288 64.2686 26.9092C63.9584 27.1275 63.7179 27.3432 63.4054 27.9416L63.4077 27.9389Z" fill="#FF9BA0"/>
<path d="M63.2366 29.1594C63.2366 29.1594 63.7312 28.906 64.4145 28.383C65.1811 27.7953 65.8352 26.7871 65.8352 26.7871C65.8352 26.7871 65.1968 27.3559 64.7203 27.7522C63.9267 28.4126 63.2344 29.1594 63.2344 29.1594H63.2366Z" fill="#FF9BA0"/>
<path d="M62.2572 31.6265C61.9133 31.7802 61.6368 31.9446 61.2209 32.4703C60.9647 32.7129 60.7017 33.2628 60.342 33.5675C60.1509 33.7292 59.7598 33.9826 59.7598 33.9826C59.9531 33.8856 60.1779 33.8451 60.6837 34.0823C61.6143 34.5218 62.2437 34.2764 63.0373 33.651C63.7229 33.1119 64.4894 31.3596 64.4894 31.3596C63.7588 31.3543 62.7046 31.4297 62.2595 31.6265H62.2572Z" fill="#FF9BA0"/>
<path d="M60.8291 33.6348C60.8291 33.6348 61.3596 33.4838 62.1284 33.1037C62.9894 32.6778 63.8144 31.8179 63.8144 31.8179C63.8144 31.8179 63.0838 32.2519 62.5443 32.5457C61.6429 33.0364 60.8291 33.6348 60.8291 33.6348Z" fill="#FF9BA0"/>
<path d="M60.5791 18.5009C60.125 18.0102 59.8395 17.8674 59.4844 17.7407C59.028 17.5789 57.9692 17.587 57.2432 17.649C57.2432 17.649 58.1333 19.3366 58.8572 19.8191C59.6934 20.3798 60.3386 20.5739 61.2333 20.0644C61.7211 19.7867 61.9458 19.811 62.1459 19.8919C62.1459 19.8919 61.739 19.6708 61.5367 19.5253C61.1546 19.2503 60.8533 18.7246 60.5791 18.5009Z" fill="#FF9BA0"/>
<path d="M57.9434 18.0588C57.9434 18.0588 58.829 18.8514 59.7192 19.2072C60.5128 19.5253 61.0523 19.6332 61.0523 19.6332C61.0523 19.6332 60.1958 19.0994 59.2629 18.6816C58.7032 18.4309 57.9434 18.0562 57.9434 18.0562V18.0588Z" fill="#FF9BA0"/>
<path d="M60.9548 22.7413C60.6356 22.1455 60.3928 21.9326 60.0804 21.7169C59.678 21.4393 58.6529 21.167 57.9336 21.0376C57.9336 21.0376 58.3832 22.9031 58.9654 23.5635C59.6375 24.3264 60.2152 24.6849 61.2043 24.4262C61.7438 24.286 61.9552 24.3695 62.1305 24.4989C62.1305 24.4989 61.7911 24.1781 61.6315 23.984C61.3302 23.6174 61.1661 23.0298 60.9548 22.7413Z" fill="#FF9BA0"/>
<path d="M58.5137 21.6143C58.5137 21.6143 59.1791 22.6144 59.9501 23.194C60.6402 23.7115 61.137 23.9596 61.137 23.9596C61.137 23.9596 60.4379 23.2182 59.6376 22.5686C59.1588 22.1777 58.5137 21.617 58.5137 21.617V21.6143Z" fill="#FF9BA0"/>
<path d="M59.8298 27.0409C59.6163 26.3966 59.414 26.1405 59.142 25.8736C58.7935 25.5286 57.8292 25.0703 57.1436 24.8115C57.1436 24.8115 57.2694 26.7309 57.7303 27.4884C58.263 28.3618 58.7688 28.8201 59.7894 28.7473C60.3424 28.7096 60.5379 28.8282 60.6886 28.9899C60.6886 28.9899 60.4098 28.6125 60.2839 28.3915C60.0479 27.9763 59.9872 27.3671 59.8298 27.0436V27.0409Z" fill="#FF9BA0"/>
<path d="M58.5613 26.6313C58.1544 26.1595 57.6172 25.4883 57.6172 25.4883C57.6172 25.4883 58.1005 26.5962 58.7636 27.3079C59.3548 27.9441 59.8022 28.2784 59.8022 28.2784C59.8022 28.2784 59.2402 27.4211 58.5613 26.634V26.6313Z" fill="#FF9BA0"/>
<path d="M58.4129 31.4036C58.3971 30.7215 58.2757 30.4169 58.0959 30.0746C57.8621 29.6352 57.0776 28.8992 56.4976 28.4355C56.4976 28.4355 56.0638 30.3064 56.2841 31.1717C56.5403 32.1719 56.891 32.7676 57.8824 33.0183C58.4219 33.1531 58.5725 33.3283 58.6691 33.5305C58.6691 33.5305 58.5118 33.083 58.4556 32.8323C58.3522 32.3633 58.4691 31.7621 58.4129 31.4063V31.4036Z" fill="#FF9BA0"/>
<path d="M56.752 29.2285C56.752 29.2285 56.8936 30.4362 57.3207 31.3204C57.7006 32.113 58.031 32.5712 58.031 32.5712C58.031 32.5712 57.7433 31.5765 57.3229 30.6141C57.0712 30.0372 56.752 29.2285 56.752 29.2285Z" fill="#FF9BA0"/>
<path d="M13.7836 3.96266C6.76328 8.44299 3.74203 16.6461 5.13352 25.2321C7.00157 36.7564 16.715 39.9266 16.7959 39.9994C9.46982 37.7323 5.10205 33.0956 3.61165 25.3831C1.93018 16.6839 6.253 8.25698 13.7836 3.95996V3.96266Z" fill="#FF9BA0"/>
<path d="M11.9599 0C12.2319 0.70359 12.5512 1.75224 12.5377 2.25634C12.5264 2.64453 12.4815 2.97341 12.1623 3.56917C12.0386 3.90614 11.643 4.36172 11.5036 4.82269C11.4294 5.06801 11.3463 5.53707 11.3463 5.53707C11.362 5.31332 11.317 5.08418 10.9191 4.67982C10.1863 3.94118 10.1751 3.24298 10.4426 2.24556C10.6741 1.38292 11.9622 0.00269575 11.9622 0.00269575L11.9599 0Z" fill="#FF9BA0"/>
<path d="M11.7937 0.816406C11.7937 0.816406 11.6745 1.68174 11.6093 2.31255C11.5014 3.36389 11.2631 4.3721 11.2631 4.3721C11.2631 4.3721 11.2024 3.8033 11.2631 2.92179C11.3283 1.93245 11.7959 0.819102 11.7959 0.819102L11.7937 0.816406Z" fill="#FF9BA0"/>
<path d="M8.29781 2.60693C8.67996 3.25391 9.16327 4.23247 9.23296 4.72849C9.28691 5.11398 9.29365 5.44556 9.0756 6.08714C9.00816 6.44029 8.69345 6.96057 8.63051 7.43771C8.59679 7.69111 8.59004 8.16826 8.59004 8.16826C8.56981 7.94451 8.48664 7.72616 8.0303 7.39997C7.18732 6.80152 7.06368 6.1141 7.16484 5.08433C7.25251 4.19473 8.29781 2.60693 8.29781 2.60693Z" fill="#FF9BA0"/>
<path d="M8.32621 4.95005C8.38915 6.00409 8.31947 7.03925 8.31947 7.03925C8.31947 7.03925 8.16885 6.48932 8.08343 5.60781C7.98677 4.62117 8.26777 3.44043 8.26777 3.44043C8.26777 3.44043 8.29025 4.31385 8.32846 4.94735L8.32621 4.95005Z" fill="#FF9BA0"/>
<path d="M12.5111 5.62067C12.9719 5.57484 13.4822 5.26752 13.8262 5.21091C14.4533 5.01143 14.7703 5.03299 15.139 5.10308C15.6133 5.19474 16.5349 5.73389 17.1396 6.15712C17.1396 6.15712 15.5728 7.17881 14.7141 7.23542C13.7205 7.30012 13.0664 7.14376 12.5246 6.24608C12.2301 5.75815 12.0211 5.6638 11.8075 5.63414C11.8075 5.63414 12.2661 5.64762 12.5111 5.62067Z" fill="#FF9BA0"/>
<path d="M14.8934 6.03345C15.4981 6.09838 16.3389 6.15519 16.3389 6.15519C16.3389 6.15519 15.1924 6.39869 14.2505 6.26071C13.4075 6.13626 12.886 5.95769 12.886 5.95769C12.886 5.95769 13.8841 5.92522 14.8957 6.03345H14.8934Z" fill="#FF9BA0"/>
<path d="M14.8439 2.00002C15.1316 1.75201 15.3991 1.5714 16.0398 1.42852C16.3657 1.30182 16.9547 1.30991 17.3796 1.11582C17.6066 1.01338 18 0.768066 18 0.768066C17.8292 0.902854 17.692 1.09156 17.6628 1.66845C17.6134 2.72788 17.1143 3.19963 16.2174 3.64713C15.4418 4.03531 13.594 3.94096 13.594 3.94096C13.9222 3.26433 14.4707 2.32351 14.8439 2.00272V2.00002Z" fill="#FF9BA0"/>
<path d="M17.2136 1.59863C17.2136 1.59863 16.8427 2.01917 16.166 2.55832C15.4085 3.15947 14.2957 3.52879 14.2957 3.52879C14.2957 3.52879 15.0016 3.05164 15.4984 2.68772C16.3301 2.07848 17.2158 1.59863 17.2158 1.59863H17.2136Z" fill="#FF9BA0"/>
<path d="M9.71131 8.28131C10.1721 8.23548 10.6824 7.92817 11.0264 7.87156C11.6535 7.67207 11.9705 7.69364 12.3392 7.76373C12.8135 7.85538 13.7351 8.39453 14.3398 8.81776C14.3398 8.81776 12.773 9.83945 11.9143 9.89606C10.9207 9.96076 10.2666 9.80441 9.7248 8.90672C9.43031 8.41879 9.22125 8.32444 9.0077 8.29479C9.0077 8.29479 9.46628 8.30827 9.71131 8.28131Z" fill="#FF9BA0"/>
<path d="M12.0917 8.69653C12.6964 8.76146 13.5371 8.81828 13.5371 8.81828C13.5371 8.81828 12.3907 9.06178 11.4488 8.9238C10.6058 8.79934 10.0843 8.62078 10.0843 8.62078C10.0843 8.62078 11.0823 8.58831 12.0939 8.69653H12.0917Z" fill="#FF9BA0"/>
<path d="M5.59562 6.15137C5.98452 6.79296 6.47907 7.76612 6.551 8.26214C6.6072 8.64763 6.61844 8.97921 6.40713 9.62349C6.34419 9.97933 6.03398 10.4996 5.97553 10.9795C5.94406 11.2329 5.94406 11.7127 5.94406 11.7127C5.92158 11.4889 5.83615 11.2706 5.37532 10.9498C4.5256 10.3594 4.39521 9.67471 4.48738 8.64493C4.56606 7.75534 5.59562 6.15406 5.59562 6.15406V6.15137Z" fill="#FF9BA0"/>
<path d="M5.64672 8.49423C5.72091 9.54826 5.66021 10.5834 5.66021 10.5834C5.66021 10.5834 5.50285 10.0362 5.40844 9.15469C5.30279 8.17074 5.57029 6.9873 5.57029 6.9873C5.57029 6.9873 5.60176 7.86073 5.64672 8.49423Z" fill="#FF9BA0"/>
<path d="M7.63162 11.3511C8.09245 11.2999 8.60048 10.9872 8.94217 10.9279C9.5671 10.7203 9.88407 10.7392 10.2527 10.8039C10.7293 10.8901 11.6555 11.4212 12.2646 11.8363C12.2646 11.8363 10.7068 12.8769 9.85035 12.9416C8.859 13.0198 8.2026 12.8688 7.6496 11.9765C7.34837 11.4913 7.14157 11.3996 6.92801 11.37C6.92801 11.37 7.38659 11.378 7.63162 11.3511Z" fill="#FF9BA0"/>
<path d="M10.0155 11.7397C10.6225 11.7966 11.4609 11.8453 11.4609 11.8453C11.4609 11.8453 10.3167 12.1023 9.37259 11.9724C8.52961 11.8561 8.00359 11.6829 8.00359 11.6829C8.00359 11.6829 9.00168 11.6396 10.0133 11.737L10.0155 11.7397Z" fill="#FF9BA0"/>
<path d="M4.10746 12.4407C4.24908 12.8019 4.3345 13.12 4.2783 13.7994C4.29628 14.1606 4.1142 14.7429 4.1659 15.2227C4.19288 15.4788 4.30078 15.9425 4.30078 15.9425C4.2266 15.7322 4.09622 15.5408 3.57469 15.3413C2.61706 14.9747 2.33157 14.3412 2.1877 13.3195C2.06182 12.4353 2.70024 10.6265 2.70024 10.6265C3.22401 11.1548 3.92537 11.9797 4.10746 12.4434V12.4407Z" fill="#FF9BA0"/>
<path d="M3.76953 14.9155C3.76953 14.9155 3.49303 14.4222 3.2008 13.5892C2.87485 12.6591 2.86586 11.4434 2.86586 11.4434C2.86586 11.4434 3.09515 12.2844 3.28173 12.8883C3.59419 13.8938 3.76953 14.9155 3.76953 14.9155Z" fill="#FF9BA0"/>
<path d="M6.93524 14.5216C7.49498 14.1685 7.80745 14.1065 8.18061 14.0795C8.66167 14.0445 9.68224 14.3356 10.3701 14.589C10.3701 14.589 9.09328 15.9827 8.27502 16.2577C7.32863 16.5758 6.6565 16.592 5.91692 15.8587C5.51454 15.4598 5.29199 15.422 5.07843 15.449C5.07843 15.449 5.52578 15.3438 5.75732 15.2576C6.19342 15.0931 6.61603 14.6645 6.93524 14.5243V14.5216Z" fill="#FF9BA0"/>
<path d="M9.59082 14.7969C9.59082 14.7969 8.53878 15.3252 7.59014 15.4331C6.74491 15.5274 6.19641 15.4897 6.19641 15.4897C6.19641 15.4897 7.15629 15.2039 8.16112 15.0476C8.76357 14.9559 9.59082 14.7969 9.59082 14.7969Z" fill="#FF9BA0"/>
<path d="M2.3379 16.7403C2.56494 17.0504 2.72679 17.3361 2.83694 18.0073C2.94485 18.3497 2.91113 18.9643 3.07972 19.4118C3.16964 19.6517 3.3877 20.0696 3.3877 20.0696C3.26406 19.8863 3.09097 19.7353 2.53797 19.6814C1.52189 19.5844 1.09029 19.0479 0.699142 18.0963C0.359701 17.2741 0.528298 15.3574 0.528298 15.3574C1.16447 15.7267 2.04566 16.3387 2.3379 16.7376V16.7403Z" fill="#FF9BA0"/>
<path d="M2.62109 19.22C2.62109 19.22 2.2322 18.8157 1.74439 18.0905C1.19814 17.2791 0.89017 16.1064 0.89017 16.1064C0.89017 16.1064 1.31953 16.8586 1.64773 17.3923C2.19623 18.2819 2.62109 19.2227 2.62109 19.2227V19.22Z" fill="#FF9BA0"/>
<path d="M2.64638 22.7755C2.79925 23.099 2.85095 23.7109 3.07799 24.1314C3.19938 24.3552 3.47363 24.738 3.47363 24.738C3.32752 24.5735 3.13419 24.4495 2.57895 24.4792C1.55838 24.5331 1.05933 24.0667 0.5423 23.1825C0.0949571 22.4196 0.00054574 20.4976 0.00054574 20.4976C0.681675 20.7698 1.63706 21.2443 1.98099 21.5974C2.2485 21.8697 2.44632 22.1285 2.64863 22.7782L2.64638 22.7755Z" fill="#FF9BA0"/>
<path d="M2.59668 24.0105C2.59668 24.0105 2.15608 23.6681 1.57386 23.0211C0.924202 22.2987 0.456628 21.1826 0.456628 21.1826C0.456628 21.1826 0.984895 21.8646 1.38278 22.3418C2.04818 23.1397 2.59443 24.0078 2.59443 24.0078L2.59668 24.0105Z" fill="#FF9BA0"/>
<path d="M3.59231 27.9384C3.79912 28.2296 3.95647 28.82 4.25545 29.1893C4.41506 29.3861 4.75 29.7122 4.75 29.7122C4.57691 29.5802 4.3656 29.4939 3.82609 29.6287C2.8325 29.8767 2.25927 29.5101 1.59612 28.7418C1.02065 28.0759 0.591286 26.2051 0.591286 26.2051C1.30838 26.3426 2.3312 26.6283 2.73134 26.9087C3.04156 27.127 3.28209 27.3427 3.59455 27.9411L3.59231 27.9384Z" fill="#FF9BA0"/>
<path d="M3.76435 29.1589C3.76435 29.1589 3.2698 28.9055 2.58643 28.3825C1.81987 27.7948 1.16572 26.7866 1.16572 26.7866C1.16572 26.7866 1.80414 27.3554 2.2807 27.7517C3.07423 28.4122 3.7666 29.1589 3.7666 29.1589H3.76435Z" fill="#FF9BA0"/>
<path d="M4.74276 31.626C5.0867 31.7797 5.36319 31.9441 5.77906 32.4698C6.03533 32.7124 6.29834 33.2624 6.65802 33.567C6.84909 33.7287 7.24023 33.9821 7.24023 33.9821C7.04691 33.8851 6.82211 33.8446 6.31633 34.0819C5.38567 34.5213 4.75625 34.276 3.96272 33.6505C3.27709 33.1114 2.51054 31.3592 2.51054 31.3592C3.24113 31.3538 4.29542 31.4292 4.74051 31.626H4.74276Z" fill="#FF9BA0"/>
<path d="M6.1709 33.6343C6.1709 33.6343 5.64038 33.4834 4.87158 33.1033C4.01062 32.6773 3.18562 31.8174 3.18562 31.8174C3.18562 31.8174 3.9162 32.2514 4.45571 32.5452C5.35714 33.0359 6.1709 33.6343 6.1709 33.6343Z" fill="#FF9BA0"/>
<path d="M6.4199 18.5004C6.87398 18.0098 7.15947 17.8669 7.51465 17.7402C7.97098 17.5784 9.02977 17.5865 9.75586 17.6485C9.75586 17.6485 8.86567 19.3361 8.14183 19.8186C7.30559 20.3793 6.66043 20.5734 5.76574 20.0639C5.27794 19.7863 5.05314 19.8105 4.85307 19.8914C4.85307 19.8914 5.25995 19.6703 5.46227 19.5248C5.84442 19.2498 6.14565 18.7241 6.4199 18.5004Z" fill="#FF9BA0"/>
<path d="M9.05371 18.0584C9.05371 18.0584 8.16802 18.8509 7.27783 19.2067C6.4843 19.5248 5.94479 19.6327 5.94479 19.6327C5.94479 19.6327 6.80126 19.0989 7.73416 18.6811C8.2939 18.4304 9.05371 18.0557 9.05371 18.0557V18.0584Z" fill="#FF9BA0"/>
<path d="M6.04516 22.7408C6.36437 22.1451 6.60714 21.9321 6.91961 21.7164C7.32199 21.4388 8.34706 21.1665 9.06641 21.0371C9.06641 21.0371 8.61681 22.9026 8.03459 23.563C7.36246 24.3259 6.78473 24.6845 5.79563 24.4257C5.25612 24.2855 5.04482 24.3691 4.86947 24.4984C4.86947 24.4984 5.20892 24.1777 5.36852 23.9836C5.66975 23.6169 5.83385 23.0293 6.04516 22.7408Z" fill="#FF9BA0"/>
<path d="M8.48633 21.6133C8.48633 21.6133 7.82093 22.6134 7.04989 23.193C6.35976 23.7106 5.86297 23.9586 5.86297 23.9586C5.86297 23.9586 6.56208 23.2173 7.36235 22.5676C7.84117 22.1767 8.48633 21.616 8.48633 21.616V21.6133Z" fill="#FF9BA0"/>
<path d="M7.16916 27.0409C7.38272 26.3966 7.58504 26.1405 7.85704 25.8736C8.20547 25.5286 9.16984 25.0703 9.85547 24.8115C9.85547 24.8115 9.72958 26.7309 9.26875 27.4884C8.73599 28.3618 8.2302 28.8201 7.20963 28.7473C6.65663 28.7096 6.46106 28.8282 6.31045 28.9899C6.31045 28.9899 6.58919 28.6125 6.71508 28.3915C6.95111 27.9763 7.01181 27.3671 7.16916 27.0436V27.0409Z" fill="#FF9BA0"/>
<path d="M8.4377 26.6313C8.84458 26.1595 9.38184 25.4883 9.38184 25.4883C9.38184 25.4883 8.89852 26.5962 8.23538 27.3079C7.64417 27.9441 7.19683 28.2784 7.19683 28.2784C7.19683 28.2784 7.75881 27.4211 8.4377 26.634V26.6313Z" fill="#FF9BA0"/>
<path d="M8.58907 31.4031C8.6048 30.7211 8.72619 30.4164 8.90603 30.0741C9.13982 29.6347 9.92435 28.8987 10.5043 28.4351C10.5043 28.4351 10.9382 30.3059 10.7179 31.1712C10.4616 32.1714 10.1109 32.7671 9.11959 33.0178C8.58008 33.1526 8.42946 33.3278 8.3328 33.53C8.3328 33.53 8.49016 33.0825 8.54636 32.8318C8.64976 32.3628 8.53287 31.7616 8.58907 31.4058V31.4031Z" fill="#FF9BA0"/>
<path d="M10.25 29.2275C10.25 29.2275 10.1084 30.4352 9.68127 31.3194C9.30136 32.112 8.97091 32.5703 8.97091 32.5703C8.97091 32.5703 9.25865 31.5755 9.67902 30.6132C9.93079 30.0363 10.25 29.2275 10.25 29.2275Z" fill="#FF9BA0"/>
<path d="M43 6.48214C43 7.22176 42.3791 7.82143 41.6133 7.82143C41.6047 7.82143 41.5975 7.81718 41.5889 7.81708L39.8375 17.1218C39.7412 17.6283 39.2836 18 38.7462 18H27.285C26.749 18 26.2893 17.6297 26.1936 17.1204L24.4425 7.81808C24.4339 7.81808 24.4266 7.82143 24.3867 7.82143C23.6209 7.82143 23 7.22176 23 6.48214C23 5.74252 23.6521 5.14286 24.3867 5.14286C25.1213 5.14286 25.7734 5.74252 25.7734 6.48214C25.7734 6.78342 25.6514 7.04766 25.4775 7.27132L28.5848 9.67199C29.1363 10.0982 29.9542 9.92458 30.27 9.3144L32.2669 5.45725C31.875 5.22121 31.5977 4.81942 31.5977 4.33929C31.5977 3.59967 32.2494 3 33.0156 3C33.7818 3 34.3711 3.59967 34.3711 4.33929C34.3711 4.81942 34.0951 5.22121 33.702 5.45759L35.6989 9.31473C36.0148 9.92478 36.8329 10.0982 37.3841 9.67232L40.4914 7.27165C40.3479 7.04799 40.2266 6.75335 40.2266 6.48214C40.2266 5.74219 40.8471 5.14286 41.6133 5.14286C42.3794 5.14286 43 5.74219 43 6.48214Z" fill="#FF9BA0"/>
<path d="M28.6246 29.144H26.5366L26.8606 29.072C26.8006 28.82 26.6686 28.472 26.5126 28.172H28.7086C28.6006 28.472 28.4686 28.808 28.3486 29.072L28.6246 29.144ZM25.1566 28.208C25.3126 28.484 25.4566 28.844 25.5286 29.144H23.9446V30.152H26.9206V30.692H24.4126V31.676H26.9206V32.24H23.9326V33.272H26.9206V34.076H28.3366V33.272H31.4566V32.24H28.3366V31.676H30.9766V30.692H28.3366V30.152H31.4326V29.144H29.6446C29.8126 28.892 29.9926 28.58 30.1966 28.244L29.8966 28.172H31.5526V27.14H28.3366V26.528H30.8206V25.544H28.3366V24.836H26.9206V25.544H24.5566V26.528H26.9206V27.14H23.7526V28.172H25.3246L25.1566 28.208ZM23.6566 27.044C23.2726 26.468 22.4446 25.676 21.7726 25.136L20.6806 25.952C21.3526 26.528 22.1446 27.356 22.4806 27.944L23.6566 27.044ZM23.3326 29.492H20.6326V30.8H21.9766V33.416C21.4966 33.824 20.9566 34.22 20.4886 34.52L21.1606 35.936C21.7726 35.42 22.2646 34.964 22.7446 34.496C23.4646 35.42 24.4246 35.768 25.8526 35.828C27.3166 35.888 29.8606 35.864 31.3486 35.792C31.4206 35.396 31.6246 34.736 31.7926 34.4C30.1366 34.532 27.3046 34.568 25.8646 34.508C24.6406 34.46 23.8006 34.124 23.3326 33.32V29.492ZM44.2794 28.664C43.9914 29.636 43.5954 30.524 43.1274 31.328C42.9234 30.368 42.7554 29.24 42.6474 28.04H46.3554V26.624H45.1074L45.6834 26.012C45.2634 25.616 44.3874 25.064 43.7274 24.728L42.8634 25.58C43.3554 25.88 43.9554 26.264 44.3994 26.624H42.5634C42.5394 26.036 42.5274 25.448 42.5394 24.848H41.0394C41.0394 25.448 41.0634 26.036 41.0874 26.624H36.1914V30.128C36.1914 31.688 36.1074 33.776 35.1954 35.216C35.5194 35.384 36.1554 35.912 36.4074 36.188C37.3914 34.724 37.6434 32.384 37.6914 30.632H39.2514C39.2154 32.144 39.1674 32.72 39.0474 32.888C38.9514 33.008 38.8554 33.032 38.6874 33.032C38.4954 33.032 38.0874 33.02 37.6554 32.984C37.8714 33.344 38.0274 33.896 38.0514 34.316C38.6034 34.328 39.1194 34.328 39.4314 34.28C39.7914 34.22 40.0314 34.112 40.2594 33.8C40.5354 33.452 40.6074 32.384 40.6434 29.864C40.6434 29.696 40.6554 29.324 40.6554 29.324H37.6914V28.04H41.1714C41.3274 29.84 41.5914 31.52 41.9994 32.876C41.3034 33.656 40.4754 34.316 39.5514 34.82C39.8514 35.096 40.3674 35.684 40.5834 35.996C41.3274 35.54 41.9994 35 42.6114 34.364C43.1394 35.348 43.7994 35.948 44.6394 35.948C45.7554 35.948 46.2354 35.42 46.4634 33.2C46.0794 33.044 45.5754 32.732 45.2514 32.396C45.1914 33.896 45.0474 34.496 44.7594 34.496C44.3754 34.496 43.9914 33.992 43.6434 33.128C44.5074 31.964 45.2154 30.572 45.7074 29.012L44.2794 28.664Z" fill="#FF9BA0"/>
</svg>
