<svg width="211" height="151" viewBox="0 0 211 151" fill="none" xmlns="http://www.w3.org/2000/svg">
<path d="M9.42868 136.242H11.0667V145.594C11.0667 146.14 11.1927 146.462 11.4447 146.616C11.6967 146.756 12.0467 146.812 12.6347 146.812C13.3907 146.812 13.7407 146.7 14.0067 146.406C14.2447 146.126 14.3847 145.678 14.4407 144.068C14.4547 143.704 14.4827 143.662 14.1327 143.564C13.8387 143.48 13.5447 143.368 13.3067 143.2C13.2927 144.628 13.2367 145.216 13.1247 145.314C13.0127 145.412 12.9707 145.412 12.8167 145.412C12.6907 145.412 12.6207 145.398 12.5507 145.328C12.4947 145.272 12.4947 145.174 12.4947 144.922V137.446C12.4947 135.892 12.5227 135.108 12.5227 135.01C12.5227 134.87 12.5087 134.856 12.3687 134.856C12.2707 134.856 11.9627 134.884 10.9967 134.884H9.47068C8.51868 134.884 8.23868 134.856 8.14068 134.856C8.00068 134.856 7.98668 134.87 7.98668 135.01C7.98668 135.08 8.00068 135.598 8.00068 136.592C8.00068 138.062 8.01468 138.916 7.97268 139.826C7.84668 142.794 7.52468 144.446 6.64268 145.608C6.65668 145.538 6.65668 145.468 6.65668 145.398C6.65668 144.824 6.64268 144.11 6.64268 143.466V137.25C6.64268 135.78 6.67068 135.01 6.67068 134.926C6.67068 134.786 6.65668 134.772 6.51668 134.772C6.41868 134.772 6.13868 134.8 5.27068 134.8H3.89868C3.01668 134.8 2.73668 134.772 2.65268 134.772C2.49868 134.772 2.48468 134.786 2.48468 134.926C2.48468 135.024 2.51268 135.78 2.51268 137.25V139.546C2.51268 143.326 2.20468 144.754 1.36468 146.098C1.64468 146.252 1.92468 146.49 2.17668 146.798C2.30268 146.952 2.37268 147.036 2.44268 147.036C2.52668 147.036 2.58268 146.938 2.68068 146.756C3.24068 145.65 3.57668 144.558 3.73068 142.668H5.31268V144.978C5.31268 145.328 5.18668 145.482 4.86468 145.482C4.52868 145.482 4.36068 145.468 3.98268 145.426C4.12268 145.692 4.24868 146.014 4.31868 146.42C4.40268 146.868 4.40268 146.868 4.83668 146.854C5.64868 146.826 5.95668 146.7 6.20868 146.476C6.32068 146.378 6.41868 146.252 6.48868 146.098C6.74068 146.266 6.96468 146.434 7.21668 146.686C7.37068 146.84 7.44068 146.924 7.51068 146.924C7.58068 146.924 7.65068 146.84 7.76268 146.672C8.42068 145.762 8.82668 144.726 9.07868 143.354C9.34468 142.038 9.42868 140.246 9.42868 137.544V136.242ZM3.81468 141.38C3.82868 140.834 3.84268 140.232 3.84268 139.56V139.336H5.31268V141.38H3.81468ZM5.31268 136.13V138.048H3.84268V136.13H5.31268ZM26.4467 134.982C25.5507 134.982 25.2567 134.954 25.1587 134.954C25.0187 134.954 25.0047 134.968 25.0047 135.108C25.0047 135.206 25.0327 135.766 25.0327 136.984V141.59C25.0327 142.808 25.0047 143.368 25.0047 143.466C25.0047 143.606 25.0187 143.62 25.1587 143.62C25.2567 143.62 25.5507 143.592 26.4467 143.592H27.7347C28.6307 143.592 28.9247 143.62 29.0227 143.62C29.1627 143.62 29.1767 143.606 29.1767 143.466C29.1767 143.382 29.1487 142.808 29.1487 141.59V136.984C29.1487 135.766 29.1767 135.206 29.1767 135.108C29.1767 134.968 29.1627 134.954 29.0227 134.954C28.9247 134.954 28.6307 134.982 27.7347 134.982H26.4467ZM27.9027 142.472H26.2787V141.044H27.9027V142.472ZM27.9027 136.13V137.502H26.2787V136.13H27.9027ZM26.2787 139.952V138.608H27.9027V139.952H26.2787ZM33.7687 136.382C33.7687 135.444 33.7827 135.122 33.8527 134.954C33.8947 134.856 33.9227 134.8 33.9227 134.674C33.9227 134.604 33.8527 134.534 33.7127 134.52C33.2087 134.464 32.8027 134.45 32.2847 134.436C32.3827 135.066 32.3967 135.514 32.3967 136.41V144.782C32.3967 145.202 32.2147 145.314 31.9207 145.314C31.5847 145.314 31.1787 145.3 30.7167 145.258C30.8707 145.538 31.0387 145.986 31.1087 146.406C31.1787 146.84 31.1787 146.84 31.6127 146.84C32.5787 146.826 32.9707 146.756 33.2927 146.518C33.6427 146.266 33.7967 145.874 33.7967 145.118C33.7967 144.418 33.7687 143.312 33.7687 142.332V136.382ZM30.1147 141.352C30.1147 142.528 30.0867 143.088 30.0867 143.186C30.0867 143.326 30.1007 143.34 30.2547 143.34H31.2907C31.4307 143.34 31.4447 143.326 31.4447 143.186C31.4447 143.102 31.4167 142.528 31.4167 141.352V137.53C31.4167 136.494 31.4167 136.242 31.4587 136.046C31.4867 135.934 31.5567 135.836 31.5567 135.724C31.5567 135.64 31.4867 135.57 31.3607 135.556C30.8707 135.5 30.4227 135.486 30.0167 135.458C30.1007 136.116 30.1147 136.62 30.1147 137.544V141.352ZM21.4627 146C21.8687 146.322 22.2467 146.56 22.5547 146.728C22.6527 146.784 22.7367 146.812 22.8067 146.812C22.8907 146.812 22.9607 146.728 22.9747 146.616C22.9887 146.49 23.0727 146.294 23.1847 146.07C23.6187 145.132 24.0247 144.152 24.3607 143.06C24.4027 142.906 24.4307 142.808 24.4307 142.738C24.4307 142.612 24.3467 142.542 24.1227 142.388C23.8287 142.178 23.5487 141.926 23.3527 141.716C22.9327 143.074 22.5687 143.984 22.1487 144.894C21.9667 145.286 21.7567 145.622 21.4627 146ZM25.7607 143.844C25.6767 144.068 25.5927 144.222 25.4947 144.404C25.0747 145.062 24.6267 145.538 23.9687 146.056C24.1927 146.196 24.4587 146.448 24.6547 146.714C24.7667 146.868 24.8367 146.952 24.9067 146.952C24.9907 146.952 25.0747 146.882 25.2427 146.728C25.7607 146.238 26.1667 145.734 26.5307 145.188C26.6567 144.992 26.7547 144.824 26.8527 144.754C26.8947 144.726 26.9507 144.67 26.9507 144.6C26.9507 144.544 26.9087 144.488 26.7967 144.418C26.5167 144.236 26.1387 144.026 25.7607 143.844ZM21.4627 138.748C21.3507 138.888 21.3507 138.944 21.4627 139.014C22.1207 139.42 22.6947 139.91 23.2687 140.484C23.3247 140.54 23.3667 140.568 23.3947 140.568C23.4507 140.568 23.4927 140.526 23.5487 140.428L24.1507 139.56C24.2627 139.406 24.2487 139.336 24.1787 139.252C23.5767 138.692 22.9607 138.258 22.3307 137.88C22.2047 137.81 22.1767 137.81 22.0647 137.95L21.4627 138.748ZM21.9387 135.276C21.8827 135.346 21.8547 135.388 21.8547 135.43C21.8547 135.472 21.8827 135.5 21.9387 135.542C22.5407 135.948 23.1567 136.48 23.6607 137.054C23.7727 137.18 23.8007 137.152 23.9267 136.998L24.5847 136.144C24.7107 135.976 24.7107 135.948 24.6127 135.85C24.0527 135.304 23.4787 134.828 22.8487 134.436C22.7227 134.352 22.6947 134.366 22.5827 134.492L21.9387 135.276ZM27.5247 144.376C27.3567 144.474 27.3427 144.502 27.4127 144.628C27.8467 145.328 28.2107 145.846 28.6587 146.406C28.7987 146.574 28.8687 146.672 28.9527 146.672C29.0227 146.672 29.0927 146.588 29.2467 146.42C29.4707 146.182 29.8067 145.944 30.0307 145.804C29.3587 145.188 28.9527 144.656 28.5187 143.984C28.4487 143.858 28.4067 143.844 28.2667 143.942L27.5247 144.376ZM47.2027 139.7V144.894C46.1107 144.516 45.6067 143.872 45.1027 142.892C45.2007 142.542 45.2847 142.178 45.3547 141.786C45.4107 141.576 45.4667 141.436 45.5367 141.352C45.5927 141.282 45.6627 141.198 45.6627 141.086C45.6627 140.988 45.5927 140.932 45.3967 140.89C44.9907 140.792 44.5287 140.694 44.0667 140.624C44.0667 140.932 44.0247 141.198 43.9827 141.52C43.7167 143.424 42.7927 144.908 41.4627 145.944C41.7567 146.126 42.0367 146.364 42.2747 146.672C42.4147 146.854 42.4847 146.938 42.5547 146.938C42.6387 146.938 42.7227 146.854 42.8627 146.7C43.5907 145.986 44.1507 145.216 44.5707 144.306C45.6767 145.972 46.6567 146.728 51.6687 146.742C52.2287 146.742 52.7887 146.728 53.3207 146.7C53.7547 146.658 53.7687 146.658 53.8247 146.224C53.8667 145.888 53.9507 145.552 54.0907 145.216C53.1667 145.286 52.1727 145.342 51.3747 145.342C50.2687 145.342 49.3867 145.3 48.6727 145.216V142.822H50.3807C51.5287 142.822 51.9067 142.85 51.9907 142.85C52.1447 142.85 52.1587 142.836 52.1587 142.71V141.688C52.1587 141.548 52.1447 141.534 51.9907 141.534C51.9067 141.534 51.5287 141.562 50.3807 141.562H48.6727V139.7H49.8627C51.2067 139.7 51.6687 139.728 51.7527 139.728C51.8927 139.728 51.9067 139.714 51.9067 139.574V138.552C51.9067 138.412 51.8927 138.398 51.7527 138.398C51.6687 138.398 51.2067 138.426 49.8627 138.426H45.9147C44.5567 138.426 44.1087 138.398 44.0247 138.398C43.8707 138.398 43.8567 138.412 43.8567 138.552V139.574C43.8567 139.714 43.8707 139.728 44.0247 139.728C44.1087 139.728 44.5567 139.7 45.9147 139.7H47.2027ZM48.4767 135.724V135.584C48.4767 135.052 48.4767 134.87 48.5327 134.744C48.5747 134.646 48.6167 134.576 48.6167 134.478C48.6167 134.394 48.5327 134.352 48.4067 134.338C47.9307 134.296 47.4267 134.268 46.9087 134.268C46.9927 134.618 47.0067 134.982 47.0067 135.598V135.724H44.0107C42.6947 135.724 42.2467 135.696 42.1487 135.696C42.0087 135.696 41.9947 135.71 41.9947 135.836C41.9947 135.934 42.0227 136.172 42.0227 136.69V137.166C42.0227 138.412 41.9947 138.608 41.9947 138.706C41.9947 138.846 42.0087 138.86 42.1487 138.86H43.2827C43.4367 138.86 43.4507 138.846 43.4507 138.706V137.012H52.3127V138.706C52.3127 138.846 52.3267 138.86 52.4667 138.86H53.6147C53.7547 138.86 53.7687 138.846 53.7687 138.706C53.7687 138.622 53.7407 138.412 53.7407 137.166V136.564C53.7407 136.172 53.7687 135.934 53.7687 135.836C53.7687 135.71 53.7547 135.696 53.6147 135.696C53.5307 135.696 53.0687 135.724 51.7667 135.724H48.4767ZM68.9247 140.61C68.8687 141.702 68.7427 142.598 68.2947 143.354C67.4967 142.416 66.6427 141.31 65.9007 140.204C67.7207 139.672 68.4767 138.832 68.4767 137.488C68.4767 136.032 67.3847 135.164 65.8027 135.164C64.1647 135.164 63.0587 136.2 63.0587 137.614C63.0587 138.384 63.2967 138.972 63.8567 139.798C62.2747 140.526 61.5467 141.464 61.5467 142.962C61.5467 144.922 63.0307 146.224 65.1867 146.224C66.4187 146.224 67.3147 145.93 68.0567 145.3C68.6587 145.944 69.1627 146.21 70.3387 146.21H70.8147L71.1647 144.95C70.1987 144.964 69.7507 144.838 69.2047 144.208C69.8487 143.508 70.2827 142.248 70.4087 140.932L68.9247 140.61ZM64.4447 140.722C65.2567 141.996 66.2787 143.34 67.2307 144.418C66.7967 144.796 66.2227 144.978 65.5367 144.978C64.2207 144.978 63.1847 144.068 63.1847 142.738C63.1847 141.772 63.5907 141.184 64.4447 140.722ZM65.3127 139.294C64.8227 138.566 64.6407 138.076 64.6407 137.558C64.6407 136.816 65.1867 136.34 65.8027 136.34C66.4467 136.34 66.9087 136.802 66.9087 137.474C66.9087 138.342 66.5167 138.888 65.3127 139.294ZM82.2577 138.398C82.2577 137.404 82.3137 136.942 82.4117 136.662C82.4537 136.536 82.4817 136.438 82.4817 136.368C82.4817 136.228 82.3977 136.144 82.2577 136.102C81.9357 136.004 81.2217 135.892 80.4377 135.794C80.5497 136.396 80.5917 137.082 80.5917 138.23L80.5637 143.494C80.5637 143.886 80.5637 144.152 80.5077 144.292C80.4657 144.376 80.4377 144.46 80.4377 144.53C80.4377 144.614 80.4657 144.684 80.5217 144.754C80.7737 145.132 81.0537 145.44 81.3757 145.706C81.4597 145.776 81.5297 145.818 81.6137 145.818C81.6977 145.818 81.7817 145.776 81.8657 145.706C82.0477 145.552 82.2997 145.412 82.6497 145.258C83.9237 144.698 85.0157 144.152 86.0797 143.522C87.2697 142.85 88.4317 142.08 89.5797 141.114C89.7617 140.96 89.8037 140.82 89.7197 140.554C89.5937 140.134 89.5097 139.574 89.4957 138.93C88.3617 140.05 87.3957 140.834 85.7857 141.786C84.3437 142.64 83.2937 143.13 82.2157 143.55L82.2577 138.398ZM107.2 142.962H102.398C101.292 142.962 100.48 142.934 99.8217 142.892C99.8217 143.48 99.8497 143.984 99.8917 144.348C99.9057 144.502 99.9617 144.558 100.088 144.558C100.76 144.544 101.502 144.502 102.384 144.502H107.2V145.062C107.2 145.272 107.242 145.286 107.466 145.3C107.858 145.328 108.306 145.328 108.698 145.3C108.894 145.286 108.95 145.244 108.95 145.104C108.936 144.712 108.894 143.592 108.894 142.57V139.224C108.894 138.482 108.922 137.754 108.922 137.012C108.936 136.83 108.866 136.774 108.642 136.774C107.9 136.802 107.158 136.83 106.43 136.83H102.272C101.264 136.83 100.774 136.816 99.9337 136.732C99.9337 137.194 99.9617 137.852 100.004 138.23C100.004 138.398 100.06 138.468 100.214 138.468C100.704 138.412 101.362 138.384 102.314 138.384H107.2V142.962ZM126.57 141.674C127.606 141.674 128.642 141.688 129.692 141.702C129.888 141.716 129.944 141.66 129.944 141.492C129.972 141.072 129.972 140.596 129.944 140.176C129.944 140.008 129.902 139.966 129.692 139.98C128.614 139.994 127.536 140.022 126.472 140.022H121.964C120.55 140.022 119.85 139.994 118.94 139.854C118.996 140.568 119.08 141.226 119.15 141.548C119.192 141.758 119.304 141.842 119.472 141.842C119.612 141.842 120.144 141.674 121.53 141.674H126.57ZM147.858 135.108C148.362 135.598 148.754 136.172 149.118 136.858C149.174 136.956 149.244 136.984 149.342 136.928L149.972 136.55C150.084 136.48 150.084 136.41 150.042 136.326C149.706 135.696 149.258 135.08 148.852 134.702C148.782 134.632 148.726 134.618 148.656 134.66L147.858 135.108ZM149.23 134.31C149.762 134.842 150.154 135.416 150.476 136.046C150.518 136.13 150.588 136.186 150.714 136.116L151.302 135.738C151.428 135.654 151.414 135.57 151.372 135.486C151.106 134.968 150.658 134.366 150.182 133.918C150.112 133.848 150.07 133.82 149.986 133.876L149.23 134.31ZM145.212 137.096C145.982 137.096 146.808 137.11 147.564 137.138C147.718 137.138 147.746 137.068 147.746 136.872C147.774 136.536 147.774 136.186 147.746 135.85C147.746 135.668 147.718 135.584 147.578 135.584C146.878 135.626 145.996 135.64 145.212 135.64H142.636C142.006 135.64 141.292 135.626 140.312 135.57C140.354 136.074 140.368 136.578 140.41 136.914C140.424 137.082 140.466 137.152 140.648 137.152C141.432 137.124 141.992 137.096 142.636 137.096H145.212ZM147.284 140.344C148.25 140.344 149.216 140.372 149.944 140.4C150.07 140.4 150.154 140.344 150.154 140.162C150.168 139.98 150.168 139.266 150.154 139.084C150.154 138.888 150.14 138.804 150 138.804C149.174 138.86 148.362 138.888 147.27 138.888H140.984C140.172 138.888 139.388 138.888 138.604 138.818C138.604 139.238 138.646 139.77 138.716 140.162C138.73 140.344 138.772 140.442 138.898 140.428C139.612 140.386 140.298 140.344 140.998 140.344H143.658C143.602 141.674 143.462 142.43 142.944 143.354C142.356 144.418 141.53 145.104 140.158 145.846C140.648 146.028 141.124 146.308 141.404 146.588C141.502 146.686 141.6 146.728 141.698 146.728C141.824 146.728 141.964 146.658 142.118 146.56C143.014 146.028 144.022 145.006 144.582 143.914C145.128 142.85 145.324 141.912 145.408 140.344H147.284ZM164.595 140.582C165.085 140.106 165.505 139.644 165.869 139.224C165.995 139.084 166.317 138.748 166.499 138.65C166.639 138.58 166.709 138.482 166.709 138.384C166.709 138.314 166.653 138.216 166.555 138.132C166.331 137.936 165.743 137.572 165.267 137.292C165.085 137.768 164.847 138.118 164.525 138.496C162.817 140.428 160.913 141.898 158.715 143.046C159.093 143.172 159.471 143.452 159.723 143.746C159.793 143.83 159.905 143.886 160.003 143.886C160.059 143.886 160.129 143.872 160.185 143.83C160.899 143.466 162.131 142.612 163.083 141.814V144.208C163.083 144.95 163.055 145.65 163.041 146.448C163.027 146.616 163.111 146.686 163.265 146.7C163.629 146.728 164.035 146.728 164.399 146.7C164.567 146.686 164.651 146.616 164.637 146.448C164.623 145.734 164.595 144.838 164.595 144.166V140.582ZM178.225 137.278C179.233 137.894 180.241 138.692 181.081 139.56C181.151 139.63 181.207 139.672 181.263 139.672C181.319 139.672 181.361 139.63 181.431 139.56C181.627 139.35 182.089 138.79 182.299 138.51C182.355 138.44 182.383 138.384 182.383 138.328C182.383 138.272 182.341 138.216 182.257 138.132C181.459 137.376 180.297 136.522 179.583 136.144C179.513 136.102 179.457 136.074 179.401 136.074C179.331 136.074 179.261 136.116 179.205 136.186C178.939 136.466 178.533 136.9 178.225 137.278ZM178.533 144.264C178.869 144.852 179.303 145.426 179.653 145.818C179.737 145.916 179.821 145.972 179.891 145.972C179.975 145.972 180.059 145.916 180.143 145.832C180.269 145.706 180.451 145.566 181.081 145.188C182.971 144.138 184.147 143.354 185.309 142.444C186.583 141.464 187.787 140.344 188.529 139.476C188.683 139.294 188.753 139.182 188.753 139.056C188.753 138.972 188.725 138.888 188.683 138.79C188.501 138.328 188.375 137.852 188.291 137.152C187.101 138.678 186.163 139.574 184.455 140.96C183.041 142.094 182.131 142.682 180.423 143.564C179.681 143.942 179.247 144.068 178.533 144.264ZM203.083 137.18C203.251 136.928 203.391 136.718 203.545 136.48C203.657 136.34 203.755 136.186 203.895 136.102C204.007 136.032 204.049 135.948 204.049 135.864C204.049 135.78 204.007 135.696 203.909 135.626C203.601 135.402 203.069 135.164 202.271 134.884C202.117 135.556 201.907 135.99 201.445 136.774C200.577 138.146 199.499 139.448 197.679 140.932C198.155 141.03 198.673 141.282 199.023 141.534C199.093 141.59 199.163 141.618 199.233 141.618C199.331 141.618 199.429 141.562 199.527 141.464C200.325 140.806 201.025 140.008 202.173 138.594L205.561 138.496C204.721 140.288 204.077 141.24 202.971 142.472C201.599 143.956 200.493 144.838 198.309 146.042C198.855 146.196 199.289 146.406 199.639 146.686C199.751 146.784 199.849 146.84 199.961 146.84C200.031 146.84 200.101 146.826 200.185 146.77C201.571 146 203.237 144.642 204.441 143.284C205.379 142.22 206.275 140.862 207.213 138.958C207.339 138.706 207.479 138.51 207.675 138.356C207.773 138.272 207.843 138.174 207.843 138.062C207.843 137.964 207.787 137.852 207.661 137.74C207.381 137.474 207.059 137.208 206.709 136.984C206.625 136.928 206.555 136.9 206.485 136.9C206.415 136.9 206.359 136.914 206.303 136.956C206.149 137.054 205.967 137.11 205.603 137.124L203.083 137.18ZM206.597 135.752C207.143 136.2 207.591 136.732 208.011 137.376C208.081 137.474 208.151 137.488 208.249 137.418L208.837 136.984C208.935 136.914 208.935 136.844 208.879 136.76C208.487 136.158 207.983 135.598 207.549 135.262C207.465 135.192 207.409 135.178 207.339 135.234L206.597 135.752ZM207.885 134.828C208.459 135.304 208.907 135.836 209.285 136.438C209.341 136.522 209.411 136.564 209.523 136.48L210.083 136.046C210.195 135.962 210.181 135.878 210.125 135.794C209.817 135.304 209.313 134.744 208.795 134.352C208.711 134.282 208.669 134.268 208.585 134.324L207.885 134.828Z" fill="#7D859C"/>
<path d="M17.5657 0.144971C10.9503 0.144971 5.93428 5.01561 5.93428 11.4492V42.018C5.93428 48.4152 5.38905 60.5555 1.60885 69.8606C1.06363 71.3145 1.39076 73.2047 3.02642 73.8589C3.3899 74.0043 3.75339 74.077 4.11688 74.077C4.5167 74.077 4.91654 74.0043 5.31637 73.8225C6.04333 73.4954 6.62489 72.9138 6.95202 72.1869C8.87847 67.7888 11.0957 58.8108 11.6409 46.7432H23.345V62.9908C23.345 64.5174 22.7634 67.5707 20.5825 68.0432C19.7465 68.2249 18.9832 68.7702 18.5471 69.5335C18.1472 70.1878 18.0018 70.9147 18.1836 71.6053C18.3653 72.3686 18.8742 73.0229 19.5648 73.3864C20.2554 73.7499 21.0551 73.8589 21.8184 73.6772C26.7254 72.6231 29.2697 67.498 29.2697 62.9908V11.4129C29.2697 4.97929 24.2537 0.108643 17.5657 0.108643V0.144971ZM11.7863 11.4492C11.7863 8.25059 14.1126 6.06972 17.5657 6.06972C21.0187 6.06972 23.345 8.21424 23.345 11.4492V22.0265H11.7499V11.4492H11.7863ZM23.3813 27.6605V41.1093H11.7863V27.6605H23.3813Z" fill="#8D93A5"/>
<path d="M76.5225 61.2828C76.5225 61.2828 76.4134 61.2828 76.3407 61.2828C74.7414 61.2828 73.4329 62.555 73.3238 64.1907C73.1784 66.5897 71.4337 68.3344 69.2165 68.3344C66.6721 68.3344 65.509 66.0444 65.509 63.7909V11.9585C65.509 5.01601 60.0931 0 52.6418 0C45.1904 0 39.7746 5.01601 39.7746 11.9585V40.3464C39.7746 48.8155 37.63 60.8466 31.5599 69.2067C30.5421 70.5879 30.7602 72.4781 32.0324 73.4958C32.6503 73.9683 33.45 74.1864 34.2496 74.1137C35.0857 74.0047 35.849 73.6049 36.3215 72.9506C41.1195 66.6624 45.9174 54.1586 45.9174 40.3464V11.9585C45.9174 7.9602 49.2977 6.17916 52.6418 6.17916C55.695 6.17916 59.2571 7.70577 59.2571 11.9585V63.7909C59.2571 69.752 63.5462 74.2591 69.2165 74.2591C74.8868 74.2591 79.1395 70.0791 79.4303 64.5905C79.503 62.9185 78.1945 61.4282 76.5225 61.3192V61.2828Z" fill="#8D93A5"/>
<path d="M145.947 30.6418C144.893 30.6418 144.021 31.078 143.403 31.8776C137.333 39.329 130.063 45.9443 121.521 51.7237C115.197 56.0127 109.381 59.175 104.11 61.2105C103.674 61.3923 103.493 61.2832 103.493 60.8471V13.2311C103.493 11.4864 101.93 9.99609 100.076 9.99609C98.222 9.99609 96.8408 11.4137 96.8408 13.2311L96.9135 61.0288C96.9135 64.9907 99.6396 68.044 103.42 68.044C104.292 68.044 105.165 67.8622 106.146 67.5351C112.034 65.2452 118.359 61.8284 125.12 57.2486C134.098 51.1058 141.912 44.0542 148.491 36.0577C149.037 35.4397 149.291 34.7491 149.291 33.9495C149.291 32.0957 147.801 30.6054 145.947 30.6054V30.6418Z" fill="#8D93A5"/>
<path d="M210.721 38.9298C210.648 32.169 210.648 26.5714 210.648 21.9188C210.648 17.2663 206.686 13.4134 201.888 13.4861L164.522 13.9223C162.777 13.9223 161.36 15.4852 161.36 17.2663C161.36 19.0474 162.85 20.4286 164.595 20.4286L201.888 19.9924C203.378 19.9924 204.178 20.6103 204.178 21.9188C204.178 22.355 204.178 28.2434 204.251 39.3659C204.323 50.234 204.323 55.7589 204.323 55.9406C204.323 58.485 203.887 59.0303 201.415 59.0303L162.378 59.6482C160.633 59.6482 159.143 61.1384 159.143 62.8831C159.143 64.6278 160.633 66.1181 162.378 66.1181L201.524 65.5002C207.74 65.4275 210.83 62.1562 210.83 55.9406C210.83 51.4698 210.83 45.8359 210.757 38.9298H210.721Z" fill="#8D93A5"/>
<g opacity="0.32">
<path d="M21.4397 112.595H17.9741V100.476H4.81478V112.595H1.36523V86.3689H4.81478V97.6383H17.9741V86.3689H21.4397V112.595Z" fill="#7D859C"/>
<path d="M42.7913 102.896L38.3357 90.633L33.912 102.896L32.8739 105.718L30.4145 112.579H26.8691L36.8345 86.3689H39.8528L49.8501 112.579H46.3207L43.8294 105.718L42.8073 102.896H42.7913Z" fill="#7D859C"/>
<path d="M55.1849 112.595V86.3689H62.5631C64.8309 86.3689 66.8431 86.8658 68.5838 87.8758C70.3246 88.8857 71.682 90.3124 72.6243 92.1719C73.5825 94.0314 74.0616 96.1635 74.0616 98.5841V100.251C74.0616 102.72 73.5825 104.884 72.6402 106.744C71.682 108.603 70.3246 110.03 68.5679 111.024C66.8112 112.018 64.751 112.531 62.4034 112.563H55.1689L55.1849 112.595ZM58.6345 89.2063V109.757H62.2597C64.9107 109.757 66.9868 108.924 68.4561 107.273C69.9253 105.621 70.6759 103.249 70.6759 100.187V98.6482C70.6759 95.6665 69.9732 93.3582 68.5838 91.707C67.1944 90.0559 65.2141 89.2223 62.6589 89.1902H58.6345V89.2063Z" fill="#7D859C"/>
<path d="M127.416 101.983H121.284V112.595H117.818V86.3689H126.458C129.397 86.3689 131.664 87.0422 133.245 88.3887C134.827 89.7353 135.625 91.691 135.625 94.2559C135.625 95.891 135.178 97.3177 134.3 98.5199C133.421 99.7382 132.191 100.636 130.626 101.245L136.759 112.37V112.579H133.07L127.4 101.966L127.416 101.983ZM121.284 99.1612H126.57C128.279 99.1612 129.636 98.7123 130.642 97.8306C131.648 96.9329 132.16 95.7467 132.16 94.2559C132.16 92.6368 131.68 91.3864 130.722 90.5208C129.764 89.6551 128.375 89.2223 126.554 89.2063H121.284V99.1612Z" fill="#7D859C"/>
<path d="M157.058 100.476H145.735V109.757H158.878V112.579H142.285V86.3689H158.702V89.2063H145.735V97.6383H157.058V100.46V100.476Z" fill="#7D859C"/>
<path d="M184.207 104.275C183.888 107.048 182.865 109.18 181.141 110.687C179.416 112.194 177.148 112.947 174.305 112.947C171.223 112.947 168.748 111.841 166.895 109.613C165.043 107.401 164.101 104.419 164.101 100.7V98.1831C164.101 95.7465 164.532 93.5984 165.394 91.7549C166.257 89.9114 167.486 88.4847 169.083 87.4908C170.68 86.4969 172.517 86 174.609 86C177.388 86 179.608 86.7695 181.284 88.3244C182.961 89.8794 183.935 92.0274 184.207 94.7847H180.741C180.438 92.6847 179.799 91.1778 178.793 90.232C177.787 89.2862 176.398 88.8214 174.609 88.8214C172.405 88.8214 170.68 89.6389 169.435 91.274C168.189 92.9091 167.566 95.2335 167.566 98.2472V100.78C167.566 103.633 168.157 105.894 169.339 107.577C170.521 109.26 172.181 110.094 174.305 110.094C176.222 110.094 177.691 109.661 178.713 108.795C179.735 107.93 180.422 106.407 180.741 104.243H184.207V104.275Z" fill="#7D859C"/>
<path d="M210.829 100.331C210.829 102.896 210.398 105.14 209.536 107.064C208.673 108.988 207.459 110.446 205.878 111.44C204.297 112.434 202.461 112.947 200.353 112.947C198.245 112.947 196.472 112.434 194.875 111.424C193.278 110.414 192.048 108.972 191.17 107.08C190.292 105.204 189.844 103.024 189.812 100.556V98.664C189.812 96.1472 190.244 93.919 191.122 91.9793C192 90.0397 193.23 88.5649 194.827 87.5389C196.424 86.513 198.245 86 200.305 86C202.365 86 204.249 86.513 205.831 87.5229C207.428 88.5328 208.657 90.0076 209.52 91.9312C210.382 93.8549 210.813 96.0992 210.813 98.648V100.299L210.829 100.331ZM207.396 98.648C207.396 95.5381 206.773 93.1496 205.527 91.4984C204.281 89.8473 202.541 89.0137 200.305 89.0137C198.069 89.0137 196.424 89.8473 195.162 91.4984C193.901 93.1496 193.262 95.474 193.23 98.4236V100.347C193.23 103.361 193.853 105.733 195.115 107.449C196.376 109.164 198.117 110.03 200.321 110.03C202.525 110.03 204.265 109.212 205.479 107.593C206.693 105.974 207.332 103.633 207.364 100.604V98.664L207.396 98.648Z" fill="#7D859C"/>
<path d="M94.5032 102.896L90.0476 90.633L85.6239 102.896L84.5858 105.718L82.1264 112.579H78.5811L88.5464 86.3689H91.5647L101.562 112.579H98.0326L95.5413 105.718L94.5192 102.896H94.5032Z" fill="#7D859C"/>
</g>
</svg>
