<svg width="253" height="178" viewBox="0 0 253 178" fill="none" xmlns="http://www.w3.org/2000/svg">
<path d="M8.582 162.62H10.22V171.972C10.22 172.518 10.346 172.84 10.598 172.994C10.85 173.134 11.2 173.19 11.788 173.19C12.544 173.19 12.894 173.078 13.16 172.784C13.398 172.504 13.538 172.056 13.594 170.446C13.608 170.082 13.636 170.04 13.286 169.942C12.992 169.858 12.698 169.746 12.46 169.578C12.446 171.006 12.39 171.594 12.278 171.692C12.166 171.79 12.124 171.79 11.97 171.79C11.844 171.79 11.774 171.776 11.704 171.706C11.648 171.65 11.648 171.552 11.648 171.3V163.824C11.648 162.27 11.676 161.486 11.676 161.388C11.676 161.248 11.662 161.234 11.522 161.234C11.424 161.234 11.116 161.262 10.15 161.262H8.624C7.672 161.262 7.392 161.234 7.294 161.234C7.154 161.234 7.14 161.248 7.14 161.388C7.14 161.458 7.154 161.976 7.154 162.97C7.154 164.44 7.168 165.294 7.126 166.204C7 169.172 6.678 170.824 5.796 171.986C5.81 171.916 5.81 171.846 5.81 171.776C5.81 171.202 5.796 170.488 5.796 169.844V163.628C5.796 162.158 5.824 161.388 5.824 161.304C5.824 161.164 5.81 161.15 5.67 161.15C5.572 161.15 5.292 161.178 4.424 161.178H3.052C2.17 161.178 1.89 161.15 1.806 161.15C1.652 161.15 1.638 161.164 1.638 161.304C1.638 161.402 1.666 162.158 1.666 163.628V165.924C1.666 169.704 1.358 171.132 0.518 172.476C0.798 172.63 1.078 172.868 1.33 173.176C1.456 173.33 1.526 173.414 1.596 173.414C1.68 173.414 1.736 173.316 1.834 173.134C2.394 172.028 2.73 170.936 2.884 169.046H4.466V171.356C4.466 171.706 4.34 171.86 4.018 171.86C3.682 171.86 3.514 171.846 3.136 171.804C3.276 172.07 3.402 172.392 3.472 172.798C3.556 173.246 3.556 173.246 3.99 173.232C4.802 173.204 5.11 173.078 5.362 172.854C5.474 172.756 5.572 172.63 5.642 172.476C5.894 172.644 6.118 172.812 6.37 173.064C6.524 173.218 6.594 173.302 6.664 173.302C6.734 173.302 6.804 173.218 6.916 173.05C7.574 172.14 7.98 171.104 8.232 169.732C8.498 168.416 8.582 166.624 8.582 163.922V162.62ZM2.968 167.758C2.982 167.212 2.996 166.61 2.996 165.938V165.714H4.466V167.758H2.968ZM4.466 162.508V164.426H2.996V162.508H4.466ZM29.6 161.36C28.704 161.36 28.41 161.332 28.312 161.332C28.172 161.332 28.158 161.346 28.158 161.486C28.158 161.584 28.186 162.144 28.186 163.362V167.968C28.186 169.186 28.158 169.746 28.158 169.844C28.158 169.984 28.172 169.998 28.312 169.998C28.41 169.998 28.704 169.97 29.6 169.97H30.888C31.784 169.97 32.078 169.998 32.176 169.998C32.316 169.998 32.33 169.984 32.33 169.844C32.33 169.76 32.302 169.186 32.302 167.968V163.362C32.302 162.144 32.33 161.584 32.33 161.486C32.33 161.346 32.316 161.332 32.176 161.332C32.078 161.332 31.784 161.36 30.888 161.36H29.6ZM31.056 168.85H29.432V167.422H31.056V168.85ZM31.056 162.508V163.88H29.432V162.508H31.056ZM29.432 166.33V164.986H31.056V166.33H29.432ZM36.922 162.76C36.922 161.822 36.936 161.5 37.006 161.332C37.048 161.234 37.076 161.178 37.076 161.052C37.076 160.982 37.006 160.912 36.866 160.898C36.362 160.842 35.956 160.828 35.438 160.814C35.536 161.444 35.55 161.892 35.55 162.788V171.16C35.55 171.58 35.368 171.692 35.074 171.692C34.738 171.692 34.332 171.678 33.87 171.636C34.024 171.916 34.192 172.364 34.262 172.784C34.332 173.218 34.332 173.218 34.766 173.218C35.732 173.204 36.124 173.134 36.446 172.896C36.796 172.644 36.95 172.252 36.95 171.496C36.95 170.796 36.922 169.69 36.922 168.71V162.76ZM33.268 167.73C33.268 168.906 33.24 169.466 33.24 169.564C33.24 169.704 33.254 169.718 33.408 169.718H34.444C34.584 169.718 34.598 169.704 34.598 169.564C34.598 169.48 34.57 168.906 34.57 167.73V163.908C34.57 162.872 34.57 162.62 34.612 162.424C34.64 162.312 34.71 162.214 34.71 162.102C34.71 162.018 34.64 161.948 34.514 161.934C34.024 161.878 33.576 161.864 33.17 161.836C33.254 162.494 33.268 162.998 33.268 163.922V167.73ZM24.616 172.378C25.022 172.7 25.4 172.938 25.708 173.106C25.806 173.162 25.89 173.19 25.96 173.19C26.044 173.19 26.114 173.106 26.128 172.994C26.142 172.868 26.226 172.672 26.338 172.448C26.772 171.51 27.178 170.53 27.514 169.438C27.556 169.284 27.584 169.186 27.584 169.116C27.584 168.99 27.5 168.92 27.276 168.766C26.982 168.556 26.702 168.304 26.506 168.094C26.086 169.452 25.722 170.362 25.302 171.272C25.12 171.664 24.91 172 24.616 172.378ZM28.914 170.222C28.83 170.446 28.746 170.6 28.648 170.782C28.228 171.44 27.78 171.916 27.122 172.434C27.346 172.574 27.612 172.826 27.808 173.092C27.92 173.246 27.99 173.33 28.06 173.33C28.144 173.33 28.228 173.26 28.396 173.106C28.914 172.616 29.32 172.112 29.684 171.566C29.81 171.37 29.908 171.202 30.006 171.132C30.048 171.104 30.104 171.048 30.104 170.978C30.104 170.922 30.062 170.866 29.95 170.796C29.67 170.614 29.292 170.404 28.914 170.222ZM24.616 165.126C24.504 165.266 24.504 165.322 24.616 165.392C25.274 165.798 25.848 166.288 26.422 166.862C26.478 166.918 26.52 166.946 26.548 166.946C26.604 166.946 26.646 166.904 26.702 166.806L27.304 165.938C27.416 165.784 27.402 165.714 27.332 165.63C26.73 165.07 26.114 164.636 25.484 164.258C25.358 164.188 25.33 164.188 25.218 164.328L24.616 165.126ZM25.092 161.654C25.036 161.724 25.008 161.766 25.008 161.808C25.008 161.85 25.036 161.878 25.092 161.92C25.694 162.326 26.31 162.858 26.814 163.432C26.926 163.558 26.954 163.53 27.08 163.376L27.738 162.522C27.864 162.354 27.864 162.326 27.766 162.228C27.206 161.682 26.632 161.206 26.002 160.814C25.876 160.73 25.848 160.744 25.736 160.87L25.092 161.654ZM30.678 170.754C30.51 170.852 30.496 170.88 30.566 171.006C31 171.706 31.364 172.224 31.812 172.784C31.952 172.952 32.022 173.05 32.106 173.05C32.176 173.05 32.246 172.966 32.4 172.798C32.624 172.56 32.96 172.322 33.184 172.182C32.512 171.566 32.106 171.034 31.672 170.362C31.602 170.236 31.56 170.222 31.42 170.32L30.678 170.754ZM54.356 166.078V171.272C53.264 170.894 52.76 170.25 52.256 169.27C52.354 168.92 52.438 168.556 52.508 168.164C52.564 167.954 52.62 167.814 52.69 167.73C52.746 167.66 52.816 167.576 52.816 167.464C52.816 167.366 52.746 167.31 52.55 167.268C52.144 167.17 51.682 167.072 51.22 167.002C51.22 167.31 51.178 167.576 51.136 167.898C50.87 169.802 49.946 171.286 48.616 172.322C48.91 172.504 49.19 172.742 49.428 173.05C49.568 173.232 49.638 173.316 49.708 173.316C49.792 173.316 49.876 173.232 50.016 173.078C50.744 172.364 51.304 171.594 51.724 170.684C52.83 172.35 53.81 173.106 58.822 173.12C59.382 173.12 59.942 173.106 60.474 173.078C60.908 173.036 60.922 173.036 60.978 172.602C61.02 172.266 61.104 171.93 61.244 171.594C60.32 171.664 59.326 171.72 58.528 171.72C57.422 171.72 56.54 171.678 55.826 171.594V169.2H57.534C58.682 169.2 59.06 169.228 59.144 169.228C59.298 169.228 59.312 169.214 59.312 169.088V168.066C59.312 167.926 59.298 167.912 59.144 167.912C59.06 167.912 58.682 167.94 57.534 167.94H55.826V166.078H57.016C58.36 166.078 58.822 166.106 58.906 166.106C59.046 166.106 59.06 166.092 59.06 165.952V164.93C59.06 164.79 59.046 164.776 58.906 164.776C58.822 164.776 58.36 164.804 57.016 164.804H53.068C51.71 164.804 51.262 164.776 51.178 164.776C51.024 164.776 51.01 164.79 51.01 164.93V165.952C51.01 166.092 51.024 166.106 51.178 166.106C51.262 166.106 51.71 166.078 53.068 166.078H54.356ZM55.63 162.102V161.962C55.63 161.43 55.63 161.248 55.686 161.122C55.728 161.024 55.77 160.954 55.77 160.856C55.77 160.772 55.686 160.73 55.56 160.716C55.084 160.674 54.58 160.646 54.062 160.646C54.146 160.996 54.16 161.36 54.16 161.976V162.102H51.164C49.848 162.102 49.4 162.074 49.302 162.074C49.162 162.074 49.148 162.088 49.148 162.214C49.148 162.312 49.176 162.55 49.176 163.068V163.544C49.176 164.79 49.148 164.986 49.148 165.084C49.148 165.224 49.162 165.238 49.302 165.238H50.436C50.59 165.238 50.604 165.224 50.604 165.084V163.39H59.466V165.084C59.466 165.224 59.48 165.238 59.62 165.238H60.768C60.908 165.238 60.922 165.224 60.922 165.084C60.922 165 60.894 164.79 60.894 163.544V162.942C60.894 162.55 60.922 162.312 60.922 162.214C60.922 162.088 60.908 162.074 60.768 162.074C60.684 162.074 60.222 162.102 58.92 162.102H55.63ZM80.078 166.988C80.022 168.08 79.896 168.976 79.448 169.732C78.65 168.794 77.796 167.688 77.054 166.582C78.874 166.05 79.63 165.21 79.63 163.866C79.63 162.41 78.538 161.542 76.956 161.542C75.318 161.542 74.212 162.578 74.212 163.992C74.212 164.762 74.45 165.35 75.01 166.176C73.428 166.904 72.7 167.842 72.7 169.34C72.7 171.3 74.184 172.602 76.34 172.602C77.572 172.602 78.468 172.308 79.21 171.678C79.812 172.322 80.316 172.588 81.492 172.588H81.968L82.318 171.328C81.352 171.342 80.904 171.216 80.358 170.586C81.002 169.886 81.436 168.626 81.562 167.31L80.078 166.988ZM75.598 167.1C76.41 168.374 77.432 169.718 78.384 170.796C77.95 171.174 77.376 171.356 76.69 171.356C75.374 171.356 74.338 170.446 74.338 169.116C74.338 168.15 74.744 167.562 75.598 167.1ZM76.466 165.672C75.976 164.944 75.794 164.454 75.794 163.936C75.794 163.194 76.34 162.718 76.956 162.718C77.6 162.718 78.062 163.18 78.062 163.852C78.062 164.72 77.67 165.266 76.466 165.672ZM97.411 164.776C97.411 163.782 97.467 163.32 97.565 163.04C97.607 162.914 97.635 162.816 97.635 162.746C97.635 162.606 97.551 162.522 97.411 162.48C97.089 162.382 96.375 162.27 95.591 162.172C95.703 162.774 95.745 163.46 95.745 164.608L95.717 169.872C95.717 170.264 95.717 170.53 95.661 170.67C95.619 170.754 95.591 170.838 95.591 170.908C95.591 170.992 95.619 171.062 95.675 171.132C95.927 171.51 96.207 171.818 96.529 172.084C96.613 172.154 96.683 172.196 96.767 172.196C96.851 172.196 96.935 172.154 97.019 172.084C97.201 171.93 97.453 171.79 97.803 171.636C99.077 171.076 100.169 170.53 101.233 169.9C102.423 169.228 103.585 168.458 104.733 167.492C104.915 167.338 104.957 167.198 104.873 166.932C104.747 166.512 104.663 165.952 104.649 165.308C103.515 166.428 102.549 167.212 100.939 168.164C99.497 169.018 98.447 169.508 97.369 169.928L97.411 164.776ZM126.353 169.34H121.551C120.445 169.34 119.633 169.312 118.975 169.27C118.975 169.858 119.003 170.362 119.045 170.726C119.059 170.88 119.115 170.936 119.241 170.936C119.913 170.922 120.655 170.88 121.537 170.88H126.353V171.44C126.353 171.65 126.395 171.664 126.619 171.678C127.011 171.706 127.459 171.706 127.851 171.678C128.047 171.664 128.103 171.622 128.103 171.482C128.089 171.09 128.047 169.97 128.047 168.948V165.602C128.047 164.86 128.075 164.132 128.075 163.39C128.089 163.208 128.019 163.152 127.795 163.152C127.053 163.18 126.311 163.208 125.583 163.208H121.425C120.417 163.208 119.927 163.194 119.087 163.11C119.087 163.572 119.115 164.23 119.157 164.608C119.157 164.776 119.213 164.846 119.367 164.846C119.857 164.79 120.515 164.762 121.467 164.762H126.353V169.34ZM149.723 168.052C150.759 168.052 151.795 168.066 152.845 168.08C153.041 168.094 153.097 168.038 153.097 167.87C153.125 167.45 153.125 166.974 153.097 166.554C153.097 166.386 153.055 166.344 152.845 166.358C151.767 166.372 150.689 166.4 149.625 166.4H145.117C143.703 166.4 143.003 166.372 142.093 166.232C142.149 166.946 142.233 167.604 142.303 167.926C142.345 168.136 142.457 168.22 142.625 168.22C142.765 168.22 143.297 168.052 144.683 168.052H149.723ZM175.011 161.486C175.515 161.976 175.907 162.55 176.271 163.236C176.327 163.334 176.397 163.362 176.495 163.306L177.125 162.928C177.237 162.858 177.237 162.788 177.195 162.704C176.859 162.074 176.411 161.458 176.005 161.08C175.935 161.01 175.879 160.996 175.809 161.038L175.011 161.486ZM176.383 160.688C176.915 161.22 177.307 161.794 177.629 162.424C177.671 162.508 177.741 162.564 177.867 162.494L178.455 162.116C178.581 162.032 178.567 161.948 178.525 161.864C178.259 161.346 177.811 160.744 177.335 160.296C177.265 160.226 177.223 160.198 177.139 160.254L176.383 160.688ZM172.365 163.474C173.135 163.474 173.961 163.488 174.717 163.516C174.871 163.516 174.899 163.446 174.899 163.25C174.927 162.914 174.927 162.564 174.899 162.228C174.899 162.046 174.871 161.962 174.731 161.962C174.031 162.004 173.149 162.018 172.365 162.018H169.789C169.159 162.018 168.445 162.004 167.465 161.948C167.507 162.452 167.521 162.956 167.563 163.292C167.577 163.46 167.619 163.53 167.801 163.53C168.585 163.502 169.145 163.474 169.789 163.474H172.365ZM174.437 166.722C175.403 166.722 176.369 166.75 177.097 166.778C177.223 166.778 177.307 166.722 177.307 166.54C177.321 166.358 177.321 165.644 177.307 165.462C177.307 165.266 177.293 165.182 177.153 165.182C176.327 165.238 175.515 165.266 174.423 165.266H168.137C167.325 165.266 166.541 165.266 165.757 165.196C165.757 165.616 165.799 166.148 165.869 166.54C165.883 166.722 165.925 166.82 166.051 166.806C166.765 166.764 167.451 166.722 168.151 166.722H170.811C170.755 168.052 170.615 168.808 170.097 169.732C169.509 170.796 168.683 171.482 167.311 172.224C167.801 172.406 168.277 172.686 168.557 172.966C168.655 173.064 168.753 173.106 168.851 173.106C168.977 173.106 169.117 173.036 169.271 172.938C170.167 172.406 171.175 171.384 171.735 170.292C172.281 169.228 172.477 168.29 172.561 166.722H174.437ZM195.748 166.96C196.238 166.484 196.658 166.022 197.022 165.602C197.148 165.462 197.47 165.126 197.652 165.028C197.792 164.958 197.862 164.86 197.862 164.762C197.862 164.692 197.806 164.594 197.708 164.51C197.484 164.314 196.896 163.95 196.42 163.67C196.238 164.146 196 164.496 195.678 164.874C193.97 166.806 192.066 168.276 189.868 169.424C190.246 169.55 190.624 169.83 190.876 170.124C190.946 170.208 191.058 170.264 191.156 170.264C191.212 170.264 191.282 170.25 191.338 170.208C192.052 169.844 193.284 168.99 194.236 168.192V170.586C194.236 171.328 194.208 172.028 194.194 172.826C194.18 172.994 194.264 173.064 194.418 173.078C194.782 173.106 195.188 173.106 195.552 173.078C195.72 173.064 195.804 172.994 195.79 172.826C195.776 172.112 195.748 171.216 195.748 170.544V166.96ZM213.378 163.656C214.386 164.272 215.394 165.07 216.234 165.938C216.304 166.008 216.36 166.05 216.416 166.05C216.472 166.05 216.514 166.008 216.584 165.938C216.78 165.728 217.242 165.168 217.452 164.888C217.508 164.818 217.536 164.762 217.536 164.706C217.536 164.65 217.494 164.594 217.41 164.51C216.612 163.754 215.45 162.9 214.736 162.522C214.666 162.48 214.61 162.452 214.554 162.452C214.484 162.452 214.414 162.494 214.358 162.564C214.092 162.844 213.686 163.278 213.378 163.656ZM213.686 170.642C214.022 171.23 214.456 171.804 214.806 172.196C214.89 172.294 214.974 172.35 215.044 172.35C215.128 172.35 215.212 172.294 215.296 172.21C215.422 172.084 215.604 171.944 216.234 171.566C218.124 170.516 219.3 169.732 220.462 168.822C221.736 167.842 222.94 166.722 223.682 165.854C223.836 165.672 223.906 165.56 223.906 165.434C223.906 165.35 223.878 165.266 223.836 165.168C223.654 164.706 223.528 164.23 223.444 163.53C222.254 165.056 221.316 165.952 219.608 167.338C218.194 168.472 217.284 169.06 215.576 169.942C214.834 170.32 214.4 170.446 213.686 170.642ZM242.236 163.558C242.404 163.306 242.544 163.096 242.698 162.858C242.81 162.718 242.908 162.564 243.048 162.48C243.16 162.41 243.202 162.326 243.202 162.242C243.202 162.158 243.16 162.074 243.062 162.004C242.754 161.78 242.222 161.542 241.424 161.262C241.27 161.934 241.06 162.368 240.598 163.152C239.73 164.524 238.652 165.826 236.832 167.31C237.308 167.408 237.826 167.66 238.176 167.912C238.246 167.968 238.316 167.996 238.386 167.996C238.484 167.996 238.582 167.94 238.68 167.842C239.478 167.184 240.178 166.386 241.326 164.972L244.714 164.874C243.874 166.666 243.23 167.618 242.124 168.85C240.752 170.334 239.646 171.216 237.462 172.42C238.008 172.574 238.442 172.784 238.792 173.064C238.904 173.162 239.002 173.218 239.114 173.218C239.184 173.218 239.254 173.204 239.338 173.148C240.724 172.378 242.39 171.02 243.594 169.662C244.532 168.598 245.428 167.24 246.366 165.336C246.492 165.084 246.632 164.888 246.828 164.734C246.926 164.65 246.996 164.552 246.996 164.44C246.996 164.342 246.94 164.23 246.814 164.118C246.534 163.852 246.212 163.586 245.862 163.362C245.778 163.306 245.708 163.278 245.638 163.278C245.568 163.278 245.512 163.292 245.456 163.334C245.302 163.432 245.12 163.488 244.756 163.502L242.236 163.558ZM245.75 162.13C246.296 162.578 246.744 163.11 247.164 163.754C247.234 163.852 247.304 163.866 247.402 163.796L247.99 163.362C248.088 163.292 248.088 163.222 248.032 163.138C247.64 162.536 247.136 161.976 246.702 161.64C246.618 161.57 246.562 161.556 246.492 161.612L245.75 162.13ZM247.038 161.206C247.612 161.682 248.06 162.214 248.438 162.816C248.494 162.9 248.564 162.942 248.676 162.858L249.236 162.424C249.348 162.34 249.334 162.256 249.278 162.172C248.97 161.682 248.466 161.122 247.948 160.73C247.864 160.66 247.822 160.646 247.738 160.702L247.038 161.206Z" fill="#7D859C"/>
<path d="M20.2526 0.796039C12.3135 0.796039 6.29383 6.64127 6.29383 14.3622V51.0476C6.29383 58.7249 5.63951 73.2944 1.10291 84.4614C0.448591 86.2063 0.841179 88.4746 2.80413 89.2598C3.24034 89.4343 3.67657 89.5215 4.11278 89.5215C4.59261 89.5215 5.07245 89.4342 5.55228 89.2161C6.42471 88.8235 7.12263 88.1256 7.51522 87.2532C9.82714 81.975 12.488 71.2006 13.1423 56.7184H27.1883V76.217C27.1883 78.0491 26.4904 81.7133 23.8731 82.2804C22.8699 82.4985 21.9538 83.1528 21.4304 84.0689C20.9505 84.854 20.776 85.7264 20.9941 86.5552C21.2122 87.4713 21.823 88.2565 22.6518 88.6927C23.4806 89.1289 24.4402 89.2598 25.3563 89.0417C31.2451 87.7766 34.2986 81.6261 34.2986 76.217V14.3186C34.2986 6.59768 28.2789 0.752441 20.2526 0.752441V0.796039ZM13.3168 14.3622C13.3168 10.5236 16.1086 7.90631 20.2526 7.90631C24.3966 7.90631 27.1883 10.4799 27.1883 14.3622V27.056H13.2732V14.3622H13.3168ZM27.2319 33.8173V49.9571H13.3168V33.8173H27.2319Z" fill="#8D93A5"/>
<path d="M91.0061 74.1673C91.0061 74.1673 90.8752 74.1673 90.788 74.1673C88.8687 74.1673 87.2983 75.6941 87.1674 77.657C86.9929 80.536 84.8991 82.6298 82.2382 82.6298C79.1847 82.6298 77.7889 79.8817 77.7889 77.1772V14.9734C77.7889 6.64176 71.2893 0.62207 62.347 0.62207C53.4047 0.62207 46.9051 6.64176 46.9051 14.9734V49.0416C46.9051 59.2053 44.3314 73.6438 37.0467 83.6767C35.8253 85.3343 36.0871 87.6026 37.6138 88.824C38.3554 89.3911 39.315 89.6528 40.2747 89.5656C41.278 89.4347 42.1941 88.9549 42.7611 88.1697C48.5191 80.6233 54.2771 65.6176 54.2771 49.0416V14.9734C54.2771 10.1751 58.3338 8.03765 62.347 8.03765C66.0112 8.03765 70.2861 9.86972 70.2861 14.9734V77.1772C70.2861 84.331 75.4333 89.7401 82.2382 89.7401C89.0431 89.7401 94.1468 84.7236 94.4958 78.1369C94.5831 76.1303 93.0127 74.3418 91.0061 74.2109V74.1673Z" fill="#8D93A5"/>
<path d="M174.322 37.395C173.057 37.395 172.01 37.9184 171.268 38.8781C163.984 47.8204 155.259 55.7595 145.008 62.6952C137.418 67.8425 130.439 71.6376 124.114 74.0803C123.59 74.2985 123.372 74.1676 123.372 73.6442V16.5004C123.372 14.4066 121.497 12.6182 119.272 12.6182C117.047 12.6182 115.39 14.3194 115.39 16.5004L115.477 73.8622C115.477 78.6169 118.748 82.2811 123.285 82.2811C124.332 82.2811 125.379 82.063 126.557 81.6704C133.623 78.9223 141.213 74.8219 149.327 69.3257C160.101 61.9537 169.48 53.4912 177.375 43.8945C178.03 43.153 178.335 42.3242 178.335 41.3645C178.335 39.1398 176.546 37.3513 174.322 37.3513V37.395Z" fill="#8D93A5"/>
<path d="M252.058 47.3417C251.97 39.2281 251.97 32.5105 251.97 26.9269C251.97 21.3434 247.216 16.7196 241.458 16.8069L196.615 17.3303C194.521 17.3303 192.82 19.206 192.82 21.3434C192.82 23.4809 194.609 25.1385 196.702 25.1385L241.458 24.615C243.246 24.615 244.206 25.3566 244.206 26.9269C244.206 27.4504 244.206 34.517 244.293 47.8651C244.38 60.9078 244.38 67.5382 244.38 67.7563C244.38 70.8098 243.857 71.4642 240.891 71.4642L194.041 72.2057C191.948 72.2057 190.159 73.9942 190.159 76.088C190.159 78.1818 191.948 79.9703 194.041 79.9703L241.021 79.2287C248.481 79.1415 252.188 75.2156 252.188 67.7563C252.188 62.3909 252.188 55.6297 252.101 47.3417H252.058Z" fill="#8D93A5"/>
<g opacity="0.32">
<path d="M24.9018 135.747H20.7428V121.203H4.95033V135.747H0.810547V104.273H4.95033V117.798H20.7428V104.273H24.9018V135.747Z" fill="#7D859C"/>
<path d="M50.5261 124.108L45.1789 109.391L39.87 124.108L38.6242 127.494L35.6727 135.728H31.418L43.3773 104.273H46.9996L58.9973 135.728H54.7617L51.7719 127.494L50.5453 124.108H50.5261Z" fill="#7D859C"/>
<path d="M65.3981 135.747V104.273H74.2526C76.9741 104.273 79.389 104.87 81.478 106.082C83.5671 107.294 85.1962 109.006 86.327 111.238C87.4769 113.469 88.0519 116.028 88.0519 118.933V120.934C88.0519 123.896 87.4769 126.493 86.3461 128.725C85.1962 130.957 83.5671 132.669 81.4589 133.861C79.3507 135.054 76.8783 135.67 74.0609 135.708H65.3789L65.3981 135.747ZM69.5379 107.679V132.342H73.8885C77.07 132.342 79.5615 131.341 81.3247 129.36C83.088 127.378 83.9888 124.531 83.9888 120.857V119.01C83.9888 115.431 83.1455 112.661 81.478 110.68C79.8106 108.698 77.4341 107.698 74.3676 107.659H69.5379V107.679Z" fill="#7D859C"/>
<path d="M152.084 123.011H144.724V135.747H140.565V104.273H150.934C154.461 104.273 157.182 105.081 159.079 106.697C160.977 108.313 161.935 110.66 161.935 113.739C161.935 115.701 161.398 117.413 160.344 118.856C159.29 120.318 157.815 121.395 155.936 122.126L163.296 135.477V135.728H158.869L152.065 122.992L152.084 123.011ZM144.724 119.625H151.068C153.119 119.625 154.748 119.087 155.955 118.029C157.163 116.951 157.776 115.528 157.776 113.739C157.776 111.795 157.201 110.295 156.051 109.256C154.901 108.217 153.234 107.698 151.049 107.679H144.724V119.625Z" fill="#7D859C"/>
<path d="M187.657 121.203H174.068V132.342H189.842V135.728H169.929V104.273H189.631V107.679H174.068V117.798H187.657V121.184V121.203Z" fill="#7D859C"/>
<path d="M220.238 125.762C219.855 129.09 218.628 131.649 216.558 133.457C214.488 135.265 211.767 136.17 208.355 136.17C204.656 136.17 201.686 134.842 199.462 132.168C197.239 129.513 196.108 125.935 196.108 121.472V118.451C196.108 115.527 196.626 112.949 197.661 110.737C198.696 108.525 200.172 106.812 202.088 105.62C204.005 104.427 206.209 103.831 208.719 103.831C212.054 103.831 214.718 104.754 216.731 106.62C218.743 108.486 219.912 111.064 220.238 114.373H216.079C215.715 111.853 214.948 110.044 213.741 108.909C212.533 107.774 210.866 107.216 208.719 107.216C206.075 107.216 204.005 108.198 202.51 110.16C201.015 112.122 200.267 114.912 200.267 118.528V121.568C200.267 124.992 200.976 127.705 202.395 129.725C203.813 131.745 205.806 132.745 208.355 132.745C210.655 132.745 212.418 132.226 213.645 131.187C214.872 130.148 215.696 128.321 216.079 125.723H220.238V125.762Z" fill="#7D859C"/>
<path d="M252.187 121.029C252.187 124.107 251.669 126.801 250.634 129.109C249.599 131.418 248.143 133.169 246.245 134.361C244.348 135.554 242.144 136.17 239.614 136.17C237.084 136.17 234.957 135.554 233.04 134.342C231.124 133.13 229.648 131.399 228.594 129.129C227.54 126.878 227.003 124.261 226.965 121.299V119.029C226.965 116.008 227.482 113.334 228.536 111.006C229.591 108.679 231.066 106.909 232.983 105.677C234.899 104.446 237.084 103.831 239.557 103.831C242.029 103.831 244.291 104.446 246.188 105.658C248.105 106.87 249.58 108.64 250.615 110.949C251.65 113.257 252.168 115.951 252.168 119.009V120.991L252.187 121.029ZM248.066 119.009C248.066 115.277 247.319 112.411 245.824 110.429C244.329 108.448 242.24 107.447 239.557 107.447C236.873 107.447 234.899 108.448 233.385 110.429C231.871 112.411 231.105 115.2 231.066 118.74V121.049C231.066 124.665 231.814 127.513 233.328 129.571C234.842 131.629 236.931 132.668 239.576 132.668C242.221 132.668 244.31 131.687 245.766 129.744C247.223 127.801 247.99 124.992 248.028 121.356V119.029L248.066 119.009Z" fill="#7D859C"/>
<path d="M112.585 124.108L107.237 109.391L101.929 124.108L100.683 127.494L97.7313 135.728H93.4766L105.436 104.273H109.058L121.056 135.728H116.82L113.83 127.494L112.604 124.108H112.585Z" fill="#7D859C"/>
</g>
</svg>
