<svg width="202" height="144" viewBox="0 0 202 144" fill="none" xmlns="http://www.w3.org/2000/svg">
<path d="M2.92318 135.239C2.93659 134.796 2.93659 134.38 2.93659 133.978V133.616H4.2912V135.239H2.92318ZM4.2912 130.585V132.141H2.93659V130.585H4.2912ZM11.6008 139.464C11.5471 139.464 11.5069 139.437 11.48 139.383C11.4398 139.329 11.4264 139.142 11.4264 138.806V129.109H6.79925V134.582C6.79925 136.392 6.70537 138.645 5.68605 140.188C5.76652 139.96 5.79335 139.678 5.79335 139.316V129.109H1.46127V133.978C1.46127 135.95 1.40762 138.619 0.576075 140.443C0.9382 140.577 1.59539 140.966 1.89045 141.194C2.44035 139.973 2.70859 138.323 2.84271 136.741H4.2912V139.289C4.2912 139.464 4.23756 139.531 4.0632 139.531C3.91567 139.531 3.41942 139.531 2.93659 139.504C3.13777 139.906 3.33895 140.604 3.37919 141.019C4.23756 141.019 4.82768 140.979 5.23004 140.724C5.4044 140.617 5.53852 140.496 5.61899 140.322C5.99453 140.51 6.66513 140.992 6.93337 141.261C8.20751 139.531 8.38187 136.66 8.38187 134.582V130.638H9.83036V138.833C9.83036 140 9.93766 140.308 10.1925 140.577C10.4205 140.832 10.8094 140.939 11.1179 140.939H11.8824C12.1641 140.939 12.4994 140.872 12.6871 140.711C12.9151 140.536 13.0627 140.282 13.1431 139.893C13.2236 139.504 13.2907 138.605 13.3041 137.894C12.8749 137.747 12.3921 137.479 12.0568 137.197C12.0568 137.988 12.0433 138.645 12.0165 138.914C12.0031 139.209 11.9763 139.329 11.9361 139.383C11.8958 139.45 11.8422 139.464 11.7751 139.464H11.6008ZM29.6073 129.995H28.2259V137.747H29.6073V129.995ZM23.3171 129.995C22.8611 129.592 21.9223 129.056 21.198 128.747L20.2994 129.928C21.0371 130.263 21.9491 130.853 22.3783 131.282L23.3171 129.995ZM22.8074 133.482C22.3514 133.066 21.3992 132.597 20.6615 132.315L19.7897 133.482C20.5274 133.817 21.4394 134.354 21.882 134.769L22.8074 133.482ZM21.7479 135.896C21.2248 137.465 20.514 139.168 20.0177 140.201L21.4528 141.019C22.0027 139.705 22.5929 138.163 23.0354 136.727L21.7479 135.896ZM23.8804 138.015C23.5183 138.887 22.9013 139.785 22.271 140.389C22.6197 140.577 23.2232 140.966 23.5183 141.207C24.1621 140.536 24.8863 139.437 25.3289 138.417L23.8804 138.015ZM25.7581 138.578C26.2543 139.249 26.8579 140.148 27.1127 140.711L28.3734 139.96C28.0918 139.396 27.4614 138.525 26.9652 137.908L25.7581 138.578ZM26.1604 131.671H24.8461V130.545H26.1604V131.671ZM26.1604 134.085H24.8461V132.945H26.1604V134.085ZM26.1604 136.526H24.8461V135.373H26.1604V136.526ZM27.5553 129.163H23.5049V137.908H27.5553V129.163ZM30.4389 128.653V139.37C30.4389 139.571 30.3718 139.638 30.1438 139.651C29.9292 139.651 29.2854 139.651 28.6014 139.624C28.8026 140.067 29.0038 140.738 29.0574 141.153C30.1036 141.153 30.801 141.1 31.2704 140.845C31.7398 140.617 31.8874 140.188 31.8874 139.37V128.653H30.4389ZM41.0823 131.51H49.3307V133.348H50.9803V129.995H46.0715V128.653H44.3816V129.995H39.5131V133.348H41.0823V131.51ZM46.0581 137.358H49.7464V135.856H46.0581V134.179H48.9283V132.664H41.5517V134.179H44.4085V138.914C43.6171 138.525 42.9868 137.881 42.5844 136.808C42.7051 136.271 42.799 135.708 42.8795 135.105L41.2164 134.944C40.975 137.237 40.3178 139.088 38.8693 140.161C39.2448 140.402 39.9154 140.966 40.1837 141.247C40.9482 140.59 41.5383 139.732 41.9675 138.712C43.2014 140.617 45.0388 141.019 47.5066 141.019H50.8596C50.9401 140.55 51.1949 139.785 51.4229 139.396C50.5243 139.437 48.3113 139.437 47.5871 139.437C47.0506 139.437 46.541 139.41 46.0581 139.356V137.358ZM60.9665 132.409C60.9665 131.671 61.3823 131.202 61.9724 131.202C62.4821 131.202 62.7101 131.564 62.7101 132.06C62.7101 132.784 62.1066 133.267 61.3287 133.737C61.1007 133.267 60.9665 132.825 60.9665 132.409ZM61.3421 140.188C62.5626 140.188 63.5685 139.785 64.3866 139.142C65.2181 139.665 66.0765 140.013 66.8678 140.188L67.3507 138.578C66.8276 138.484 66.224 138.23 65.5803 137.867C66.3582 136.835 66.8946 135.695 67.2568 134.461H65.473C65.2047 135.44 64.7756 136.285 64.2525 136.982C63.4612 136.379 62.6967 135.655 62.1066 134.917C63.1661 134.179 64.2391 133.361 64.2391 132.047C64.2391 130.746 63.3539 129.887 61.9322 129.887C60.3496 129.887 59.3303 131.027 59.3303 132.409C59.3303 133.066 59.5583 133.804 59.9606 134.555C58.9681 135.185 58.0964 135.99 58.0964 137.371C58.0964 138.914 59.2632 140.188 61.3421 140.188ZM59.9741 137.251C59.9741 136.714 60.3094 136.271 60.7922 135.856C61.4225 136.687 62.187 137.479 63.032 138.176C62.5626 138.484 62.0797 138.672 61.5835 138.672C60.6312 138.672 59.9741 138.095 59.9741 137.251ZM75.9723 139.464L77.2464 140.563C77.5549 140.362 77.85 140.268 78.0377 140.201C81.203 139.168 83.9793 137.572 85.8167 135.373L84.8645 133.857C83.1477 135.95 80.1568 137.666 77.9707 138.297V131.322C77.9707 130.799 78.0243 130.317 78.1048 129.793H75.9991C76.0796 130.182 76.1466 130.813 76.1466 131.322V138.592C76.1466 138.9 76.1332 139.128 75.9723 139.464ZM94.6227 130.477V132.342C94.9982 132.315 95.7224 132.288 96.2857 132.288H102.308V137.841H96.1248C95.5213 137.841 94.9177 137.8 94.4483 137.76V139.678C94.8909 139.638 95.6554 139.598 96.1784 139.598H102.294C102.294 139.852 102.294 140.08 102.281 140.295H104.226C104.199 139.893 104.172 139.182 104.172 138.712V131.765C104.172 131.376 104.199 130.84 104.212 130.531C103.984 130.545 103.421 130.558 103.032 130.558H96.2723C95.8163 130.558 95.1189 130.531 94.6227 130.477ZM112.911 133.79V135.896C113.407 135.856 114.306 135.829 115.07 135.829H122.272C122.836 135.829 123.52 135.883 123.842 135.896V133.79C123.493 133.817 122.903 133.871 122.272 133.871H115.07C114.373 133.871 113.394 133.83 112.911 133.79ZM133.358 129.874V131.604C133.761 131.577 134.338 131.564 134.794 131.564H139.179C139.649 131.564 140.172 131.577 140.628 131.604V129.874C140.172 129.941 139.635 129.981 139.179 129.981H134.794C134.338 129.981 133.788 129.941 133.358 129.874ZM131.803 133.307V135.064C132.178 135.038 132.701 135.011 133.09 135.011H136.779C136.725 136.137 136.497 137.143 135.947 137.975C135.411 138.766 134.472 139.531 133.519 139.893L135.089 141.033C136.282 140.429 137.315 139.396 137.784 138.458C138.267 137.519 138.562 136.392 138.643 135.011H141.875C142.251 135.011 142.76 135.024 143.096 135.051V133.307C142.747 133.361 142.157 133.388 141.875 133.388H133.09C132.674 133.388 132.205 133.361 131.803 133.307ZM141.432 128.949L140.36 129.391C140.722 129.901 141.137 130.705 141.419 131.255L142.492 130.786C142.237 130.29 141.768 129.445 141.432 128.949ZM143.015 128.345L141.956 128.788C142.318 129.297 142.747 130.075 143.029 130.638L144.101 130.169C143.86 129.7 143.364 128.855 143.015 128.345ZM150.489 136.178L151.28 137.76C152.447 137.398 153.949 136.781 155.13 136.191V139.732C155.13 140.201 155.089 140.912 155.063 141.18H157.048C156.967 140.912 156.954 140.201 156.954 139.732V135.131C158.147 134.34 159.328 133.388 159.958 132.69L158.63 131.389C157.946 132.261 156.592 133.468 155.291 134.26C154.231 134.903 152.233 135.802 150.489 136.178ZM171.446 129.807L170.186 131.148C171.165 131.832 172.841 133.294 173.539 134.045L174.907 132.65C174.129 131.832 172.385 130.437 171.446 129.807ZM169.77 138.739L170.896 140.51C172.788 140.188 174.518 139.437 175.872 138.619C178.032 137.318 179.815 135.467 180.835 133.656L179.789 131.765C178.944 133.576 177.2 135.628 174.907 136.982C173.606 137.76 171.862 138.444 169.77 138.739ZM197.822 129.016L196.762 129.445C197.098 129.928 197.473 130.638 197.742 131.175L197.648 131.121C197.353 131.215 196.897 131.282 196.481 131.282H193.798C193.812 131.255 193.825 131.242 193.839 131.215C193.986 130.92 194.335 130.317 194.657 129.847L192.685 129.203C192.564 129.659 192.283 130.276 192.082 130.598C191.424 131.752 190.244 133.495 187.897 134.917L189.399 136.043C190.727 135.145 191.894 133.965 192.792 132.798H196.561C196.347 133.79 195.569 135.413 194.657 136.446C193.476 137.787 191.988 138.954 189.252 139.772L190.834 141.194C193.356 140.188 194.965 138.967 196.239 137.398C197.46 135.909 198.224 134.126 198.586 132.932C198.694 132.597 198.882 132.221 199.029 131.966L197.889 131.269L198.882 130.853C198.64 130.357 198.157 129.498 197.822 129.016ZM199.405 128.412L198.345 128.841C198.721 129.351 199.15 130.129 199.431 130.692L200.491 130.236C200.25 129.767 199.753 128.908 199.405 128.412Z" fill="#7D859C"/>
<path d="M16.2544 0.140271C9.91688 0.140271 5.11152 4.80635 5.11152 10.9698V40.2546C5.11152 46.3832 4.58919 58.0136 0.967758 66.9279C0.445436 68.3208 0.758827 70.1315 2.32579 70.7583C2.67401 70.8976 3.02223 70.9672 3.37045 70.9672C3.75349 70.9672 4.13653 70.8975 4.51956 70.7234C5.21599 70.41 5.77313 69.8529 6.08652 69.1565C7.93206 64.9431 10.0561 56.3422 10.5785 44.7814H21.791V60.3467C21.791 61.8092 21.2339 64.7342 19.1446 65.1868C18.3437 65.3609 17.6124 65.8833 17.1946 66.6145C16.8115 67.2413 16.6722 67.9377 16.8463 68.5993C17.0205 69.3306 17.508 69.9574 18.1696 70.3056C18.8312 70.6538 19.5972 70.7583 20.3285 70.5842C25.0294 69.5744 27.4669 64.6645 27.4669 60.3467V10.935C27.4669 4.77155 22.6615 0.105469 16.2544 0.105469V0.140271ZM10.7178 10.9698C10.7178 7.90546 12.9463 5.81619 16.2544 5.81619C19.5624 5.81619 21.791 7.87064 21.791 10.9698V21.1028H10.6829V10.9698H10.7178ZM21.8258 26.5002V39.3841H10.7178V26.5002H21.8258Z" fill="#8D93A5"/>
<path d="M72.736 58.709C72.736 58.709 72.6316 58.709 72.5619 58.709C71.0298 58.709 69.7762 59.9278 69.6717 61.4948C69.5324 63.793 67.861 65.4644 65.7369 65.4644C63.2994 65.4644 62.1851 63.2706 62.1851 61.1117V11.4562C62.1851 4.80534 56.9967 0 49.8583 0C42.7199 0 37.5315 4.80534 37.5315 11.4562V38.6519C37.5315 46.7653 35.477 58.2911 29.6618 66.3001C28.6868 67.6233 28.8958 69.434 30.1145 70.409C30.7065 70.8617 31.4726 71.0706 32.2386 71.001C33.0395 70.8965 33.7708 70.5135 34.2235 69.8867C38.8199 63.8626 43.4163 51.884 43.4163 38.6519V11.4562C43.4163 7.62588 46.6547 5.91964 49.8583 5.91964C52.7833 5.91964 56.1958 7.38213 56.1958 11.4562V61.1117C56.1958 66.8224 60.3047 71.1403 65.7369 71.1403C71.169 71.1403 75.2432 67.1358 75.5218 61.8778C75.5914 60.276 74.3378 58.8483 72.736 58.7438V58.709Z" fill="#8D93A5"/>
<path d="M139.243 29.3568C138.233 29.3568 137.397 29.7746 136.806 30.5407C130.99 37.6791 124.026 44.0166 115.843 49.5532C109.784 53.6621 104.213 56.6916 99.1635 58.6416C98.7457 58.8157 98.5716 58.7113 98.5716 58.2934V12.6772C98.5716 11.0058 97.0742 9.57812 95.2983 9.57812C93.5224 9.57812 92.1992 10.9362 92.1992 12.6772L92.2689 58.4675C92.2689 62.263 94.8805 65.188 98.5019 65.188C99.3376 65.188 100.173 65.0139 101.114 64.7005C106.755 62.5068 112.814 59.2336 119.29 54.8461C127.891 48.9612 135.378 42.2059 141.681 34.5451C142.203 33.9532 142.447 33.2915 142.447 32.5255C142.447 30.7496 141.019 29.3219 139.243 29.3219V29.3568Z" fill="#8D93A5"/>
<path d="M201.296 37.294C201.227 30.8172 201.227 25.4546 201.227 20.9975C201.227 16.5403 197.431 12.8493 192.835 12.9189L157.038 13.3368C155.367 13.3368 154.009 14.8341 154.009 16.5403C154.009 18.2466 155.437 19.5698 157.108 19.5698L192.835 19.152C194.262 19.152 195.029 19.7439 195.029 20.9975C195.029 21.4154 195.029 27.0564 195.098 37.7118C195.168 48.1234 195.168 53.4163 195.168 53.5904C195.168 56.0279 194.75 56.5503 192.382 56.5503L154.984 57.1422C153.312 57.1422 151.885 58.5699 151.885 60.2413C151.885 61.9128 153.312 63.3404 154.984 63.3404L192.487 62.7485C198.441 62.6788 201.401 59.5449 201.401 53.5904C201.401 49.3074 201.401 43.9101 201.331 37.294H201.296Z" fill="#8D93A5"/>
<g opacity="0.32">
<path d="M19.9657 107.866H16.6457V96.2565H4.03904V107.866H0.734375V82.7422H4.03904V93.5383H16.6457V82.7422H19.9657V107.866Z" fill="#7D859C"/>
<path d="M40.4214 98.5754L36.1529 86.8272L31.915 98.5754L30.9205 101.278L28.5644 107.851H25.168L34.7148 82.7422H37.6064L47.1838 107.851H43.8026L41.4159 101.278L40.4367 98.5754H40.4214Z" fill="#7D859C"/>
<path d="M52.2946 107.866V82.7422H59.3629C61.5354 82.7422 63.4631 83.2183 65.1308 84.1858C66.7984 85.1533 68.0989 86.52 69.0015 88.3015C69.9195 90.0829 70.3785 92.1254 70.3785 94.4443V96.0415C70.3785 98.4065 69.9195 100.48 69.0168 102.261C68.0989 104.043 66.7984 105.409 65.1155 106.361C63.4325 107.314 61.4589 107.805 59.2099 107.836H52.2793L52.2946 107.866ZM55.5993 85.4604V105.148H59.0722C61.6119 105.148 63.6008 104.35 65.0084 102.768C66.4159 101.186 67.135 98.9133 67.135 95.98V94.5058C67.135 91.6493 66.4618 89.4379 65.1308 87.8561C63.7997 86.2743 61.9026 85.4758 59.4547 85.445H55.5993V85.4604Z" fill="#7D859C"/>
<path d="M121.492 97.7H115.617V107.866H112.297V82.7422H120.574C123.389 82.7422 125.561 83.3872 127.076 84.6772C128.591 85.9672 129.356 87.8408 129.356 90.2979C129.356 91.8643 128.927 93.2311 128.086 94.3829C127.244 95.55 126.066 96.41 124.567 96.9936L130.442 107.651V107.851H126.908L121.476 97.6847L121.492 97.7ZM115.617 94.9972H120.681C122.318 94.9972 123.618 94.5672 124.582 93.7225C125.546 92.8625 126.036 91.7261 126.036 90.2979C126.036 88.7468 125.577 87.549 124.659 86.7197C123.741 85.8904 122.41 85.4758 120.666 85.4604H115.617V94.9972Z" fill="#7D859C"/>
<path d="M149.886 96.2565H139.039V105.148H151.63V107.851H135.734V82.7422H151.462V85.4604H139.039V93.5383H149.886V96.2411V96.2565Z" fill="#7D859C"/>
<path d="M175.897 99.8939C175.591 102.551 174.612 104.593 172.959 106.037C171.307 107.48 169.134 108.202 166.411 108.202C163.458 108.202 161.087 107.142 159.312 105.008C157.537 102.888 156.635 100.032 156.635 96.4692V94.0581C156.635 91.7239 157.048 89.666 157.874 87.8999C158.7 86.1339 159.878 84.7671 161.408 83.8149C162.938 82.8628 164.698 82.3867 166.702 82.3867C169.364 82.3867 171.49 83.1239 173.097 84.6135C174.703 86.1031 175.637 88.161 175.897 90.8024H172.577C172.286 88.7906 171.674 87.3471 170.71 86.441C169.746 85.5349 168.415 85.0896 166.702 85.0896C164.59 85.0896 162.938 85.8728 161.745 87.4392C160.551 89.0056 159.955 91.2324 159.955 94.1196V96.546C159.955 99.2796 160.521 101.445 161.653 103.057C162.785 104.67 164.376 105.468 166.411 105.468C168.247 105.468 169.655 105.054 170.634 104.225C171.613 103.395 172.271 101.936 172.577 99.8631H175.897V99.8939Z" fill="#7D859C"/>
<path d="M201.4 96.116C201.4 98.5731 200.987 100.723 200.16 102.566C199.334 104.409 198.171 105.806 196.657 106.758C195.142 107.711 193.383 108.202 191.363 108.202C189.344 108.202 187.645 107.711 186.116 106.743C184.586 105.776 183.408 104.393 182.566 102.581C181.725 100.785 181.296 98.696 181.266 96.331V94.5189C181.266 92.1078 181.679 89.9731 182.52 88.1149C183.362 86.2567 184.54 84.8439 186.07 83.861C187.6 82.8781 189.344 82.3867 191.317 82.3867C193.291 82.3867 195.096 82.8781 196.611 83.8456C198.141 84.8131 199.319 86.226 200.145 88.0689C200.971 89.9117 201.384 92.0617 201.384 94.5035V96.0853L201.4 96.116ZM198.11 94.5035C198.11 91.5242 197.514 89.236 196.32 87.6542C195.127 86.0724 193.459 85.2739 191.317 85.2739C189.175 85.2739 187.6 86.0724 186.391 87.6542C185.182 89.236 184.57 91.4628 184.54 94.2885V96.1314C184.54 99.0185 185.136 101.291 186.345 102.935C187.554 104.578 189.221 105.407 191.333 105.407C193.444 105.407 195.112 104.624 196.274 103.073C197.437 101.522 198.049 99.2796 198.08 96.3771V94.5189L198.11 94.5035Z" fill="#7D859C"/>
<path d="M89.9605 98.5754L85.692 86.8272L81.4541 98.5754L80.4596 101.278L78.1035 107.851H74.707L84.2538 82.7422H87.1454L96.7228 107.851H93.3417L90.955 101.278L89.9758 98.5754H89.9605Z" fill="#7D859C"/>
</g>
</svg>
