<svg width="20" height="17" viewBox="0 0 20 17" fill="none" xmlns="http://www.w3.org/2000/svg">
<path d="M9.152 1.8568C9.54367 1.23013 10.4563 1.23013 10.848 1.8568L19.0438 14.97C19.46 15.6361 18.9812 16.5 18.1958 16.5H1.80425C1.01881 16.5 0.539969 15.636 0.956249 14.97L9.152 1.8568Z" fill="#FF9BA0"/>
<path d="M10 11.7306C9.81106 11.7306 9.64855 11.6732 9.5125 11.5584C9.37644 11.4365 9.30086 11.2859 9.28574 11.1066C9.25551 10.7265 9.22149 10.3141 9.1837 9.86938C9.15347 9.41754 9.12323 8.97645 9.093 8.54611C9.06276 8.10861 9.03631 7.71414 9.01363 7.3627C8.99852 7.00409 8.99096 6.72796 8.99096 6.53431V5.7382C8.99096 5.48717 9.08544 5.27201 9.2744 5.0927C9.46337 4.90623 9.70524 4.81299 10 4.81299C10.2948 4.81299 10.5367 4.90623 10.7257 5.0927C10.9146 5.27201 11.0091 5.48717 11.0091 5.7382V6.53431C11.0091 6.72796 10.9978 7.00409 10.9751 7.3627C10.96 7.71414 10.9373 8.10861 10.9071 8.54611C10.8768 8.97645 10.8428 9.41754 10.805 9.86938C10.7748 10.3141 10.7445 10.7265 10.7143 11.1066C10.6992 11.2859 10.6236 11.4365 10.4876 11.5584C10.3515 11.6732 10.189 11.7306 10 11.7306ZM10 14.517C9.69768 14.517 9.43691 14.413 9.21771 14.205C8.99852 13.997 8.88892 13.7495 8.88892 13.4627C8.88892 13.1686 8.99852 12.9212 9.21771 12.7203C9.43691 12.5195 9.69768 12.4191 10 12.4191C10.3099 12.4191 10.5707 12.5195 10.7823 12.7203C11.0015 12.9212 11.1111 13.1686 11.1111 13.4627C11.1111 13.7495 11.0015 13.997 10.7823 14.205C10.5707 14.413 10.3099 14.517 10 14.517Z" fill="white"/>
</svg>
