<svg width="18" height="15" viewBox="0 0 18 15" fill="none" xmlns="http://www.w3.org/2000/svg">
<path d="M8.152 1.3568C8.54367 0.730131 9.45633 0.730129 9.848 1.3568L17.0437 12.87C17.46 13.536 16.9812 14.4 16.1958 14.4H1.80425C1.01881 14.4 0.539969 13.536 0.956249 12.87L8.152 1.3568Z" fill="#DD2265"/>
<path d="M9 10.1077C8.82993 10.1077 8.68367 10.056 8.56122 9.95274C8.43878 9.843 8.37075 9.70745 8.35714 9.54607C8.32993 9.20396 8.29932 8.8328 8.26531 8.43259C8.2381 8.02593 8.21088 7.62895 8.18367 7.24165C8.15646 6.8479 8.13265 6.49287 8.11224 6.17658C8.09864 5.85383 8.09184 5.60531 8.09184 5.43103V4.71453C8.09184 4.4886 8.17687 4.29495 8.34694 4.13358C8.51701 3.96575 8.73469 3.88184 9 3.88184C9.26531 3.88184 9.48299 3.96575 9.65306 4.13358C9.82313 4.29495 9.90816 4.4886 9.90816 4.71453V5.43103C9.90816 5.60531 9.89796 5.85383 9.87755 6.17658C9.86395 6.49287 9.84354 6.8479 9.81633 7.24165C9.78912 7.62895 9.7585 8.02593 9.72449 8.43259C9.69728 8.8328 9.67007 9.20396 9.64286 9.54607C9.62925 9.70745 9.56122 9.843 9.43878 9.95274C9.31633 10.056 9.17007 10.1077 9 10.1077ZM9 12.6154C8.72789 12.6154 8.4932 12.5218 8.29592 12.3346C8.09864 12.1474 8 11.9247 8 11.6665C8 11.4019 8.09864 11.1792 8.29592 10.9984C8.4932 10.8177 8.72789 10.7273 9 10.7273C9.27891 10.7273 9.51361 10.8177 9.70408 10.9984C9.90136 11.1792 10 11.4019 10 11.6665C10 11.9247 9.90136 12.1474 9.70408 12.3346C9.51361 12.5218 9.27891 12.6154 9 12.6154Z" fill="white"/>
</svg>
