<svg width="57" height="49" viewBox="0 0 57 49" fill="none" xmlns="http://www.w3.org/2000/svg">
<path d="M25.061 1.96235C26.5873 -0.654117 30.4028 -0.654117 31.929 1.96235L55.9621 43.1203C57.4883 45.7368 55.5855 49 52.5331 49H4.46694C1.41449 49 -0.488336 45.7368 1.03789 43.1203L25.061 1.96235Z" fill="#FFEB33"/>
<path d="M28.4903 33.3808C27.9848 33.3808 27.5488 33.2223 27.1821 32.8952C26.8154 32.5484 26.6172 32.1222 26.5775 31.6168C26.4982 30.5464 26.409 29.377 26.3 28.1283C26.2207 26.8498 26.1415 25.611 26.0622 24.392C25.9829 23.1631 25.9135 22.0432 25.854 21.0521C25.8144 20.0413 25.7946 19.2583 25.7946 18.7132V16.4636C25.7946 15.7599 26.0523 15.1454 26.5577 14.64C27.0631 14.1148 27.7073 13.8472 28.5002 13.8472C29.293 13.8472 29.9372 14.1148 30.4426 14.64C30.9481 15.1454 31.2057 15.75 31.2057 16.4636V18.7132C31.2057 19.2583 31.176 20.0413 31.1165 21.0521C31.0769 22.0432 31.0174 23.1532 30.9382 24.392C30.8589 25.6011 30.7697 26.8498 30.6607 28.1283C30.5814 29.3869 30.5021 30.5464 30.4228 31.6168C30.3832 32.1222 30.185 32.5484 29.8183 32.8952C29.4516 33.2223 29.0155 33.3808 28.5101 33.3808H28.4903ZM28.4903 41.2399C27.6776 41.2399 26.9838 40.9426 26.3991 40.3579C25.8144 39.7731 25.5171 39.0695 25.5171 38.2667C25.5171 37.464 25.8144 36.7405 26.3991 36.1756C26.9838 35.6107 27.6875 35.3233 28.4903 35.3233C29.293 35.3233 30.0165 35.6107 30.5814 36.1756C31.1661 36.7405 31.4634 37.4442 31.4634 38.2667C31.4634 39.0893 31.1661 39.7731 30.5814 40.3579C30.0165 40.9426 29.3128 41.2399 28.4903 41.2399Z" fill="#424242"/>
</svg>
