<svg width="16" height="18" viewBox="0 0 16 18" fill="none" xmlns="http://www.w3.org/2000/svg">
<path d="M5.64706 14.4C5.12941 14.4 4.68643 14.2239 4.31812 13.8717C3.94918 13.5189 3.76471 13.095 3.76471 12.6V1.8C3.76471 1.305 3.94918 0.8811 4.31812 0.5283C4.68643 0.1761 5.12941 0 5.64706 0H14.1176C14.6353 0 15.0786 0.1761 15.4475 0.5283C15.8158 0.8811 16 1.305 16 1.8V12.6C16 13.095 15.8158 13.5189 15.4475 13.8717C15.0786 14.2239 14.6353 14.4 14.1176 14.4H5.64706ZM5.64706 12.6H14.1176V1.8H5.64706V12.6ZM1.88235 18C1.36471 18 0.921412 17.8239 0.552471 17.4717C0.184157 17.1189 0 16.695 0 16.2V4.5C0 4.245 0.090353 4.0311 0.271059 3.8583C0.451137 3.6861 0.67451 3.6 0.941176 3.6C1.20784 3.6 1.43153 3.6861 1.61224 3.8583C1.79231 4.0311 1.88235 4.245 1.88235 4.5V16.2H11.2941C11.5608 16.2 11.7845 16.2864 11.9652 16.4592C12.1453 16.6314 12.2353 16.845 12.2353 17.1C12.2353 17.355 12.1453 17.5686 11.9652 17.7408C11.7845 17.9136 11.5608 18 11.2941 18H1.88235Z" fill="#BDBDBD"/>
</svg>
