<svg width="24" height="25" viewBox="0 0 24 25" fill="none" xmlns="http://www.w3.org/2000/svg">
<path d="M12 1.75C6.20156 1.75 1.5 6.45156 1.5 12.25C1.5 18.0484 6.20156 22.75 12 22.75C17.7984 22.75 22.5 18.0484 22.5 12.25C22.5 6.45156 17.7984 1.75 12 1.75ZM12 20.9688C7.18594 20.9688 3.28125 17.0641 3.28125 12.25C3.28125 7.43594 7.18594 3.53125 12 3.53125C16.8141 3.53125 20.7188 7.43594 20.7188 12.25C20.7188 17.0641 16.8141 20.9688 12 20.9688Z" fill="#424242"/>
<path d="M10.875 8.125C10.875 8.42337 10.9935 8.70952 11.2045 8.9205C11.4155 9.13147 11.7016 9.25 12 9.25C12.2984 9.25 12.5845 9.13147 12.7955 8.9205C13.0065 8.70952 13.125 8.42337 13.125 8.125C13.125 7.82663 13.0065 7.54048 12.7955 7.3295C12.5845 7.11853 12.2984 7 12 7C11.7016 7 11.4155 7.11853 11.2045 7.3295C10.9935 7.54048 10.875 7.82663 10.875 8.125ZM12.5625 10.75H11.4375C11.3344 10.75 11.25 10.8344 11.25 10.9375V17.3125C11.25 17.4156 11.3344 17.5 11.4375 17.5H12.5625C12.6656 17.5 12.75 17.4156 12.75 17.3125V10.9375C12.75 10.8344 12.6656 10.75 12.5625 10.75Z" fill="#424242"/>
</svg>
