<svg width="40" height="45" viewBox="0 0 40 45" fill="none" xmlns="http://www.w3.org/2000/svg">
<path d="M22.5 27.5C22.5 27.9945 22.3534 28.4778 22.0787 28.8889C21.804 29.3 21.4135 29.6205 20.9567 29.8097C20.4999 29.9989 19.9972 30.0484 19.5123 29.952C19.0273 29.8555 18.5819 29.6174 18.2322 29.2678C17.8826 28.9181 17.6445 28.4727 17.548 27.9877C17.4516 27.5028 17.5011 27.0001 17.6903 26.5433C17.8795 26.0865 18.2 25.696 18.6111 25.4213C19.0222 25.1466 19.5055 25 20 25C20.663 25 21.2989 25.2634 21.7678 25.7322C22.2366 26.2011 22.5 26.837 22.5 27.5ZM40 18.3333V41.6667C40 42.5507 39.6488 43.3986 39.0237 44.0237C38.3986 44.6488 37.5507 45 36.6667 45H3.33333C2.44928 45 1.60143 44.6488 0.976311 44.0237C0.351189 43.3986 0 42.5507 0 41.6667V18.3333C0 17.4493 0.351189 16.6014 0.976311 15.9763C1.60143 15.3512 2.44928 15 3.33333 15H10.8333V9.16667C10.8333 6.73552 11.7991 4.40394 13.5182 2.68485C15.2373 0.965771 17.5688 0 20 0C22.4312 0 24.7627 0.965771 26.4818 2.68485C28.2009 4.40394 29.1667 6.73552 29.1667 9.16667V15H36.6667C37.5507 15 38.3986 15.3512 39.0237 15.9763C39.6488 16.6014 40 17.4493 40 18.3333ZM25.8333 27.5C25.8346 26.4179 25.5348 25.3567 24.9676 24.4352C24.4003 23.5137 23.5878 22.7681 22.6211 22.2819C21.6544 21.7956 20.5714 21.5879 19.4934 21.6819C18.4153 21.7759 17.3847 22.1679 16.5167 22.814C15.6486 23.4602 14.9775 24.3351 14.5782 25.3409C14.179 26.3467 14.0674 27.4437 14.2559 28.5093C14.4444 29.5749 14.9256 30.5671 15.6456 31.3748C16.3657 32.1826 17.2963 32.7742 18.3333 33.0833V36.6667C18.3333 37.1087 18.5089 37.5326 18.8215 37.8452C19.134 38.1577 19.558 38.3333 20 38.3333C20.442 38.3333 20.866 38.1577 21.1785 37.8452C21.4911 37.5326 21.6667 37.1087 21.6667 36.6667V33.0833C22.8711 32.7277 23.9281 31.9916 24.6792 30.9851C25.4303 29.9786 25.8352 28.7559 25.8333 27.5ZM25.8333 9.16667C25.8333 7.61957 25.2188 6.13584 24.1248 5.04188C23.0308 3.94792 21.5471 3.33333 20 3.33333C18.4529 3.33333 16.9692 3.94792 15.8752 5.04188C14.7812 6.13584 14.1667 7.61957 14.1667 9.16667V15H25.8333V9.16667Z" fill="white"/>
</svg>
