<svg width="8" height="13" viewBox="0 0 8 13" fill="none" xmlns="http://www.w3.org/2000/svg">
<path d="M6.78488 1.11429C6.95201 1.28146 7.0459 1.50817 7.0459 1.74456C7.0459 1.98095 6.95201 2.20766 6.78488 2.37484L2.37205 6.78767L6.78488 11.2005C6.94728 11.3686 7.03713 11.5938 7.0351 11.8276C7.03307 12.0613 6.93931 12.2849 6.77403 12.4502C6.60874 12.6155 6.38514 12.7092 6.1514 12.7113C5.91766 12.7133 5.69247 12.6234 5.52433 12.4611L0.481224 7.41795C0.314097 7.25077 0.22021 7.02406 0.22021 6.78767C0.22021 6.55128 0.314097 6.32457 0.481224 6.15739L5.52433 1.11429C5.69151 0.947158 5.91822 0.853271 6.15461 0.853271C6.391 0.853271 6.61771 0.947158 6.78488 1.11429V1.11429Z" fill="#E0E0E0"/>
</svg>
