<svg width="24" height="24" viewBox="0 0 24 24" fill="none" xmlns="http://www.w3.org/2000/svg">
<path d="M16.0608 2.4548C16.342 2.7361 16.5 3.11756 16.5 3.5153C16.5 3.91305 16.342 4.29451 16.0608 4.5758L8.63582 12.0008L16.0608 19.4258C16.3341 19.7087 16.4852 20.0876 16.4818 20.4809C16.4784 20.8742 16.3207 21.2504 16.0425 21.5285C15.7644 21.8066 15.3882 21.9644 14.9949 21.9678C14.6016 21.9712 14.2227 21.82 13.9398 21.5468L5.45432 13.0613C5.17311 12.78 5.01514 12.3986 5.01514 12.0008C5.01514 11.6031 5.17311 11.2216 5.45432 10.9403L13.9398 2.4548C14.2211 2.1736 14.6026 2.01562 15.0003 2.01562C15.3981 2.01562 15.7795 2.1736 16.0608 2.4548Z" fill="#717171"/>
</svg>
