<svg width="112" height="87" viewBox="0 0 112 87" fill="none" xmlns="http://www.w3.org/2000/svg">
<path d="M52.158 85.5815C51.5374 85.0867 51.4981 84.7332 51.4981 83.6963C51.4981 83.5549 51.4981 75.3385 51.4981 75.3385C51.4981 72.5028 49.4637 70.5547 45.2376 70.5547C40.5716 70.5547 38.9771 72.7148 38.9771 74.4037C38.9771 75.3306 39.4248 76.0061 40.713 76.0061C41.3807 76.0061 42.449 75.6527 42.449 74.7493C42.449 73.5161 40.9016 71.0339 45.3397 71.0339C47.5313 71.0339 48.2383 72.1021 48.2383 74.6079C48.2383 74.7886 48.3482 76.4146 47.5313 77.153C46.6437 77.9542 42.8339 78.8968 41.852 79.1639C38.8592 79.9573 37.8066 81.057 37.8066 83.005C37.8066 85.9664 40.933 86.367 42.8889 86.367C46.5101 86.367 47.7355 84.7567 48.1283 83.5156C48.199 83.9005 48.4661 84.6232 48.7488 85.0238C49.2437 85.7229 49.935 86.367 52.0637 86.367C53.3598 86.367 54.271 86.0293 54.271 86.0293V85.77C54.2632 85.77 52.9671 86.2256 52.158 85.5815ZM48.1126 80.8527C48.1126 82.4238 47.7905 85.6758 44.0986 85.6758C42.9753 85.6758 41.1844 85.3223 41.1844 82.7615C41.1844 81.2219 41.7342 80.1144 43.5095 79.431C44.2714 79.1403 45.1355 78.8418 46.1095 78.4962C47.0836 78.1506 47.6805 77.8521 48.1204 77.3886C48.1126 78.1742 48.1126 79.7295 48.1126 80.8527Z" fill="black"/>
<path d="M14.0381 72.5657C18.0442 72.0159 21.0056 69.9735 21.0056 66.8943C21.0056 62.9589 16.9602 61.1758 11.7915 61.1758C11.0924 61.1758 7.89539 61.1758 7.23556 61.1758C5.15395 61.1758 0.44873 61.1758 0.44873 61.1758V61.435C3.14304 61.435 4.47841 62.5661 4.47841 64.9934V82.0547C4.47841 84.4898 3.13518 85.6131 0.44873 85.6131V85.8723C0.44873 85.8723 5.15395 85.8723 7.23556 85.8723C8.46096 85.8723 10.7861 85.8723 11.7915 85.8723C18.1385 85.8723 22.286 83.4844 22.286 79.1326C22.2781 75.1186 18.7512 73.0449 14.0381 72.5657ZM8.30386 61.6628C8.30386 61.6628 9.38786 61.6628 11.006 61.6628C14.1716 61.6628 16.756 62.3933 16.756 67.0436C16.756 71.4189 14.5644 72.3851 12.0743 72.3851H8.30386V61.6628ZM11.3516 85.4089C9.52925 85.4089 8.30386 85.4089 8.30386 85.4089V72.8721H12.5535C15.3578 72.8721 17.8321 74.2153 17.8321 79.1169C17.84 84.5527 14.9257 85.4089 11.3516 85.4089Z" fill="black"/>
<path d="M72.0868 82.0862V75.4643C72.0868 72.0709 70.1466 70.6177 66.4782 70.6177C63.6268 70.6177 61.7809 72.2515 60.8382 73.8618V70.9947H55.0176V71.2539C57.0206 71.2539 57.7904 71.9688 57.7904 73.5005V83.3744C57.7904 84.9062 57.0206 85.621 55.0176 85.621V85.8802H63.9646V85.621C61.9615 85.621 60.8382 84.9062 60.8382 83.3744V75.0008C61.7416 72.6993 63.7839 71.0968 66.1797 71.0968C68.3949 71.0968 68.9369 72.7307 68.9369 74.6238C68.9369 75.0323 68.9369 83.4844 68.9369 83.4844C68.9369 85.0161 67.8372 85.6131 65.8812 85.6131V85.8723H74.8518V85.6131C71.639 85.621 72.0868 83.7829 72.0868 82.0862Z" fill="black"/>
<path d="M33.4863 70.6177H33.3763C31.2633 70.6177 29.3937 72.2515 28.7025 74.6866V71.0026H22.8818V71.2618C24.8849 71.2618 25.6547 71.9766 25.6547 73.5084V83.3823C25.6547 84.914 24.8849 85.6288 22.8818 85.6288V85.8881H31.8288V85.6288C29.8258 85.6288 28.7025 84.914 28.7025 83.3823V78.0094C28.7025 74.1918 30.682 71.3168 32.6065 71.3168C33.3606 71.3168 33.8398 71.6546 33.8398 72.4244C33.8398 73.5241 33.3684 73.6026 33.3684 74.4353C33.3684 75.0558 33.9262 75.5586 34.9316 75.5586C35.8585 75.5586 36.7776 74.8202 36.7776 73.634C36.7697 71.4425 35.1516 70.6177 33.4863 70.6177Z" fill="black"/>
<path d="M90.7506 82.4789V61.1758H84.985V61.435C86.8152 61.435 87.6479 62.142 87.6479 64.5771V73.524C86.6895 71.6152 85.0478 70.5391 82.7777 70.5391C78.5909 70.5391 75.1582 74.1839 75.1582 78.4492C75.1582 82.5574 78.8423 86.3593 82.8719 86.3593C85.0949 86.3593 86.7052 85.2596 87.6479 83.3665V85.8723H93.4135V85.6131C91.5833 85.6209 90.7506 84.914 90.7506 82.4789ZM87.7343 79.0619C87.7343 83.6807 86.0611 85.8802 83.1704 85.8802C79.5492 85.8802 78.7637 83.7985 78.7637 78.4571C78.7637 73.3198 79.6042 71.034 83.0212 71.034C85.7783 71.034 87.7107 72.9977 87.7421 77.3259C87.7343 77.3652 87.7343 79.0148 87.7343 79.0619Z" fill="black"/>
<path d="M101.787 77.2081L102.023 77.2866L99.5566 76.5089C96.9801 75.692 96.3281 75.04 96.3281 73.7675C96.3281 72.0472 97.7577 71.0261 99.9886 71.0261H100.059C102.981 71.0261 103.735 73.9796 104.089 74.9458H104.442V70.9947H104.089C103.963 71.1203 103.853 71.2696 103.358 71.2696C102.691 71.2696 101.819 70.5391 100.083 70.5391H99.9886C97.0115 70.5391 94.7649 72.4871 94.7649 75.205C94.7649 78.2214 97.2629 78.9833 97.8206 79.1718C97.8206 79.1718 100.083 79.9181 101.387 80.358C102.534 80.7429 103.547 81.2613 103.547 82.9894C103.547 84.9061 102.369 85.8644 100.319 85.8644C96.3438 85.8644 95.0556 81.9368 94.7963 81.0099H94.4429V85.8644H94.7963C94.7963 85.8644 94.9377 85.3774 95.7075 85.3774C96.7758 85.3774 98.2448 86.3514 100.319 86.3514C103.61 86.3514 106.084 84.3562 106.084 81.4263C106.084 79.0147 104.175 77.97 101.787 77.2081Z" fill="black"/>
<path d="M23.7706 22.5756C23.7706 22.5756 23.7628 22.5756 23.7706 22.5756L11.3359 9.80319L19.1204 2.4508C20.1651 1.46105 21.4612 0.259219 24.1084 0.259219V0H16.6224V0.259219C17.9735 0.259219 19.0497 0.565568 19.0497 1.28038C19.0497 1.70456 18.7433 2.04233 18.0049 2.74144H18.0128L8.30386 11.9084V3.82544C8.30386 1.39036 9.64708 0.267074 12.3335 0.267074V0.0078553H0.44873V0.267074C3.14304 0.267074 4.47841 1.39821 4.47841 3.82544V20.8868C4.47841 23.3218 3.13518 24.4451 0.44873 24.4451V24.7044H12.3414V24.4451C9.64708 24.4451 8.31172 23.314 8.31172 20.8868V12.6703L8.72018 12.2854L19.6467 23.5104C20.1572 24.0367 20.2201 24.4451 17.5258 24.4451V24.7044H27.926V24.4451C25.8758 24.4451 25.2631 24.1074 23.7706 22.5756Z" fill="black"/>
<path d="M43.1169 24.3979C42.4964 23.9031 42.4571 23.5496 42.4571 22.5127C42.4571 22.3713 42.4571 14.1549 42.4571 14.1549C42.4571 11.3192 40.4226 9.37109 36.1966 9.37109C31.5306 9.37109 29.936 11.5313 29.936 13.2201C29.936 14.147 30.3838 14.8226 31.672 14.8226C32.3397 14.8226 33.408 14.4691 33.408 13.5657C33.408 12.3325 31.8605 9.85026 36.2987 9.85026C38.4903 9.85026 39.1972 10.9186 39.1972 13.4243C39.1972 13.605 39.3072 15.231 38.4903 15.9694C37.6026 16.7706 33.7929 17.7132 32.811 17.9803C29.8182 18.7737 28.7656 19.8734 28.7656 21.8215C28.7656 24.7828 31.892 25.1835 33.8479 25.1835C37.4691 25.1835 38.6945 23.5732 39.0873 22.332C39.158 22.717 39.425 23.4396 39.7078 23.8402C40.2027 24.5393 40.8939 25.1835 43.0227 25.1835C44.3188 25.1835 45.23 24.8457 45.23 24.8457V24.5865C45.2143 24.5865 43.926 25.0499 43.1169 24.3979ZM39.0716 19.6692C39.0716 21.2402 38.7495 24.4922 35.0576 24.4922C33.9343 24.4922 32.1433 24.1387 32.1433 21.578C32.1433 20.0384 32.6932 18.9308 34.4684 18.2474C35.2304 17.9567 36.0945 17.6583 37.0685 17.3126C38.0425 16.967 38.6395 16.6685 39.0794 16.2051C39.0716 16.9984 39.0716 18.5459 39.0716 19.6692Z" fill="black"/>
<path d="M54.7275 9.37109C50.0694 9.37109 45.7334 13.2201 45.7334 17.2812C45.7334 21.4444 49.9673 25.1913 54.7275 25.1913C59.4877 25.1913 63.7216 21.4444 63.7216 17.2812C63.7216 13.2201 59.3856 9.37109 54.7275 9.37109ZM54.7275 24.6964C50.9649 24.6964 49.5903 22.497 49.5903 17.2733C49.5903 12.2225 50.8235 9.85026 54.7275 9.85026C58.6315 9.85026 59.8648 12.2225 59.8648 17.2733C59.8569 22.497 58.4901 24.6964 54.7275 24.6964Z" fill="black"/>
<path d="M77.9089 53.3908V40.4063H71.2949V40.6655C74.9239 40.6655 74.4212 42.5193 74.4212 44.2239V48.937C74.4212 51.9847 71.9076 55.2839 68.9462 55.2839C66.1891 55.2839 65.4978 53.4222 65.4978 50.995C65.4978 50.5865 65.4978 40.3984 65.4978 40.3984H58.8838V40.6577C62.5129 40.6577 62.0101 42.5115 62.0101 44.216V50.885C62.0101 54.302 64.2017 55.7631 68.3414 55.7631C71.7583 55.7631 73.7692 53.3594 74.4291 51.5134V55.2839H80.2497V55.0247C78.2388 55.0325 77.9089 54.2313 77.9089 53.3908Z" fill="black"/>
<path d="M58.0193 54.9858C57.3987 54.491 57.3595 54.1375 57.3595 53.1006C57.3595 52.9592 57.3595 44.7428 57.3595 44.7428C57.3595 41.9071 55.325 39.959 51.0989 39.959C46.433 39.959 44.8384 42.1191 44.8384 43.808C44.8384 44.7349 45.2861 45.4104 46.5744 45.4104C47.2421 45.4104 48.3104 45.057 48.3104 44.1536C48.3104 42.9204 46.7629 40.4381 51.201 40.4381C53.3926 40.4381 54.0996 41.5064 54.0996 44.0122C54.0996 44.1929 54.2096 45.8189 53.3926 46.5573C52.505 47.3585 48.6953 48.3011 47.7134 48.5682C44.7206 49.3616 43.668 50.4613 43.668 52.4094C43.668 55.3707 46.7943 55.7714 48.7502 55.7714C52.3715 55.7714 53.5969 54.161 53.9896 52.9199C54.0603 53.3048 54.3274 54.0275 54.6102 54.4281C55.1051 55.1272 55.7963 55.7714 57.925 55.7714C59.2211 55.7714 60.1323 55.4336 60.1323 55.4336V55.1744C60.1166 55.1744 58.8284 55.6378 58.0193 54.9858ZM53.9739 50.2571C53.9739 51.8281 53.6519 55.0801 49.9599 55.0801C48.8367 55.0801 47.0457 54.7266 47.0457 52.1658C47.0457 50.6262 47.5955 49.5187 49.3708 48.8353C50.1328 48.5446 50.9968 48.2461 51.9709 47.9005C52.9449 47.5549 53.5419 47.2564 53.9818 46.7929C53.9739 47.5863 53.9739 49.1338 53.9739 50.2571Z" fill="black"/>
<path d="M14.0381 41.97C18.0442 41.4201 21.0056 39.3778 21.0056 36.2986C21.0056 32.3632 16.9602 30.5801 11.7915 30.5801C11.0924 30.5801 0.44873 30.5801 0.44873 30.5801V30.8393C3.14304 30.8393 4.47841 31.9704 4.47841 34.3977V51.459C4.47841 53.8941 3.13518 55.0174 0.44873 55.0174V55.2766C0.44873 55.2766 10.7861 55.2766 11.7915 55.2766C18.1385 55.2766 22.286 52.8886 22.286 48.5369C22.2781 44.5308 18.7512 42.457 14.0381 41.97ZM8.30386 31.0749C8.30386 31.0749 9.38786 31.0749 11.006 31.0749C14.1716 31.0749 16.756 31.8055 16.756 36.4557C16.756 40.831 14.5644 41.7972 12.0743 41.7972H8.30386V31.0749ZM11.3516 54.821C9.52925 54.821 8.30386 54.821 8.30386 54.821V42.2842H12.5535C15.3578 42.2842 17.8321 43.6274 17.8321 48.529C17.84 53.9648 14.9257 54.821 11.3516 54.821Z" fill="black"/>
<path d="M34.2972 55.2922C30.1575 55.1901 28.6886 52.7471 28.9793 46.6908H41.4768C41.4768 41.8364 37.2743 39.959 33.9437 39.959C29.1442 39.959 24.8789 43.7059 24.8789 47.8691C24.8789 53.0692 29.3013 55.7792 34.2029 55.7792C37.887 55.7792 40.2592 54.2789 41.1783 51.4275H40.7776C40.1649 52.9121 38.9788 55.41 34.2972 55.2922ZM33.8494 40.4381C36.8579 40.4381 37.8006 42.3941 37.3528 46.1959H29.0186C29.3406 42.237 30.8488 40.4381 33.8494 40.4381Z" fill="black"/>
<path d="M105.762 40.4067V40.6581C108.629 40.6581 108.48 41.7264 107.985 42.8418L103.744 52.323L98.7399 42.8104H98.732C98.3 41.9856 97.8365 40.6581 101.057 40.6581V40.4067H91.0183H86.5251C86.5251 37.7281 86.5251 35.6387 86.5251 35.6387C84.8913 36.7148 83.0375 36.1414 83.0375 36.1414C83.0925 38.9457 82.2127 40.4146 79.9111 40.4146V40.7681H83.0375V51.8674C83.0375 54.813 85.0405 55.7792 88.4182 55.7792C91.3796 55.7792 92.4872 54.1061 92.88 52.3779H92.4793C92.0866 54.0982 90.9712 55.2922 89.0309 55.2922C86.533 55.2922 86.533 53.4384 86.533 51.3803C86.533 50.1628 86.533 44.8841 86.533 40.7681H91.0261C93.7205 40.7681 94.5295 42.0799 95.2993 43.5488C95.5664 44.0515 101.984 56.2662 101.984 56.2662L99.7218 61.3171C99.2662 62.3382 98.08 64.5691 96.2734 64.5691C95.6921 64.5691 95.2208 64.5141 95.2208 63.87C95.2208 62.8802 95.8492 62.8881 95.8492 62.0162C95.8492 61.2699 95.1108 60.8143 93.964 60.8143C92.6679 60.8143 92.0787 61.6156 92.0787 62.5974C92.0787 63.6579 92.8957 65.1739 95.6449 65.1739C98.7084 65.1739 99.6825 62.841 100.452 61.1128L108.999 42.0092C109.643 40.7759 110.868 40.6502 111.772 40.6502V40.3989H105.762V40.4067Z" fill="black"/>
</svg>
