<svg width="167" height="15" viewBox="0 0 167 15" fill="none" xmlns="http://www.w3.org/2000/svg">
<path d="M8.9077 7.1047H9.22976V10.6631H8.9077C8.8213 10.2625 8.65634 9.90112 8.42069 9.59477C7.5252 10.6002 6.38621 11.1108 4.99585 11.1108C3.52695 11.1108 2.32512 10.6474 1.39821 9.72045C0.463452 8.79355 0 7.5603 0 6.03641C0 5.03095 0.212086 4.08834 0.644118 3.20071C1.07615 2.31309 1.67314 1.65325 2.44294 1.22907C3.21274 0.797043 4.05324 0.584961 4.97229 0.584961C5.73424 0.584961 6.41763 0.742068 7.03819 1.05627C7.65089 1.37048 8.11434 1.71609 8.42069 2.09314C8.63277 1.66896 8.76631 1.22908 8.81344 0.773488H9.14336L9.22976 4.62249H8.9077C8.6799 3.2557 8.22431 2.30523 7.53306 1.77108C6.84181 1.23693 6.06415 0.969865 5.19223 0.969865C4.13179 0.969865 3.28344 1.40189 2.65503 2.26595C2.02662 3.13001 1.71241 4.36327 1.71241 5.97356C1.71241 7.49746 2.05804 8.66 2.74144 9.47694C3.42483 10.286 4.27318 10.6945 5.29435 10.6945C5.83635 10.6945 6.39407 10.5609 6.96749 10.2939C7.53306 10.0268 7.98865 9.57905 8.31857 8.95064C8.64848 8.30653 8.84486 7.69383 8.9077 7.1047Z" fill="black"/>
<path d="M16.2132 6.86123H11.94C11.9164 7.15187 11.9085 7.37181 11.9085 7.52106C11.9085 8.59721 12.0735 9.40629 12.4113 9.9483C12.749 10.4903 13.2518 10.7574 13.9195 10.7574C14.8307 10.7574 15.4748 10.3489 15.8518 9.53982H16.2132C16.0561 10.0504 15.734 10.4432 15.2627 10.7338C14.7914 11.0245 14.2729 11.1658 13.7152 11.1658C13.1968 11.1658 12.7019 11.0323 12.2463 10.7731C11.7829 10.5139 11.4058 10.1368 11.1152 9.65766C10.8245 9.17849 10.6753 8.59721 10.6753 7.91381C10.6753 6.94763 10.9581 6.13854 11.5315 5.50228C12.0971 4.85815 12.8119 4.54395 13.6681 4.54395C14.4693 4.54395 15.0899 4.78746 15.5298 5.27448C15.9539 5.7615 16.1817 6.2878 16.2132 6.86123ZM14.9014 6.56273C14.9171 6.4449 14.9249 6.34278 14.9249 6.25638C14.9249 5.81649 14.7992 5.47871 14.54 5.2352C14.2808 4.99169 13.9666 4.87386 13.5895 4.87386C12.6784 4.87386 12.1363 5.43944 11.9635 6.56273H14.9014Z" fill="black"/>
<path d="M19.1428 0.623047V8.81593C19.1428 9.4679 19.1506 9.88423 19.1664 10.0492C19.1821 10.222 19.2528 10.3477 19.3784 10.4419C19.5041 10.5283 19.7241 10.5755 20.0461 10.5755H20.2268V10.9211H16.9434V10.5755H17.1554C17.4539 10.5755 17.666 10.5362 17.7996 10.4498C17.9252 10.3712 18.0038 10.2534 18.0274 10.1042C18.0509 9.95492 18.0666 9.52289 18.0666 8.81593V2.75178C18.0666 2.10766 18.0117 1.69919 17.8938 1.53423C17.776 1.36927 17.5011 1.28287 17.0533 1.28287V0.937247C17.3597 0.937247 17.7132 0.905822 18.1295 0.835126C18.538 0.76443 18.8286 0.693743 18.9778 0.623047H19.1428Z" fill="black"/>
<path d="M26.5178 6.86123H22.2447C22.2211 7.15187 22.2132 7.37181 22.2132 7.52106C22.2132 8.59721 22.3782 9.40629 22.716 9.9483C23.0537 10.4903 23.5565 10.7574 24.2241 10.7574C25.1353 10.7574 25.7794 10.3489 26.1565 9.53982H26.5178C26.3607 10.0504 26.0387 10.4432 25.5674 10.7338C25.0961 11.0245 24.5776 11.1658 24.0199 11.1658C23.5015 11.1658 23.0066 11.0323 22.551 10.7731C22.0876 10.5139 21.7105 10.1368 21.4199 9.65766C21.1292 9.17849 20.98 8.59721 20.98 7.91381C20.98 6.94763 21.2628 6.13854 21.8362 5.50228C22.4018 4.85815 23.1166 4.54395 23.9728 4.54395C24.774 4.54395 25.3946 4.78746 25.8344 5.27448C26.2586 5.7615 26.4943 6.2878 26.5178 6.86123ZM25.206 6.56273C25.2217 6.4449 25.2296 6.34278 25.2296 6.25638C25.2296 5.81649 25.1039 5.47871 24.8447 5.2352C24.5855 4.99169 24.2713 4.87386 23.8942 4.87386C22.983 4.87386 22.441 5.43944 22.2682 6.56273H25.206Z" fill="black"/>
<path d="M28.4981 11.1647H28.2075V2.95608C28.2075 2.35909 28.1918 1.96632 28.1603 1.79351C28.1289 1.6207 28.0425 1.48716 27.9168 1.40075C27.7833 1.31434 27.5555 1.27508 27.2256 1.27508V0.929448C27.5162 0.929448 27.8776 0.898024 28.286 0.827327C28.7023 0.756631 28.9851 0.685931 29.1344 0.615234H29.2915V5.46973C29.6371 5.15553 29.9984 4.91986 30.3519 4.76276C30.7133 4.60566 31.0746 4.52711 31.4438 4.52711C32.3314 4.52711 33.0541 4.83346 33.6118 5.44617C34.1774 6.05887 34.4602 6.84438 34.4602 7.79485C34.4602 8.75318 34.1695 9.55441 33.5882 10.1907C33.007 10.8269 32.2607 11.149 31.3338 11.149C30.8782 11.149 30.4776 11.0547 30.1398 10.8662C29.7942 10.6777 29.5114 10.3949 29.2836 10.0179C28.9616 10.3556 28.7024 10.7327 28.4981 11.1647ZM29.2836 5.91747V8.32116C29.2836 8.94172 29.3229 9.38161 29.4093 9.65654C29.4957 9.93147 29.6921 10.1907 30.0063 10.4421C30.3205 10.6934 30.6897 10.8191 31.106 10.8191C31.7501 10.8191 32.2607 10.552 32.6456 10.0257C33.0305 9.49943 33.2191 8.73748 33.2191 7.73987C33.2191 6.82867 33.0384 6.12956 32.6849 5.6504C32.3314 5.17123 31.8523 4.93557 31.2553 4.93557C30.9175 4.93557 30.5797 5.01414 30.2577 5.17909C29.9356 5.34405 29.6057 5.58755 29.2836 5.91747Z" fill="black"/>
<path d="M37.334 6.09885C37.5068 5.65111 37.7817 5.28192 38.1588 4.98343C38.5437 4.68493 38.9129 4.53568 39.2821 4.53568C39.612 4.53568 39.8712 4.6378 40.0597 4.84203C40.2482 5.04626 40.3425 5.25835 40.3425 5.47044C40.3425 5.61183 40.2954 5.73751 40.1933 5.84748C40.099 5.94959 39.9733 6.00458 39.8398 6.00458C39.5884 6.00458 39.3999 5.82392 39.2742 5.44687C39.1878 5.19551 39.0464 5.06982 38.8736 5.06982C38.6615 5.06982 38.4023 5.21908 38.1038 5.50972C37.8053 5.80035 37.6089 6.10669 37.5304 6.42089C37.444 6.7351 37.4047 7.16713 37.4047 7.71699V8.80884C37.4047 9.46081 37.4125 9.87713 37.4283 10.0421C37.444 10.2149 37.5147 10.3406 37.6404 10.4348C37.766 10.5212 37.986 10.5684 38.308 10.5684H38.5201V10.914H35.2603V10.5684H35.4174C35.7158 10.5684 35.9279 10.5291 36.0536 10.4427C36.1793 10.3641 36.2578 10.2463 36.2814 10.0971C36.305 9.94783 36.3207 9.5158 36.3207 8.80884V7.08073C36.3207 6.4209 36.3128 6.00458 36.2971 5.83963C36.2814 5.67467 36.2107 5.54113 36.085 5.44687C35.9594 5.35261 35.7394 5.30548 35.4174 5.30548H35.2603V4.96771C35.7316 4.91273 36.3443 4.76348 37.1062 4.52783C37.2397 4.92844 37.3261 5.45473 37.334 6.09885Z" fill="black"/>
<path d="M47.3655 9.79075H47.6404C47.5932 10.647 47.1769 11.0711 46.3836 11.0711C46.0458 11.0711 45.7787 10.9847 45.5823 10.8041C45.386 10.6234 45.2603 10.3563 45.1974 10.0028C44.6947 10.3563 44.2391 10.6234 43.8306 10.8041C43.4222 10.9847 43.053 11.0711 42.7231 11.0711C42.3067 11.0711 41.9533 10.9533 41.6548 10.7098C41.3563 10.4663 41.207 10.1521 41.207 9.75933C41.207 9.24874 41.4584 8.79315 41.9611 8.40825C42.4639 8.02335 43.1551 7.64631 44.0427 7.28497L45.2053 6.81366V6.51517C45.2053 6.091 45.1739 5.78465 45.1267 5.59613C45.0718 5.4076 44.9304 5.23479 44.7026 5.08554C44.4748 4.93629 44.1684 4.85775 43.7992 4.85775C43.053 4.85775 42.6367 5.10911 42.5503 5.60398C42.4717 6.11456 42.2596 6.36592 41.9218 6.36592C41.6155 6.36592 41.4663 6.22453 41.4663 5.93389C41.4663 5.65111 41.6705 5.34476 42.0711 5.01484C42.4717 4.68493 43.108 4.52783 43.9563 4.52783C44.5926 4.52783 45.0796 4.62994 45.4331 4.82632C45.7787 5.0227 46.0144 5.2505 46.1243 5.50972C46.2343 5.76108 46.2893 6.15383 46.2893 6.68012V9.16234C46.2893 9.74362 46.3207 10.1128 46.3757 10.2778C46.4386 10.4427 46.5642 10.5291 46.7685 10.5291C47.0748 10.5291 47.279 10.2856 47.3655 9.79075ZM45.1896 7.175L44.3726 7.50491C43.0844 8.03121 42.4403 8.69104 42.4403 9.4844C42.4403 9.79861 42.5188 10.05 42.6838 10.2463C42.8488 10.4427 43.0608 10.537 43.3279 10.537C43.5636 10.537 43.8306 10.4584 44.1448 10.3013C44.4512 10.1442 44.8047 9.91643 45.1817 9.60223V7.175H45.1896Z" fill="black"/>
<path d="M51.1598 5.12463H49.3138V8.83225C49.3138 9.39782 49.3374 9.78271 49.3924 9.97909C49.4395 10.1755 49.5495 10.3326 49.7145 10.4583C49.8794 10.5761 50.0522 10.6389 50.2329 10.6389C50.5942 10.6389 50.9006 10.4347 51.1677 10.0262L51.4112 10.1676C51.2541 10.4975 51.0263 10.7489 50.7278 10.9139C50.4293 11.0788 50.1229 11.1652 49.8087 11.1652C49.4474 11.1652 49.1332 11.0552 48.8582 10.851C48.5833 10.6389 48.4184 10.3876 48.3477 10.1048C48.277 9.82199 48.2455 9.31926 48.2455 8.60444V5.12463H47.3579V4.779C47.7664 4.77114 48.1356 4.59833 48.4576 4.26056C48.7797 3.92278 48.9918 3.45934 49.0782 2.85449H49.3217V4.779H51.1677V5.12463H51.1598Z" fill="black"/>
<path d="M54.5063 4.53496V8.80816C54.5063 9.46013 54.5141 9.87645 54.5377 10.0414C54.5613 10.2142 54.6319 10.3399 54.7576 10.4342C54.8833 10.5206 55.1033 10.5677 55.4253 10.5677H55.5824V10.9133H52.2832V10.5677H52.5346C52.8881 10.5677 53.1159 10.5127 53.2259 10.4106C53.3358 10.3085 53.3987 10.1828 53.4144 10.0414C53.4301 9.90001 53.438 9.48369 53.438 8.80029V6.94649C53.438 6.23167 53.4065 5.79178 53.3358 5.62682C53.2651 5.46972 53.1787 5.3676 53.0688 5.32832C52.9588 5.28904 52.7624 5.26548 52.4796 5.26548H52.2754V4.91986C53.163 4.83345 53.8543 4.69992 54.3413 4.5271H54.5063V4.53496ZM53.0609 1.40861C53.0609 1.19652 53.1395 1.00799 53.2887 0.850891C53.438 0.693788 53.6265 0.615234 53.8386 0.615234C54.0507 0.615234 54.2392 0.693788 54.3884 0.850891C54.5377 1.00799 54.6162 1.18867 54.6162 1.40861C54.6162 1.62856 54.5377 1.81707 54.3884 1.96632C54.2392 2.12342 54.0585 2.20198 53.8386 2.20198C53.6265 2.20198 53.438 2.12342 53.2887 1.96632C53.1395 1.80922 53.0609 1.62856 53.0609 1.40861Z" fill="black"/>
<path d="M56.1313 7.84221C56.1313 6.90744 56.4455 6.12192 57.074 5.48564C57.7024 4.85723 58.48 4.53516 59.3991 4.53516C60.326 4.53516 61.0958 4.84937 61.7242 5.48564C62.3526 6.12192 62.6668 6.89958 62.6668 7.83435C62.6668 8.87124 62.3447 9.68033 61.7085 10.2695C61.0722 10.8586 60.2946 11.1571 59.3912 11.1571C58.4879 11.1571 57.7181 10.8586 57.0818 10.2538C56.4534 9.65676 56.1313 8.85554 56.1313 7.84221ZM57.3725 7.87363C57.3725 8.9655 57.5531 9.72746 57.9066 10.1595C58.2601 10.5994 58.7549 10.8115 59.3991 10.8115C60.051 10.8115 60.5538 10.5915 60.8994 10.1595C61.245 9.72746 61.4178 8.95765 61.4178 7.87363C61.4178 6.79746 61.245 6.02765 60.8994 5.56419C60.5538 5.10859 60.051 4.87293 59.3912 4.87293C58.7392 4.87293 58.2365 5.10073 57.8909 5.55634C57.5531 6.0198 57.3725 6.78961 57.3725 7.87363Z" fill="black"/>
<path d="M64.9618 4.53613H65.166C65.2838 4.84248 65.3467 5.26666 65.3624 5.80081C65.7237 5.37663 66.1008 5.06242 66.4935 4.85033C66.8863 4.63824 67.3026 4.53613 67.7268 4.53613C68.2138 4.53613 68.6144 4.63825 68.9286 4.84248C69.2428 5.04672 69.4392 5.29809 69.5335 5.59658C69.6199 5.89508 69.667 6.32711 69.667 6.89268V8.80934C69.667 9.5163 69.6827 9.94833 69.7063 10.1054C69.7299 10.2625 69.8084 10.3725 69.9419 10.4511C70.0755 10.5296 70.319 10.5689 70.6725 10.5689V10.9145H67.5383V10.5689H67.6797C68.041 10.5689 68.2766 10.5139 68.3866 10.4118C68.4966 10.3097 68.5594 10.184 68.5751 10.0426C68.5909 9.9012 68.5987 9.49274 68.5987 8.80934V6.82984C68.5987 6.34282 68.5751 5.9972 68.528 5.79296C68.4809 5.58873 68.3552 5.40019 68.1431 5.24309C67.9389 5.08599 67.6718 4.99958 67.3497 4.99958C66.9884 4.99958 66.6349 5.10955 66.305 5.3295C65.9751 5.54944 65.6609 5.87151 65.3624 6.30354V8.80147C65.3624 9.50844 65.3781 9.94048 65.4017 10.0976C65.4252 10.2547 65.5116 10.3647 65.6452 10.4432C65.7787 10.5218 66.0222 10.561 66.3835 10.561V10.9067H63.2808V10.561C63.6264 10.561 63.862 10.5296 64.0034 10.4589C64.137 10.3882 64.2234 10.2861 64.2548 10.1447C64.2862 10.0033 64.3019 9.55558 64.3019 8.80934V6.97909C64.3019 6.26427 64.2862 5.83224 64.2627 5.68299C64.2312 5.53374 64.1527 5.41591 64.0191 5.33736C63.8856 5.25881 63.6421 5.21953 63.2808 5.21953V4.8739C63.8228 4.81891 64.3883 4.70895 64.9618 4.53613Z" fill="black"/>
<path d="M74.8589 7.84221C74.8589 6.90744 75.1731 6.12192 75.8015 5.48564C76.4299 4.85723 77.2076 4.53516 78.1266 4.53516C79.0535 4.53516 79.8233 4.84937 80.4518 5.48564C81.0802 6.12192 81.3944 6.89958 81.3944 7.83435C81.3944 8.87124 81.0723 9.68033 80.436 10.2695C79.7998 10.8586 79.0221 11.1571 78.1188 11.1571C77.2154 11.1571 76.4456 10.8586 75.8094 10.2538C75.1809 9.65676 74.8589 8.85554 74.8589 7.84221ZM76.1079 7.87363C76.1079 8.9655 76.2885 9.72746 76.642 10.1595C76.9955 10.5994 77.4904 10.8115 78.1345 10.8115C78.7865 10.8115 79.2892 10.5915 79.6348 10.1595C79.9805 9.71961 80.1533 8.95765 80.1533 7.87363C80.1533 6.79746 79.9805 6.02765 79.6348 5.56419C79.2892 5.10859 78.7865 4.87293 78.1266 4.87293C77.4747 4.87293 76.9719 5.10073 76.6263 5.55634C76.2807 6.01194 76.1079 6.78961 76.1079 7.87363Z" fill="black"/>
<path d="M85.8418 4.78538V5.12314H84.5614V8.8072C84.5614 9.45917 84.5692 9.87549 84.585 10.0404C84.6007 10.2133 84.6714 10.3389 84.797 10.4332C84.9227 10.5196 85.1427 10.5667 85.4647 10.5667H85.7868V10.9124H82.472V10.5667C82.8176 10.5667 83.0532 10.5353 83.1868 10.4646C83.3203 10.3939 83.3988 10.2918 83.4303 10.1504C83.4617 10.009 83.4774 9.56128 83.4774 8.81505V5.12314H82.3306V4.77751H83.4774V4.21981C83.4774 3.59925 83.501 3.12009 83.556 2.78232C83.6031 2.44455 83.7445 2.09106 83.9801 1.72972C84.2158 1.36839 84.5064 1.09346 84.8599 0.897081C85.2134 0.700703 85.6297 0.606445 86.1167 0.606445C86.7058 0.606445 87.1771 0.732128 87.5306 0.975637C87.8841 1.21915 88.0647 1.47051 88.0647 1.72187C88.0647 1.87112 88.0176 1.98895 87.9155 2.08321C87.8134 2.17747 87.6956 2.2246 87.562 2.2246C87.295 2.2246 87.0515 2.02037 86.8394 1.6119C86.5959 1.16416 86.2738 0.936359 85.8889 0.936359C85.5747 0.936359 85.2998 1.04634 85.0641 1.27414C84.8285 1.50193 84.6871 1.78471 84.64 2.12248C84.5928 2.46025 84.5693 3.19079 84.5693 4.30621V4.76966H85.8418V4.78538Z" fill="black"/>
<path d="M89.9644 1.1093V0.763672H94.6068V1.1093H94.3868C93.8841 1.1093 93.562 1.14858 93.4049 1.23499C93.2478 1.31354 93.1457 1.47064 93.0907 1.69844C93.0357 1.92624 93.0122 2.46038 93.0122 3.30088V8.28106C93.0122 9.08228 93.0279 9.60073 93.0672 9.85209C93.1064 10.0956 93.2007 10.2841 93.3657 10.4019C93.5306 10.5198 93.837 10.5826 94.3004 10.5826H94.5989V10.9282H89.9565V10.5826H90.255C90.6871 10.5826 90.9934 10.5276 91.1584 10.4177C91.3233 10.3077 91.4333 10.1349 91.4726 9.90707C91.5197 9.67142 91.5433 9.13727 91.5433 8.28891V3.30875C91.5433 2.49967 91.5197 1.98122 91.4726 1.74557C91.4254 1.50991 91.3312 1.35281 91.1741 1.25855C91.017 1.17214 90.6871 1.12501 90.1686 1.12501H89.9644V1.1093Z" fill="black"/>
<path d="M96.7982 4.53613H97.0024C97.1202 4.84248 97.1831 5.26666 97.1988 5.80081C97.5601 5.37663 97.9372 5.06242 98.3299 4.85033C98.7227 4.63824 99.139 4.53613 99.5632 4.53613C100.05 4.53613 100.451 4.63825 100.765 4.84248C101.079 5.04672 101.276 5.29809 101.37 5.59658C101.456 5.89508 101.503 6.32711 101.503 6.89268V8.80934C101.503 9.5163 101.519 9.94833 101.543 10.1054C101.566 10.2625 101.645 10.3725 101.778 10.4511C101.912 10.5296 102.155 10.5689 102.509 10.5689V10.9145H99.3747V10.5689H99.5161C99.8774 10.5689 100.113 10.5139 100.223 10.4118C100.333 10.3097 100.396 10.184 100.412 10.0426C100.427 9.9012 100.435 9.49274 100.435 8.80934V6.82984C100.435 6.34282 100.412 5.9972 100.364 5.79296C100.317 5.58873 100.192 5.40019 99.9795 5.24309C99.7753 5.08599 99.5082 4.99958 99.1861 4.99958C98.8248 4.99958 98.4713 5.10955 98.1414 5.3295C97.8115 5.54944 97.4973 5.87151 97.1988 6.30354V8.80147C97.1988 9.50844 97.2145 9.94048 97.2381 10.0976C97.2616 10.2547 97.348 10.3647 97.4816 10.4432C97.6151 10.5218 97.8586 10.561 98.22 10.561V10.9067H95.1172V10.561C95.4628 10.561 95.6985 10.5296 95.8399 10.4589C95.9734 10.3882 96.0598 10.2861 96.0912 10.1447C96.1226 10.0033 96.1384 9.55558 96.1384 8.80934V6.97909C96.1384 6.26427 96.1226 5.83224 96.0991 5.68299C96.0677 5.53374 95.9891 5.41591 95.8556 5.33736C95.722 5.25881 95.4785 5.21953 95.1172 5.21953V4.8739C95.667 4.81891 96.2248 4.70895 96.7982 4.53613Z" fill="black"/>
<path d="M108.055 5.43822V3.04242C108.055 2.39045 108.047 1.97412 108.032 1.80916C108.016 1.63635 107.945 1.51067 107.819 1.41641C107.694 1.33 107.474 1.28287 107.152 1.28287H106.995V0.937246C107.599 0.921536 108.259 0.819424 108.982 0.623047H109.139V8.8709C109.139 9.58572 109.155 10.0177 109.178 10.1748C109.202 10.3319 109.28 10.4419 109.414 10.5205C109.548 10.599 109.791 10.6304 110.152 10.6304V10.9761C109.43 10.9918 108.786 11.0546 108.22 11.1724C108.157 10.9368 108.134 10.5676 108.134 10.0649C107.764 10.4341 107.38 10.709 106.995 10.8975C106.61 11.086 106.193 11.1724 105.777 11.1724C104.984 11.1724 104.3 10.8504 103.719 10.2141C103.146 9.57786 102.855 8.80021 102.855 7.88902C102.855 6.89142 103.146 6.08234 103.735 5.46964C104.324 4.85695 105.023 4.54274 105.84 4.54274C106.256 4.54274 106.649 4.61344 107.018 4.77054C107.38 4.91193 107.725 5.13187 108.055 5.43822ZM108.055 5.87025C107.725 5.58747 107.395 5.37538 107.065 5.23399C106.735 5.0926 106.398 5.0219 106.068 5.0219C105.502 5.0219 105.031 5.24184 104.654 5.67387C104.277 6.1059 104.088 6.82072 104.088 7.80261C104.088 8.80021 104.285 9.53859 104.67 10.0099C105.054 10.4812 105.534 10.7247 106.107 10.7247C106.484 10.7247 106.838 10.6383 107.16 10.4576C107.482 10.277 107.78 10.0099 108.055 9.64855V5.87025Z" fill="black"/>
<path d="M113.145 4.53496V8.80816C113.145 9.46013 113.153 9.87645 113.177 10.0414C113.2 10.2142 113.271 10.3399 113.397 10.4342C113.522 10.5206 113.742 10.5677 114.064 10.5677H114.222V10.9133H110.922V10.5677H111.174C111.527 10.5677 111.755 10.5127 111.865 10.4106C111.975 10.3085 112.038 10.1828 112.054 10.0414C112.069 9.90001 112.077 9.48369 112.077 8.80029V6.94649C112.077 6.23167 112.046 5.79178 111.975 5.62682C111.904 5.46972 111.818 5.3676 111.708 5.32832C111.598 5.28904 111.402 5.26548 111.119 5.26548H110.915V4.91986C111.802 4.83345 112.493 4.69992 112.98 4.5271H113.145V4.53496ZM111.7 1.40861C111.7 1.19652 111.779 1.00799 111.928 0.850891C112.077 0.693788 112.266 0.615234 112.478 0.615234C112.69 0.615234 112.878 0.693788 113.028 0.850891C113.177 1.00799 113.255 1.18867 113.255 1.40861C113.255 1.62856 113.177 1.81707 113.028 1.96632C112.878 2.12342 112.698 2.20198 112.478 2.20198C112.266 2.20198 112.077 2.12342 111.928 1.96632C111.779 1.80922 111.7 1.62856 111.7 1.40861Z" fill="black"/>
<path d="M117.921 11.1645H117.489L115.313 6.24723C115.101 5.77592 114.928 5.46957 114.803 5.34389C114.677 5.21821 114.473 5.14751 114.19 5.1318V4.78618H116.963V5.12395C116.656 5.12395 116.452 5.14752 116.334 5.2025C116.224 5.24963 116.169 5.3439 116.169 5.48529C116.169 5.59526 116.272 5.86233 116.468 6.2865L118.125 10.0098L119.618 6.69497C119.853 6.16868 119.971 5.82305 119.971 5.65809C119.971 5.32032 119.72 5.14751 119.225 5.12395V4.77832H121.291V5.12395C121.04 5.13966 120.82 5.24178 120.647 5.44601C120.474 5.64239 120.231 6.08228 119.924 6.77353L117.921 11.1645Z" fill="black"/>
<path d="M124.165 4.53496V8.80816C124.165 9.46013 124.173 9.87645 124.197 10.0414C124.22 10.2142 124.291 10.3399 124.417 10.4342C124.542 10.5206 124.762 10.5677 125.084 10.5677H125.242V10.9133H121.942V10.5677H122.194C122.547 10.5677 122.775 10.5127 122.885 10.4106C122.995 10.3085 123.058 10.1828 123.074 10.0414C123.089 9.90001 123.097 9.48369 123.097 8.80029V6.94649C123.097 6.23167 123.066 5.79178 122.995 5.62682C122.924 5.46972 122.838 5.3676 122.728 5.32832C122.618 5.28904 122.422 5.26548 122.139 5.26548H121.935V4.91986C122.822 4.83345 123.513 4.69992 124 4.5271H124.165V4.53496ZM122.72 1.40861C122.72 1.19652 122.799 1.00799 122.948 0.850891C123.097 0.693788 123.286 0.615234 123.498 0.615234C123.71 0.615234 123.898 0.693788 124.048 0.850891C124.197 1.00799 124.275 1.18867 124.275 1.40861C124.275 1.62856 124.197 1.81707 124.048 1.96632C123.898 2.12342 123.718 2.20198 123.498 2.20198C123.286 2.20198 123.097 2.12342 122.948 1.96632C122.791 1.80922 122.72 1.62856 122.72 1.40861Z" fill="black"/>
<path d="M130.828 5.43822V3.04242C130.828 2.39045 130.82 1.97412 130.804 1.80916C130.788 1.63635 130.718 1.51067 130.592 1.41641C130.466 1.33 130.246 1.28287 129.924 1.28287H129.767V0.937246C130.372 0.921536 131.032 0.819424 131.754 0.623047H131.912V8.8709C131.912 9.58572 131.927 10.0177 131.951 10.1748C131.974 10.3319 132.053 10.4419 132.186 10.5205C132.32 10.599 132.564 10.6304 132.925 10.6304V10.9761C132.202 10.9918 131.558 11.0546 130.992 11.1724C130.93 10.9368 130.906 10.5676 130.906 10.0649C130.537 10.4341 130.152 10.709 129.767 10.8975C129.382 11.086 128.966 11.1724 128.55 11.1724C127.756 11.1724 127.073 10.8504 126.492 10.2141C125.918 9.57786 125.627 8.80021 125.627 7.88902C125.627 6.89142 125.918 6.08234 126.507 5.46964C127.096 4.85695 127.795 4.54274 128.612 4.54274C129.029 4.54274 129.421 4.61344 129.791 4.77054C130.144 4.91193 130.498 5.13187 130.828 5.43822ZM130.828 5.87025C130.498 5.58747 130.168 5.37538 129.838 5.23399C129.508 5.0926 129.17 5.0219 128.84 5.0219C128.275 5.0219 127.803 5.24184 127.426 5.67387C127.049 6.1059 126.861 6.82072 126.861 7.80261C126.861 8.80021 127.057 9.53859 127.442 10.0099C127.827 10.4812 128.306 10.7247 128.879 10.7247C129.257 10.7247 129.61 10.6383 129.932 10.4576C130.254 10.277 130.553 10.0099 130.828 9.64855V5.87025Z" fill="black"/>
<path d="M139.412 4.78711V8.80889C139.412 9.47657 139.42 9.90074 139.444 10.0657C139.467 10.2385 139.538 10.3642 139.664 10.4506C139.789 10.537 140.017 10.5763 140.347 10.5763V10.9219C139.585 10.9298 139.035 11.0083 138.682 11.1654H138.595C138.438 10.8905 138.352 10.4192 138.344 9.74365C138.038 10.215 137.692 10.5763 137.299 10.8119C136.906 11.0554 136.474 11.1733 136.003 11.1733C135.595 11.1733 135.233 11.079 134.919 10.8905C134.605 10.702 134.393 10.4742 134.275 10.2071C134.157 9.94002 134.102 9.53156 134.102 8.98956V6.90011C134.102 6.19315 134.086 5.76113 134.063 5.60403C134.039 5.44693 133.961 5.3291 133.827 5.25841C133.694 5.17986 133.45 5.14844 133.097 5.14844V4.80281H135.178V9.0524C135.178 9.46872 135.202 9.77507 135.257 9.96359C135.304 10.1521 135.437 10.3171 135.642 10.4584C135.846 10.5998 136.082 10.6705 136.357 10.6705C136.741 10.6705 137.111 10.5449 137.456 10.2935C137.81 10.0421 138.045 9.77506 138.171 9.49228C138.297 9.2095 138.36 8.8089 138.36 8.28261V6.90011C138.36 6.23243 138.352 5.82398 138.336 5.68259C138.32 5.54119 138.257 5.4155 138.148 5.30553C138.038 5.19556 137.802 5.14058 137.448 5.14058H137.291V4.79496H139.412V4.78711Z" fill="black"/>
<path d="M147.189 9.79075H147.464C147.417 10.647 147.001 11.0711 146.207 11.0711C145.87 11.0711 145.602 10.9847 145.406 10.8041C145.21 10.6234 145.084 10.3563 145.021 10.0028C144.518 10.3563 144.063 10.6234 143.654 10.8041C143.246 10.9847 142.877 11.0711 142.547 11.0711C142.13 11.0711 141.777 10.9533 141.479 10.7098C141.18 10.4663 141.031 10.1521 141.031 9.75933C141.031 9.24874 141.282 8.79315 141.785 8.40825C142.288 8.02335 142.979 7.64631 143.866 7.28497L145.029 6.81366V6.51517C145.029 6.091 144.998 5.78465 144.95 5.59613C144.895 5.4076 144.754 5.23479 144.526 5.08554C144.298 4.93629 143.992 4.85775 143.623 4.85775C142.877 4.85775 142.46 5.10911 142.374 5.60398C142.295 6.11456 142.083 6.36592 141.746 6.36592C141.439 6.36592 141.29 6.22453 141.29 5.93389C141.29 5.65111 141.494 5.34476 141.895 5.01484C142.295 4.68493 142.932 4.52783 143.78 4.52783C144.416 4.52783 144.903 4.62994 145.257 4.82632C145.602 5.0227 145.838 5.2505 145.948 5.50972C146.058 5.76108 146.113 6.15383 146.113 6.68012V9.16234C146.113 9.74362 146.144 10.1128 146.199 10.2778C146.262 10.4427 146.388 10.5291 146.592 10.5291C146.899 10.5291 147.103 10.2856 147.189 9.79075ZM145.013 7.175L144.196 7.50491C142.908 8.03121 142.264 8.69104 142.264 9.4844C142.264 9.79861 142.343 10.05 142.508 10.2463C142.672 10.4427 142.885 10.537 143.152 10.537C143.387 10.537 143.654 10.4584 143.969 10.3013C144.275 10.1442 144.628 9.91643 145.005 9.60223V7.175H145.013Z" fill="black"/>
<path d="M150.049 0.623047V8.81593C150.049 9.4679 150.057 9.88423 150.073 10.0492C150.088 10.222 150.159 10.3477 150.285 10.4419C150.41 10.5283 150.63 10.5755 150.952 10.5755H151.133V10.9211H147.85V10.5755H148.062C148.36 10.5755 148.572 10.5362 148.706 10.4498C148.831 10.3712 148.91 10.2534 148.934 10.1042C148.957 9.95492 148.973 9.52289 148.973 8.81593V2.75178C148.973 2.10766 148.918 1.69919 148.8 1.53423C148.682 1.36927 148.407 1.28287 147.96 1.28287V0.937247C148.266 0.937247 148.619 0.905822 149.036 0.835126C149.444 0.76443 149.735 0.693743 149.884 0.623047H150.049Z" fill="black"/>
<path d="M153.984 4.53496V8.80816C153.984 9.46013 153.992 9.87645 154.015 10.0414C154.039 10.2142 154.109 10.3399 154.235 10.4342C154.361 10.5206 154.581 10.5677 154.903 10.5677H155.06V10.9133H151.761V10.5677H152.012C152.366 10.5677 152.593 10.5127 152.703 10.4106C152.813 10.3085 152.876 10.1828 152.892 10.0414C152.908 9.90001 152.916 9.48369 152.916 8.80029V6.94649C152.916 6.23167 152.884 5.79178 152.813 5.62682C152.743 5.46972 152.656 5.3676 152.546 5.32832C152.436 5.28904 152.24 5.26548 151.957 5.26548H151.753V4.91986C152.641 4.83345 153.332 4.69992 153.819 4.5271H153.984V4.53496ZM152.538 1.40861C152.538 1.19652 152.617 1.00799 152.766 0.850891C152.916 0.693788 153.104 0.615234 153.316 0.615234C153.528 0.615234 153.717 0.693788 153.866 0.850891C154.015 1.00799 154.094 1.18867 154.094 1.40861C154.094 1.62856 154.015 1.81707 153.866 1.96632C153.717 2.12342 153.536 2.20198 153.316 2.20198C153.104 2.20198 152.916 2.12342 152.766 1.96632C152.617 1.80922 152.538 1.62856 152.538 1.40861Z" fill="black"/>
<path d="M159.247 5.12463H157.401V8.83225C157.401 9.39782 157.424 9.78271 157.479 9.97909C157.526 10.1755 157.636 10.3326 157.801 10.4583C157.966 10.5761 158.139 10.6389 158.32 10.6389C158.681 10.6389 158.987 10.4347 159.255 10.0262L159.498 10.1676C159.341 10.4975 159.113 10.7489 158.815 10.9139C158.516 11.0788 158.21 11.1652 157.896 11.1652C157.534 11.1652 157.22 11.0552 156.945 10.851C156.67 10.6389 156.505 10.3876 156.435 10.1048C156.364 9.82199 156.332 9.31926 156.332 8.60444V5.12463H155.445V4.779C155.853 4.77114 156.222 4.59833 156.545 4.26056C156.867 3.92278 157.079 3.45934 157.165 2.85449H157.409V4.779H159.255V5.12463H159.247Z" fill="black"/>
<path d="M163.944 9.75849L165.366 6.34938C165.57 5.84665 165.673 5.57173 165.673 5.51674C165.673 5.26538 165.398 5.1397 164.84 5.12398V4.77836H167V5.12398C166.662 5.1397 166.419 5.2261 166.27 5.39106C166.112 5.55601 165.924 5.9095 165.696 6.46721L162.962 13.0655C162.703 13.6939 162.475 14.1259 162.271 14.3459C162.075 14.5737 161.855 14.6836 161.611 14.6836C161.289 14.6836 161.124 14.5344 161.124 14.2438C161.124 13.906 161.384 13.6153 161.902 13.3797C162.208 13.2462 162.413 13.1283 162.515 13.0341C162.617 12.9398 162.719 12.767 162.821 12.5156L163.402 11.0546L161.093 6.11372C160.889 5.68169 160.716 5.40677 160.582 5.28895C160.449 5.17112 160.221 5.11613 159.891 5.11613V4.77051H162.703V5.12398C162.208 5.1397 161.965 5.24181 161.965 5.43033C161.965 5.50888 162.059 5.7524 162.256 6.16086L163.944 9.75849Z" fill="black"/>
</svg>
