<svg width="15" height="15" viewBox="0 0 15 15" fill="none" xmlns="http://www.w3.org/2000/svg">
<circle cx="7.5" cy="7.5" r="7.5" fill="#EBEAEA"/>
<path d="M10 10.5H4.5V5H7.805L8.305 4.5H4.5C4.36739 4.5 4.24021 4.55268 4.14645 4.64645C4.05268 4.74021 4 4.86739 4 5V10.5C4 10.6326 4.05268 10.7598 4.14645 10.8536C4.24021 10.9473 4.36739 11 4.5 11H10C10.1326 11 10.2598 10.9473 10.3536 10.8536C10.4473 10.7598 10.5 10.6326 10.5 10.5V6.75L10 7.25V10.5Z" fill="#6F6E6E"/>
<path d="M11.3833 4.46078L10.5408 3.61828C10.5035 3.58079 10.459 3.55104 10.4101 3.53074C10.3612 3.51045 10.3088 3.5 10.2558 3.5C10.2029 3.5 10.1505 3.51045 10.1016 3.53074C10.0527 3.55104 10.0082 3.58079 9.97084 3.61828L6.54334 7.06578L6.26584 8.26828C6.25402 8.32657 6.25526 8.38675 6.26948 8.44451C6.2837 8.50226 6.31054 8.55614 6.34807 8.60228C6.38561 8.64842 6.4329 8.68567 6.48655 8.71134C6.5402 8.73702 6.59887 8.75049 6.65834 8.75078C6.68908 8.75417 6.7201 8.75417 6.75084 8.75078L7.96334 8.48328L11.3833 5.03078C11.4208 4.99339 11.4506 4.94897 11.4709 4.90006C11.4912 4.85116 11.5016 4.79873 11.5016 4.74578C11.5016 4.69283 11.4912 4.6404 11.4709 4.59149C11.4506 4.54259 11.4208 4.49817 11.3833 4.46078V4.46078ZM7.70334 8.02078L6.78834 8.22328L7.00084 7.31578L9.58084 4.71828L10.2858 5.42328L7.70334 8.02078ZM10.5683 5.14078L9.86334 4.43578L10.2508 4.04078L10.9608 4.75078L10.5683 5.14078Z" fill="#6F6E6E"/>
</svg>
