<svg width="33" height="33" viewBox="0 0 33 32" fill="none" xmlns="http://www.w3.org/2000/svg">
<path d="M12.072 22C11.376 22 11.028 21.646 11.028 20.938V10.462C11.028 10.054 11.13 9.778 11.334 9.634C11.55 9.478 11.862 9.4 12.27 9.4C12.822 9.4 13.242 9.64 13.53 10.12L16.716 15.448L19.866 10.138C20.034 9.838 20.226 9.64 20.442 9.544C20.67 9.448 20.964 9.4 21.324 9.4C22.032 9.4 22.386 9.754 22.386 10.462V20.938C22.386 21.646 22.032 22 21.324 22C20.616 22 20.262 21.646 20.262 20.938V13.018L17.724 17.41C17.472 17.902 17.13 18.148 16.698 18.148C16.266 18.148 15.924 17.902 15.672 17.41L13.116 13.018V20.938C13.116 21.646 12.768 22 12.072 22Z" fill="#FF9BA0"/>
<circle cx="16.75" cy="16" r="15" stroke="#FF9BA0" stroke-width="2"/>
</svg>
