<svg width="22" height="24" viewBox="0 0 22 24" fill="none" xmlns="http://www.w3.org/2000/svg">
<path d="M19.5506 12.002V21.8106C19.5506 22.1954 19.2324 22.5102 18.8434 22.5102H3.15741C2.76844 22.5102 2.4502 22.1954 2.4502 21.8106V12.002" stroke="#FF9BA0" stroke-width="1.8" stroke-miterlimit="10"/>
<path d="M20.2928 5.81396H1.70721C1.31663 5.81396 1 6.12719 1 6.51358V10.9841C1 11.3705 1.31663 11.6837 1.70721 11.6837H20.2928C20.6834 11.6837 21 11.3705 21 10.9841V6.51358C21 6.12719 20.6834 5.81396 20.2928 5.81396Z" stroke="#FF9BA0" stroke-width="1.8" stroke-miterlimit="10"/>
<path d="M11.0005 5.32072C11.0005 5.32072 11.4566 -0.0138513 14.3951 1.172C16.591 2.06051 15.1943 5.91189 11.0005 5.32072Z" stroke="#FF9BA0" stroke-width="1.8" stroke-miterlimit="10"/>
<path d="M11.0004 5.32072C11.0004 5.32072 10.5407 -0.0138513 7.60578 1.172C5.40988 2.06051 6.80662 5.91189 11.0004 5.32072Z" stroke="#FF9BA0" stroke-width="1.8" stroke-miterlimit="10"/>
<path d="M8.50342 5.91553V23.0001" stroke="#FF9BA0" stroke-width="1.8" stroke-miterlimit="10"/>
<path d="M13.4966 5.91553V23.0001" stroke="#FF9BA0" stroke-width="1.8" stroke-miterlimit="10"/>
</svg>
