<svg width="16" height="16" viewBox="0 0 16 16" fill="none" xmlns="http://www.w3.org/2000/svg">
<circle cx="8" cy="8" r="7.5" stroke="#717171"/>
<path opacity="0.8" d="M5.28854 5.79833C5.28717 5.83062 5.29243 5.86286 5.30397 5.89305C5.31552 5.92323 5.33312 5.95074 5.3557 5.97388C5.37827 5.99701 5.40534 6.01529 5.43523 6.02757C5.46513 6.03986 5.49722 6.0459 5.52954 6.04533H6.35454C6.49254 6.04533 6.60254 5.93233 6.62054 5.79533C6.71054 5.13933 7.16054 4.66133 7.96254 4.66133C8.64854 4.66133 9.27654 5.00433 9.27654 5.82933C9.27654 6.46433 8.90254 6.75633 8.31154 7.20033C7.63854 7.68933 7.10554 8.26033 7.14354 9.18733L7.14654 9.40433C7.14759 9.46994 7.17439 9.5325 7.22117 9.57853C7.26794 9.62455 7.33093 9.65034 7.39654 9.65033H8.20754C8.27385 9.65033 8.33744 9.62399 8.38432 9.57711C8.4312 9.53022 8.45754 9.46663 8.45754 9.40033V9.29533C8.45754 8.57733 8.73054 8.36833 9.46754 7.80933C10.0765 7.34633 10.7115 6.83233 10.7115 5.75333C10.7115 4.24233 9.43554 3.51233 8.03854 3.51233C6.77154 3.51233 5.38354 4.10233 5.28854 5.79833ZM6.84554 11.5613C6.84554 12.0943 7.27054 12.4883 7.85554 12.4883C8.46454 12.4883 8.88354 12.0943 8.88354 11.5613C8.88354 11.0093 8.46354 10.6213 7.85454 10.6213C7.27054 10.6213 6.84554 11.0093 6.84554 11.5613Z" fill="#717171"/>
</svg>
