<svg width="24" height="24" viewBox="0 0 24 24" fill="none" xmlns="http://www.w3.org/2000/svg">
<circle cx="12" cy="12" r="11.5" stroke="#BDBDBD"/>
<path d="M7.93294 8.69755C7.93088 8.746 7.93876 8.79434 7.95608 8.83963C7.97341 8.88491 7.99981 8.92617 8.03367 8.96088C8.06753 8.99558 8.10813 9.02299 8.15297 9.04142C8.19782 9.05985 8.24596 9.06892 8.29444 9.06805H9.53194C9.73894 9.06805 9.90394 8.89855 9.93094 8.69305C10.0659 7.70905 10.7409 6.99205 11.9439 6.99205C12.9729 6.99205 13.9149 7.50655 13.9149 8.74405C13.9149 9.69655 13.3539 10.1346 12.4674 10.8006C11.4579 11.5341 10.6584 12.3906 10.7154 13.7811L10.7199 14.1066C10.7215 14.205 10.7617 14.2988 10.8319 14.3678C10.902 14.4369 10.9965 14.4756 11.0949 14.4756H12.3114C12.4109 14.4756 12.5063 14.436 12.5766 14.3657C12.6469 14.2954 12.6864 14.2 12.6864 14.1006V13.9431C12.6864 12.8661 13.0959 12.5526 14.2014 11.7141C15.1149 11.0196 16.0674 10.2486 16.0674 8.63005C16.0674 6.36355 14.1534 5.26855 12.0579 5.26855C10.1574 5.26855 8.07544 6.15355 7.93294 8.69755ZM10.2684 17.3421C10.2684 18.1416 10.9059 18.7326 11.7834 18.7326C12.6969 18.7326 13.3254 18.1416 13.3254 17.3421C13.3254 16.5141 12.6954 15.9321 11.7819 15.9321C10.9059 15.9321 10.2684 16.5141 10.2684 17.3421Z" fill="#BDBDBD"/>
</svg>
