<svg width="24" height="24" viewBox="0 0 24 24" fill="none" xmlns="http://www.w3.org/2000/svg">
<path d="M7.93918 2.4548C7.65797 2.7361 7.5 3.11756 7.5 3.5153C7.5 3.91305 7.65797 4.29451 7.93918 4.5758L15.3642 12.0008L7.93918 19.4258C7.66594 19.7087 7.51475 20.0876 7.51817 20.4809C7.52159 20.8742 7.67934 21.2504 7.95745 21.5285C8.23556 21.8066 8.61178 21.9644 9.00508 21.9678C9.39837 21.9712 9.77728 21.82 10.0602 21.5468L18.5457 13.0613C18.8269 12.78 18.9849 12.3986 18.9849 12.0008C18.9849 11.6031 18.8269 11.2216 18.5457 10.9403L10.0602 2.4548C9.77889 2.1736 9.39743 2.01562 8.99968 2.01562C8.60193 2.01562 8.22047 2.1736 7.93918 2.4548Z" fill="#717171"/>
</svg>
