<svg width="24" height="24" viewBox="0 0 24 24" fill="none" xmlns="http://www.w3.org/2000/svg">
<rect width="24" height="24" rx="12" fill="#F7F7F7"/>
<path d="M9.29279 5.63654C9.10532 5.82406 9 6.07837 9 6.34354C9 6.6087 9.10532 6.86301 9.29279 7.05054L14.2428 12.0005L9.29279 16.9505C9.11063 17.1391 9.00983 17.3917 9.01211 17.6539C9.01439 17.9161 9.11956 18.1669 9.30497 18.3524C9.49038 18.5378 9.74119 18.6429 10.0034 18.6452C10.2656 18.6475 10.5182 18.5467 10.7068 18.3645L16.3638 12.7075C16.5513 12.52 16.6566 12.2657 16.6566 12.0005C16.6566 11.7354 16.5513 11.4811 16.3638 11.2935L10.7068 5.63654C10.5193 5.44907 10.265 5.34375 9.99979 5.34375C9.73462 5.34375 9.48031 5.44907 9.29279 5.63654Z" fill="#BDBDBD"/>
</svg>
