<svg width="8" height="13" viewBox="0 0 8 13" fill="none" xmlns="http://www.w3.org/2000/svg">
<path d="M1.06814 1.11429C0.901016 1.28146 0.807129 1.50817 0.807129 1.74456C0.807129 1.98095 0.901016 2.20766 1.06814 2.37484L5.48097 6.78767L1.06814 11.2005C0.905752 11.3686 0.815895 11.5938 0.817927 11.8276C0.819958 12.0613 0.913714 12.2849 1.079 12.4502C1.24429 12.6155 1.46788 12.7092 1.70163 12.7113C1.93537 12.7133 2.16056 12.6234 2.3287 12.4611L7.3718 7.41795C7.53893 7.25077 7.63282 7.02406 7.63282 6.78767C7.63282 6.55128 7.53893 6.32457 7.3718 6.15739L2.3287 1.11429C2.16152 0.947158 1.93481 0.853271 1.69842 0.853271C1.46203 0.853271 1.23532 0.947158 1.06814 1.11429Z" fill="#E0E0E0"/>
</svg>
