<svg width="82" height="58" viewBox="0 0 82 58" fill="none" xmlns="http://www.w3.org/2000/svg">
<g filter="url(#filter0_dd_2994_48904)">
<path d="M43.6836 23.3359L51.0007 57C51.0007 57 63.9856 46.231 62.8561 41.3042C61.7265 36.3775 51.9104 20.9216 51.9104 20.9216L43.6836 23.3359Z" fill="#FCD56B"/>
<path d="M45.0286 24.1336C47.1278 25.943 58.1935 32.1613 66.8201 34.4285C72.2829 35.8618 76.8211 33.1532 76.8211 33.1532C76.8211 33.1532 77.5858 28.1502 80.7746 15.7898C83.9633 3.42947 52.2858 12.073 52.2858 12.073L42.6746 23.654" fill="#FAD675"/>
<path d="M66.32 22.5961C71.1031 22.7977 74.3818 20.1545 74.3818 20.1545C74.3818 20.1545 73.7471 16.6394 72.6575 5.91941C71.5679 -4.80054 53.605 4.99838 49.7965 7.30368C47.2225 8.86235 44.2937 13.9199 44.2937 13.9199L41.3198 24.1439C41.3198 24.1439 57.4935 22.2255 66.32 22.5961Z" fill="#FFE08A"/>
<path d="M45.1985 23.8669C45.1985 23.8669 51.8609 21.6978 55.6144 20.0901C59.098 18.5969 72.3728 15.3542 74.382 20.1501C75.4216 22.6352 68.7442 22.6352 60.3025 23.0603C52.4656 23.4527 45.1985 23.8669 45.1985 23.8669Z" fill="#EFB048"/>
<path d="M45.0287 24.1318C47.1279 25.9412 58.1935 32.1595 66.8201 34.4267C72.283 35.86 76.8212 33.1514 76.8212 33.1514C76.8212 33.1514 77.6658 30.6881 69.1992 29.1512C64.531 28.301 45.0237 24.1373 45.0237 24.1373L45.0287 24.1318Z" fill="#EFB048"/>
</g>
<g filter="url(#filter1_dd_2994_48904)">
<path d="M38.321 23.3359L31.0038 57C31.0038 57 18.0189 46.231 19.1485 41.3042C20.2781 36.3775 30.0942 20.9216 30.0942 20.9216L38.321 23.3359Z" fill="#FCD56B"/>
<path d="M36.9715 24.1336C34.8723 25.943 23.8067 32.1613 15.1801 34.4285C9.71721 35.8618 5.17899 33.1532 5.17899 33.1532C5.17899 33.1532 4.41429 28.1502 1.22554 15.7898C-1.9632 3.42947 29.7143 12.073 29.7143 12.073L39.3256 23.654" fill="#FAD675"/>
<path d="M15.6851 22.5961C10.902 22.7977 7.62329 20.1545 7.62329 20.1545C7.62329 20.1545 8.25804 16.6394 9.34761 5.91941C10.4372 -4.80054 28.4001 4.99838 32.2086 7.30368C34.7826 8.86235 37.7115 13.9199 37.7115 13.9199L40.6853 24.1439C40.6853 24.1439 24.5117 22.2255 15.6851 22.5961Z" fill="#FFE08A"/>
<path d="M36.8066 23.8669C36.8066 23.8669 30.1442 21.6978 26.3907 20.0901C22.907 18.5969 9.63225 15.3542 7.62304 20.1501C6.58345 22.6352 13.2608 22.6352 21.7025 23.0603C29.5394 23.4527 36.8066 23.8669 36.8066 23.8669Z" fill="#EFB048"/>
<path d="M36.9714 24.1318C34.8722 25.9412 23.8066 32.1595 15.18 34.4267C9.7171 35.86 5.17889 33.1514 5.17889 33.1514C5.17889 33.1514 4.33422 30.6881 12.8009 29.1512C17.4691 28.301 36.9764 24.1373 36.9764 24.1373L36.9714 24.1318Z" fill="#EFB048"/>
</g>
<g filter="url(#filter2_dd_2994_48904)">
<path d="M45.8881 18.0402C45.5432 16.378 45.1634 14.9447 44.9385 14.1272C44.8235 13.7185 44.4287 13.4623 44.0089 13.5168C43.1992 13.6313 41.8747 13.8166 40.9301 13.9419C39.9854 13.8166 38.661 13.6313 37.8513 13.5168C37.4314 13.4569 37.0366 13.7185 36.9216 14.1272C36.6967 14.9393 36.3169 16.378 35.972 18.0402C35.6421 19.6153 36.9416 23.2939 37.5314 24.8417C37.6863 25.2559 38.1062 25.5012 38.541 25.4467C39.3107 25.3486 40.3653 25.2287 40.9301 25.1633C41.4948 25.2287 42.5494 25.3486 43.3191 25.4467C43.754 25.5012 44.1738 25.2559 44.3287 24.8417C44.9185 23.2939 46.213 19.6153 45.8881 18.0402Z" fill="#FFE08A"/>
</g>
<defs>
<filter id="filter0_dd_2994_48904" x="40.3198" y="0" width="41.6804" height="58" filterUnits="userSpaceOnUse" color-interpolation-filters="sRGB">
<feFlood flood-opacity="0" result="BackgroundImageFix"/>
<feColorMatrix in="SourceAlpha" type="matrix" values="0 0 0 0 0 0 0 0 0 0 0 0 0 0 0 0 0 0 127 0" result="hardAlpha"/>
<feOffset dx="-1" dy="-1"/>
<feComposite in2="hardAlpha" operator="out"/>
<feColorMatrix type="matrix" values="0 0 0 0 1 0 0 0 0 1 0 0 0 0 1 0 0 0 1 0"/>
<feBlend mode="normal" in2="BackgroundImageFix" result="effect1_dropShadow_2994_48904"/>
<feColorMatrix in="SourceAlpha" type="matrix" values="0 0 0 0 0 0 0 0 0 0 0 0 0 0 0 0 0 0 127 0" result="hardAlpha"/>
<feOffset dx="1" dy="1"/>
<feComposite in2="hardAlpha" operator="out"/>
<feColorMatrix type="matrix" values="0 0 0 0 0.937255 0 0 0 0 0.690196 0 0 0 0 0.282353 0 0 0 1 0"/>
<feBlend mode="normal" in2="effect1_dropShadow_2994_48904" result="effect2_dropShadow_2994_48904"/>
<feBlend mode="normal" in="SourceGraphic" in2="effect2_dropShadow_2994_48904" result="shape"/>
</filter>
<filter id="filter1_dd_2994_48904" x="0" y="0" width="41.6853" height="58" filterUnits="userSpaceOnUse" color-interpolation-filters="sRGB">
<feFlood flood-opacity="0" result="BackgroundImageFix"/>
<feColorMatrix in="SourceAlpha" type="matrix" values="0 0 0 0 0 0 0 0 0 0 0 0 0 0 0 0 0 0 127 0" result="hardAlpha"/>
<feOffset dx="-1" dy="-1"/>
<feComposite in2="hardAlpha" operator="out"/>
<feColorMatrix type="matrix" values="0 0 0 0 1 0 0 0 0 1 0 0 0 0 1 0 0 0 1 0"/>
<feBlend mode="normal" in2="BackgroundImageFix" result="effect1_dropShadow_2994_48904"/>
<feColorMatrix in="SourceAlpha" type="matrix" values="0 0 0 0 0 0 0 0 0 0 0 0 0 0 0 0 0 0 127 0" result="hardAlpha"/>
<feOffset dx="1" dy="1"/>
<feComposite in2="hardAlpha" operator="out"/>
<feColorMatrix type="matrix" values="0 0 0 0 0.937255 0 0 0 0 0.690196 0 0 0 0 0.282353 0 0 0 1 0"/>
<feBlend mode="normal" in2="effect1_dropShadow_2994_48904" result="effect2_dropShadow_2994_48904"/>
<feBlend mode="normal" in="SourceGraphic" in2="effect2_dropShadow_2994_48904" result="shape"/>
</filter>
<filter id="filter2_dd_2994_48904" x="34.9192" y="12.5083" width="12.0205" height="13.9458" filterUnits="userSpaceOnUse" color-interpolation-filters="sRGB">
<feFlood flood-opacity="0" result="BackgroundImageFix"/>
<feColorMatrix in="SourceAlpha" type="matrix" values="0 0 0 0 0 0 0 0 0 0 0 0 0 0 0 0 0 0 127 0" result="hardAlpha"/>
<feOffset dx="-1" dy="-1"/>
<feComposite in2="hardAlpha" operator="out"/>
<feColorMatrix type="matrix" values="0 0 0 0 1 0 0 0 0 1 0 0 0 0 1 0 0 0 1 0"/>
<feBlend mode="normal" in2="BackgroundImageFix" result="effect1_dropShadow_2994_48904"/>
<feColorMatrix in="SourceAlpha" type="matrix" values="0 0 0 0 0 0 0 0 0 0 0 0 0 0 0 0 0 0 127 0" result="hardAlpha"/>
<feOffset dx="1" dy="1"/>
<feComposite in2="hardAlpha" operator="out"/>
<feColorMatrix type="matrix" values="0 0 0 0 0.937255 0 0 0 0 0.690196 0 0 0 0 0.282353 0 0 0 1 0"/>
<feBlend mode="normal" in2="effect1_dropShadow_2994_48904" result="effect2_dropShadow_2994_48904"/>
<feBlend mode="normal" in="SourceGraphic" in2="effect2_dropShadow_2994_48904" result="shape"/>
</filter>
</defs>
</svg>
