<svg width="81" height="57" viewBox="0 0 81 57" fill="none" xmlns="http://www.w3.org/2000/svg">
<path d="M43.6838 23.3368L51.001 56.9999C51.001 56.9999 63.9859 46.2312 62.8563 41.3046C61.7268 36.3781 51.9106 20.9226 51.9106 20.9226L43.6838 23.3368Z" fill="#F7F7F7"/>
<path d="M45.0284 24.1332C47.1276 25.9425 58.1932 32.1607 66.8199 34.4277C72.2827 35.861 76.821 33.1525 76.821 33.1525C76.821 33.1525 77.5857 28.1496 80.7744 15.7896C83.9632 3.42964 52.2856 12.0729 52.2856 12.0729L42.6743 23.6536" fill="#F7F7F7"/>
<path d="M66.32 22.5955C71.1032 22.7971 74.3819 20.154 74.3819 20.154C74.3819 20.154 73.7471 16.6389 72.6576 5.91926C71.568 -4.80037 53.605 4.99826 49.7965 7.3035C47.2225 8.86212 44.2937 13.9195 44.2937 13.9195L41.3198 24.1432C41.3198 24.1432 57.4935 22.2249 66.32 22.5955Z" fill="#F7F7F7"/>
<path d="M45.1985 23.8655C45.1985 23.8655 51.8609 21.6965 55.6144 20.0888C59.098 18.5956 72.3729 15.353 74.3821 20.1488C75.4217 22.6339 68.7443 22.6339 60.3026 23.0589C52.4656 23.4513 45.1985 23.8655 45.1985 23.8655Z" fill="#EAE9E9"/>
<path d="M45.0284 24.1328C47.1276 25.9421 58.1933 32.1603 66.8199 34.4274C72.2828 35.8606 76.821 33.1521 76.821 33.1521C76.821 33.1521 77.6657 30.6888 69.199 29.152C64.5308 28.3019 45.0234 24.1383 45.0234 24.1383L45.0284 24.1328Z" fill="#EAE9E9"/>
<g filter="url(#filter0_d_2994_48968)">
<path d="M38.321 23.3368L31.0039 56.9999C31.0039 56.9999 18.0189 46.2312 19.1485 41.3046C20.2781 36.3781 30.0942 20.9226 30.0942 20.9226L38.321 23.3368Z" fill="#F7F7F7"/>
<path d="M36.9716 24.1332C34.8724 25.9425 23.8067 32.1607 15.1801 34.4277C9.71722 35.861 5.179 33.1525 5.179 33.1525C5.179 33.1525 4.4143 28.1496 1.22554 15.7896C-1.96321 3.42964 29.7144 12.0729 29.7144 12.0729L39.3256 23.6536" fill="#F7F7F7"/>
<path d="M15.6849 22.5955C10.9018 22.7971 7.62305 20.154 7.62305 20.154C7.62305 20.154 8.2578 16.6389 9.34737 5.91926C10.4369 -4.80037 28.3999 4.99826 32.2084 7.3035C34.7824 8.86212 37.7113 13.9195 37.7113 13.9195L40.6851 24.1432C40.6851 24.1432 24.5114 22.2249 15.6849 22.5955Z" fill="#F7F7F7"/>
<path d="M36.8066 23.8655C36.8066 23.8655 30.1442 21.6965 26.3907 20.0888C22.9071 18.5956 9.63226 15.353 7.62304 20.1488C6.58345 22.6339 13.2608 22.6339 21.7025 23.0589C29.5395 23.4513 36.8066 23.8655 36.8066 23.8655Z" fill="#EAE9E9"/>
<path d="M36.9715 24.1328C34.8723 25.9421 23.8066 32.1603 15.18 34.4274C9.71711 35.8606 5.17889 33.1521 5.17889 33.1521C5.17889 33.1521 4.33422 30.6888 12.8009 29.152C17.4691 28.3019 36.9765 24.1383 36.9765 24.1383L36.9715 24.1328Z" fill="#EAE9E9"/>
</g>
<path d="M45.8881 18.0399C45.5433 16.3777 45.1634 14.9444 44.9385 14.127C44.8236 13.7182 44.4287 13.4621 44.0089 13.5166C43.1992 13.631 41.8747 13.8163 40.9301 13.9417C39.9854 13.8163 38.661 13.631 37.8513 13.5166C37.4314 13.4566 37.0366 13.7182 36.9216 14.127C36.6967 14.939 36.3169 16.3777 35.972 18.0399C35.6421 19.6148 36.9416 23.2934 37.5314 24.8411C37.6863 25.2553 38.1062 25.5006 38.541 25.4461C39.3107 25.348 40.3653 25.2281 40.9301 25.1627C41.4949 25.2281 42.5494 25.348 43.3191 25.4461C43.754 25.5006 44.1738 25.2553 44.3287 24.8411C44.9185 23.2934 46.213 19.6148 45.8881 18.0399Z" fill="#EAE9E9"/>
<defs>
<filter id="filter0_d_2994_48968" x="0" y="0" width="40.6851" height="56.9998" filterUnits="userSpaceOnUse" color-interpolation-filters="sRGB">
<feFlood flood-opacity="0" result="BackgroundImageFix"/>
<feColorMatrix in="SourceAlpha" type="matrix" values="0 0 0 0 0 0 0 0 0 0 0 0 0 0 0 0 0 0 127 0" result="hardAlpha"/>
<feOffset dx="-1" dy="-1"/>
<feComposite in2="hardAlpha" operator="out"/>
<feColorMatrix type="matrix" values="0 0 0 0 1 0 0 0 0 1 0 0 0 0 1 0 0 0 1 0"/>
<feBlend mode="normal" in2="BackgroundImageFix" result="effect1_dropShadow_2994_48968"/>
<feBlend mode="normal" in="SourceGraphic" in2="effect1_dropShadow_2994_48968" result="shape"/>
</filter>
</defs>
</svg>
