<svg width="24" height="24" viewBox="0 0 24 24" fill="none" xmlns="http://www.w3.org/2000/svg">
<circle cx="12" cy="12" r="12" fill="#EDEDED"/>
<path fill-rule="evenodd" clip-rule="evenodd" d="M14.8658 6.29497C15.0504 6.1061 15.3007 6 15.5616 6C15.8225 6 16.0728 6.1061 16.2574 6.29497L17.7119 7.78444C17.8964 7.97345 18 8.22972 18 8.49692C18 8.76413 17.8964 9.0204 17.7119 9.20941L16.1409 10.8181L16.1342 10.8256L10.0437 16.7783C9.93244 16.8872 9.79778 16.9679 9.65053 17.0139L6.54398 17.9815C6.47091 18.0041 6.39322 18.006 6.31918 17.987C6.24514 17.968 6.17753 17.9287 6.12356 17.8735C6.06958 17.8182 6.03126 17.749 6.01269 17.6732C5.99411 17.5973 5.99597 17.5178 6.01806 17.443L6.95909 14.2751C7.00844 14.1093 7.09872 13.9593 7.2212 13.8397L13.2982 7.89964L14.8658 6.29497ZM13.5862 8.81256L7.80392 14.4646C7.78634 14.4817 7.77336 14.5031 7.76624 14.5268L7.05527 16.9194L9.40473 16.1873C9.42582 16.1807 9.44509 16.169 9.46098 16.1534L15.2393 10.5053L13.5856 8.81256H13.5862ZM15.8428 9.9023L17.1157 8.59945C17.1288 8.58607 17.1392 8.57018 17.1463 8.55269C17.1534 8.53519 17.157 8.51644 17.157 8.4975C17.157 8.47856 17.1534 8.45981 17.1463 8.44231C17.1392 8.42482 17.1288 8.40893 17.1157 8.39555L15.6612 6.90608C15.6481 6.89267 15.6326 6.88203 15.6155 6.87477C15.5984 6.86751 15.5801 6.86378 15.5616 6.86378C15.5431 6.86378 15.5248 6.86751 15.5077 6.87477C15.4906 6.88203 15.4751 6.89267 15.462 6.90608L14.1897 8.20894L15.8428 9.9023Z" fill="#717171"/>
</svg>
