<svg width="28" height="28" viewBox="0 0 28 28" fill="none" xmlns="http://www.w3.org/2000/svg"><path d="M20.85 18.37a5.32 5.32 0 00-3.13-2.09L17 16a8 8 0 002.44-5.71c0-2.87-1.88-5.77-5.48-5.77-3.6 0-5.48 2.9-5.48 5.77A8 8 0 0011 16l-.68.3a5.32 5.32 0 00-3.13 2.09 9 9 0 00-.94 3.13.51.51 0 001 0 7.77 7.77 0 01.76-2.59 3.6 3.6 0 012.12-1.5l.59-.23c.29-.12.59-.25.72-.32a1.001 1.001 0 00.53-.75 1 1 0 00-.31-.86 7 7 0 01-2.12-5c0-2.3 1.4-4.77 4.48-4.77 3.08 0 4.48 2.47 4.48 4.77a7.002 7.002 0 01-2.12 5 1 1 0 00-.31.86 1 1 0 00.53.75c.13.07.43.2.75.34l.56.21a3.6 3.6 0 012.12 1.5 7.77 7.77 0 01.76 2.59.51.51 0 001 0 9 9 0 00-.94-3.15z" fill="#424242"/></svg>