<svg width="145" height="27" viewBox="0 0 145 27" fill="none" xmlns="http://www.w3.org/2000/svg"><g clip-path="url(#clip0_3979_4586)" fill="#000"><path d="M11.765 19.468c-.142-.112-.15-.192-.15-.423v-1.903c0-.645-.463-1.089-1.423-1.089-1.057 0-1.425.49-1.425.876 0 .211.1.366.393.366.152 0 .393-.08.393-.288 0-.281-.35-.846.66-.846.497 0 .658.243.658.814 0 .04.025.41-.161.58-.186.169-1.07.397-1.292.456-.68.18-.922.423-.922.874 0 .672.713.765 1.157.765.824 0 1.103-.368 1.192-.65.027.122.075.238.142.343.112.159.27.307.753.307.17.002.34-.025.503-.078v-.06a.558.558 0 01-.478-.044zm-.92-1.082c0 .357-.074 1.097-.915 1.097a.594.594 0 01-.662-.664.721.721 0 01.528-.757c.174-.066.37-.133.59-.211.17-.046.328-.132.46-.25v.785zm-7.754-1.88c.912-.125 1.586-.59 1.586-1.288 0-.896-.92-1.3-2.097-1.3H0v.057c.613 0 .918.258.918.812v3.88c0 .554-.305.81-.918.81v.059h2.58c1.444 0 2.387-.544 2.387-1.533 0-.914-.804-1.387-1.876-1.497zm-1.304-2.478h.615c.721 0 1.309.165 1.309 1.224 0 .994-.5 1.214-1.057 1.214h-.859l-.008-2.438zm.693 5.4h-.693v-2.852h.968c.635 0 1.201.304 1.201 1.42 0 1.235-.664 1.432-1.476 1.432zm13.816-.755v-1.507c0-.772-.441-1.102-1.268-1.102a1.448 1.448 0 00-1.282.738v-.651h-1.323v.059c.454 0 .634.162.634.51v2.245c0 .349-.175.512-.634.512v.059h2.034v-.06c-.457 0-.713-.162-.713-.511v-1.903a1.324 1.324 0 011.214-.888c.505 0 .634.372.634.803v2.015c0 .35-.251.485-.695.485v.059h2.04v-.06c-.742 0-.64-.418-.64-.803zM7.517 16.06H7.49c-.48 0-.905.37-1.058.924v-.846H5.11v.059c.456 0 .634.163.634.51v2.245c0 .35-.173.512-.634.512v.06h2.034v-.06c-.455 0-.71-.163-.71-.512v-1.2c0-.87.45-1.523.887-1.523.172 0 .282.078.282.254 0 .249-.108.266-.108.456 0 .142.127.256.355.256a.423.423 0 00.423-.438c-.009-.505-.376-.697-.755-.697zm13.025 2.702v-4.844H19.23v.057c.423 0 .607.162.607.714v2.037a1.169 1.169 0 00-1.108-.68 1.785 1.785 0 00-1.732 1.8c0 .935.846 1.8 1.753 1.8a1.153 1.153 0 001.087-.681v.57h1.311v-.058c-.414 0-.605-.161-.605-.715zm-.678-.778c0 1.057-.381 1.552-1.039 1.552-.824 0-1.004-.474-1.004-1.692 0-1.167.192-1.691.968-1.691.635 0 1.058.446 1.075 1.431v.4zm3.188-.419l.055.017-.56-.178c-.588-.186-.736-.334-.736-.634 0-.391.328-.622.835-.622h.015c.666 0 .846.67.918.89h.09v-.898h-.082a.184.184 0 01-.167.063c-.152 0-.349-.167-.744-.167h-.021c-.677 0-1.19.444-1.19 1.058a.913.913 0 00.695.902l.812.271c.26.087.49.212.49.599 0 .435-.268.653-.733.653-.905 0-1.2-.892-1.256-1.104h-.083v1.106h.083s.031-.11.211-.11c.243 0 .577.211 1.057.211.747 0 1.311-.454 1.311-1.12-.02-.529-.454-.766-1-.937zM5.305 5.134L2.478 2.231 4.248.558A1.495 1.495 0 015.384.06V0H3.679v.06c.309 0 .554.069.554.232 0 .097-.072.173-.239.332L1.787 2.709V.869c0-.554.304-.81.917-.81V0H0v.06c.613 0 .918.255.918.809v3.88c0 .554-.305.81-.918.81v.06h2.704v-.06c-.613 0-.917-.256-.917-.81V2.882l.093-.089 2.486 2.555c.117.118.13.211-.484.211v.06h2.366v-.06c-.463 0-.602-.072-.943-.425zm4.409.416c-.142-.114-.15-.192-.15-.422V3.225c0-.635-.463-1.09-1.423-1.09-1.057 0-1.425.491-1.425.876 0 .211.099.366.393.366.152 0 .393-.08.393-.288 0-.28-.35-.846.66-.846.497 0 .658.244.658.812 0 .043.025.41-.161.58-.186.169-1.07.4-1.292.459-.681.18-.92.423-.92.873 0 .672.71.765 1.155.765.824 0 1.103-.368 1.192-.649.027.122.075.238.142.343.112.158.27.306.753.306.17.002.34-.024.503-.078v-.059a.558.558 0 01-.478-.044zm-.92-1.076c0 .358-.074 1.098-.915 1.098a.594.594 0 01-.662-.664.721.721 0 01.528-.757c.174-.066.37-.133.59-.212.17-.045.328-.131.46-.25v.785zm3.553-2.343c-1.058 0-2.045.876-2.045 1.8s.962 1.8 2.045 1.8c1.082 0 2.046-.847 2.046-1.8 0-.954-.985-1.8-2.046-1.8zm0 3.487c-.846 0-1.168-.5-1.168-1.691 0-1.15.282-1.692 1.168-1.692.886 0 1.169.54 1.169 1.692.004 1.19-.313 1.691-1.17 1.691zm5.275 6.528v-2.96h-1.505v.059c.824 0 .71.422.71.81v1.072c0 .693-.57 1.444-1.245 1.444-.635 0-.785-.423-.785-.975v-2.41h-1.505v.059c.826 0 .712.422.712.81v1.515c0 .779.497 1.11 1.44 1.11a1.465 1.465 0 001.383-.966v.846h1.326v-.06c-.457.018-.53-.162-.53-.354zm-4.525.364c-.141-.115-.15-.193-.15-.424v-1.903c0-.644-.463-1.089-1.425-1.089-1.057 0-1.423.491-1.423.876 0 .211.1.364.393.364.152 0 .393-.079.393-.286 0-.281-.35-.846.66-.846.497 0 .658.243.658.812 0 .043.025.41-.16.58-.187.169-1.06.39-1.293.454-.68.182-.922.423-.922.873 0 .675.713.766 1.157.766.825 0 1.104-.366 1.192-.647.027.122.075.239.142.345.112.158.27.304.753.304.17.002.34-.024.503-.076v-.06a.567.567 0 01-.478-.044zm-.922-1.077c0 .357-.072 1.098-.913 1.098a.594.594 0 01-.662-.664.721.721 0 01.529-.757c.173-.068.37-.134.59-.212.17-.046.326-.133.456-.252v.787zM3.091 9.55c.912-.128 1.586-.59 1.586-1.29 0-.897-.92-1.301-2.097-1.301H0v.059c.613 0 .918.256.918.81v3.88c0 .554-.305.81-.918.81v.059h2.58c1.444 0 2.387-.543 2.387-1.533 0-.905-.804-1.385-1.876-1.495zM1.787 7.068h.615c.721 0 1.309.167 1.309 1.224 0 .994-.5 1.214-1.057 1.214h-.859l-.008-2.438zm.693 5.396h-.693V9.619h.968c.635 0 1.201.304 1.201 1.42 0 1.238-.664 1.426-1.476 1.426zm5.221.113c-.94-.023-1.269-.58-1.21-1.956h2.842c0-1.106-.955-1.53-1.712-1.53-1.091 0-2.062.845-2.062 1.796 0 1.185 1.007 1.8 2.115 1.8.845 0 1.378-.34 1.588-.99h-.094c-.133.345-.403.908-1.467.88zM7.6 9.194c.683 0 .898.444.795 1.309H6.492C6.572 9.608 6.914 9.2 7.6 9.2v-.006z"/><path d="M23.96 9.192v.057c.65 0 .617.243.503.497l-.965 2.156-1.137-2.163c-.098-.188-.212-.488.53-.488v-.057h-3.309V8.109a1.03 1.03 0 01-.795.114c.013.635-.188.97-.71.97v.081h.71v2.538c0 .67.455.888 1.225.888.674 0 .926-.38 1.015-.772h-.091a.768.768 0 01-.785.662c-.569 0-.569-.423-.569-.89V9.271h1.022c.615 0 .797.3.972.634.062.115 1.523 2.893 1.523 2.893l-.514 1.146c-.106.233-.374.74-.785.74-.133 0-.24-.013-.24-.16 0-.225.143-.212.143-.423 0-.212-.169-.273-.423-.273a.385.385 0 00-.423.406c0 .24.187.585.81.585.698 0 .92-.53 1.096-.924l1.943-4.345a.635.635 0 01.634-.309v-.057l-1.38.007zm92.747 10.107c-.492-.395-.522-.67-.522-1.495v-6.608c0-2.241-1.611-3.785-4.952-3.785-3.692 0-4.954 1.705-4.954 3.045 0 .734.351 1.269 1.37 1.269.529 0 1.372-.277 1.372-.994 0-.979-1.224-2.937 2.288-2.937 1.732 0 2.29.846 2.29 2.827 0 .142.087 1.425-.562 2.015-.698.635-3.718 1.383-4.491 1.588-2.367.635-3.202 1.497-3.202 3.037 0 2.338 2.472 2.662 4.018 2.662 2.865 0 3.833-1.269 4.146-2.256.093.423.259.826.491 1.192.389.554.941 1.057 2.62 1.057a5.465 5.465 0 001.746-.268v-.212s-1.023.375-1.658-.137zm-3.201-3.743c0 1.242-.256 3.806-3.172 3.806-.886 0-2.304-.279-2.304-2.306 0-1.218.437-2.096 1.837-2.633.603-.23 1.288-.465 2.055-.74.768-.275 1.244-.512 1.59-.873l-.006 2.746zm13.859-8.096h-.085c-1.668 0-3.146 1.29-3.698 3.216V7.76h-4.604v.212c1.584 0 2.191.566 2.191 1.776v7.809c0 1.21-.607 1.776-2.191 1.776v.211h7.076v-.211c-1.584 0-2.474-.567-2.474-1.776V13.31c0-3.024 1.564-5.286 3.089-5.286.596 0 .973.27.973.877 0 .871-.373.93-.373 1.592 0 .49.442.888 1.237.888a1.478 1.478 0 001.462-1.522c-.005-1.742-1.288-2.4-2.603-2.4zM97.91 10.661c5.019 0 8.297-1.888 8.297-5.33 0-3.443-3.278-5.331-8.297-5.331h-8.972v.211c2.131 0 3.19.893 3.19 2.817v13.493c0 1.924-1.057 2.816-3.19 2.816v.212h9.405v-.212c-2.13 0-3.189-.892-3.189-2.816v-5.86h2.756zM97.563.372c2.825 0 5.132.658 5.132 4.959 0 4.3-2.307 4.958-5.132 4.958h-2.41V.372h2.41z"/><path d="M142.532 18.485l-6.026-6.654 3.949-3.107c.58-.456 1.316-.752 2.618-.76v-.2h-4.755v.2c.924 0 1.577.086 1.577.363s-.366.556-.698.833l-4.954 3.895V0h-4.559v.211c1.449 0 2.115.56 2.115 2.485v14.167c0 1.924-.66 2.485-2.115 2.485v.211h6.667v-.211c-1.448 0-2.114-.56-2.114-2.485v-3.256l.346-.273 4.441 4.895c.746.823.683 1.098-.903 1.098v.21h6.447v-.21c-1.279.002-1.446-.242-2.036-.842zM54.68 16.846V0h-4.558v.211c1.448 0 2.114.559 2.114 2.485v14.167c0 1.924-.66 2.485-2.114 2.485v.211h6.667v-.211c-1.448-.017-2.108-.578-2.108-2.502zm16.179 2.597s-1.023.363-1.66-.148c-.493-.396-.522-.67-.522-1.495v-6.604c0-2.241-1.612-3.785-4.95-3.785-3.694 0-4.957 1.705-4.957 3.045 0 .734.353 1.269 1.373 1.269.526 0 1.37-.277 1.37-.994 0-.979-1.222-2.937 2.288-2.937 1.731 0 2.29.846 2.29 2.827 0 .142.086 1.425-.563 2.015-.698.635-3.717 1.383-4.491 1.588-2.366.635-3.201 1.497-3.201 3.037 0 2.338 2.471 2.662 4.017 2.662 2.865 0 3.834-1.269 4.147-2.256.092.423.26.827.492 1.192.387.554.94 1.057 2.618 1.057a5.468 5.468 0 001.747-.268l.002-.205zm-4.863-3.89c0 1.24-.256 3.805-3.172 3.805-.886 0-2.305-.279-2.305-2.307 0-1.218.438-2.095 1.837-2.632.603-.23 1.288-.465 2.056-.74.767-.275 1.245-.512 1.59-.874l-.006 2.747z"/><path d="M80.647 7.602c2.267 0 2.15.845 1.755 1.73l-3.352 7.497-3.958-7.525c-.482-1.157-.15-1.692 1.981-1.692v-.211h-8.225v.211c.892 0 1.442.083 1.954.362.423.224.805.528 1.564 1.918.212.395 5.287 10.056 5.287 10.056l-1.79 3.999c-.36.81-1.3 2.573-2.725 2.573-.46 0-.833-.042-.833-.552 0-.787.497-.776.497-1.465 0-.59-.586-.952-1.48-.952-1.028 0-1.48.635-1.48 1.41 0 .846.647 2.039 2.818 2.039 2.424 0 3.195-1.846 3.806-3.21l6.767-15.11c.512-.977 1.48-1.074 2.193-1.074v-.197h-4.78v.193zM41.795 0h-8.972v.211c2.132 0 3.191.893 3.191 2.817v13.493c0 1.924-1.057 2.816-3.19 2.816v.212h9.405v-.212c-2.13 0-3.19-.892-3.19-2.816v-5.86h2.75c5.02 0 8.297-1.888 8.297-5.33 0-3.443-3.271-5.331-8.29-5.331zm-.347 10.29h-2.41V.371h2.408c2.825 0 5.132.658 5.132 4.959 0 4.3-2.305 4.958-5.13 4.958z"/></g><defs><clipPath id="clip0_3979_4586"><path fill="#fff" d="M0 0h144.566v27H0z"/></clipPath></defs></svg>