<svg width="132" height="154" viewBox="0 0 132 154" fill="none" xmlns="http://www.w3.org/2000/svg">
<rect x="0.5" y="0.5" width="131" height="153" rx="7.5" fill="white"/>
<path d="M26.2118 24.716C24.8918 24.716 24.0518 23.516 24.0518 21.524C24.0518 19.616 24.8918 18.476 26.2118 18.476C27.5318 18.476 28.3718 19.616 28.3718 21.524C28.3718 23.516 27.5318 24.716 26.2118 24.716ZM29.0798 28.412C29.7278 28.412 30.2678 28.292 30.5798 28.148L30.2558 26.84C30.0038 26.924 29.6678 26.984 29.2838 26.984C28.4798 26.984 27.6758 26.708 27.2678 26.036C29.0318 25.58 30.1838 23.948 30.1838 21.524C30.1838 18.644 28.5638 16.952 26.2118 16.952C23.8598 16.952 22.2398 18.632 22.2398 21.524C22.2398 24.056 23.4998 25.736 25.3958 26.096C26.0078 27.44 27.2678 28.412 29.0798 28.412ZM31.9182 26H33.6942V22.64H34.9302L36.7542 26H38.7342L36.6582 22.364C37.6782 21.968 38.3502 21.14 38.3502 19.808C38.3502 17.768 36.8742 17.108 35.0142 17.108H31.9182V26ZM33.6942 21.236V18.524H34.8462C35.9862 18.524 36.6222 18.848 36.6222 19.808C36.6222 20.756 35.9862 21.236 34.8462 21.236H33.6942ZM44.8379 16.376L43.2539 16.244C43.2299 16.676 43.1459 17.144 43.0139 17.624C42.8219 17.624 42.6179 17.624 42.4379 17.624C41.8259 17.624 40.9379 17.576 40.3259 17.48V18.884C40.9859 18.932 41.8619 18.956 42.3539 18.956C42.4019 18.956 42.4499 18.956 42.5099 18.956C41.9699 20.036 41.1179 21.104 39.8579 22.268L41.1419 23.228C41.5499 22.7 41.8979 22.268 42.2579 21.908C42.7139 21.464 43.4579 21.08 44.1299 21.08C44.4659 21.08 44.7899 21.188 44.9699 21.488C43.6019 22.196 42.1619 23.156 42.1619 24.692C42.1619 26.24 43.5539 26.696 45.4379 26.696C46.5659 26.696 48.0419 26.6 48.8339 26.492L48.8819 24.944C47.8259 25.148 46.4939 25.28 45.4739 25.28C44.2979 25.28 43.7339 25.1 43.7339 24.44C43.7339 23.84 44.2139 23.372 45.1139 22.856C45.1019 23.384 45.0899 23.96 45.0539 24.32H46.4939C46.4819 23.768 46.4579 22.88 46.4459 22.208C47.1779 21.872 47.8619 21.608 48.4019 21.392C48.8099 21.236 49.4459 20.996 49.8299 20.888L49.2299 19.496C48.7859 19.724 48.3659 19.916 47.8979 20.12C47.4059 20.336 46.9019 20.54 46.2779 20.828C46.0139 20.216 45.4139 19.904 44.6819 19.904C44.2859 19.904 43.6379 20 43.3259 20.144C43.5659 19.796 43.8059 19.364 44.0099 18.92C45.3059 18.884 46.7819 18.788 47.9219 18.62L47.9339 17.228C46.8779 17.408 45.6779 17.516 44.5379 17.576C44.6939 17.072 44.7779 16.676 44.8379 16.376ZM58.3019 18.608H56.2259V19.76H61.9979V18.608H59.7179V17.888H62.3579V16.736H59.7179V15.836H58.3019V16.736H55.8299V17.888H58.3019V18.608ZM56.9579 21.464H61.1219V22.64H62.4419V20.348H55.6979V22.64H56.9579V21.464ZM55.2299 16.208H52.0019V17.288H55.2299V16.208ZM55.6139 17.816H51.4019V18.944H55.6139V17.816ZM55.2539 19.484H51.9299V20.576H55.2539V19.484ZM51.9299 22.196H55.2539V21.128H51.9299V22.196ZM54.1019 25.28H53.0579V23.9H54.1019V25.28ZM55.2779 22.784H51.8939V26.876H53.0579V26.396H55.2779V26.036C55.5419 26.312 55.8539 26.768 55.9859 27.08C58.2059 26.156 58.5299 24.536 58.6259 22.028H57.2939C57.2219 24.032 57.0539 25.196 55.2779 25.892V22.784ZM60.9299 25.712C60.7499 25.712 60.7259 25.676 60.7259 25.328V22.04H59.4059V25.34C59.4059 26.552 59.6459 26.948 60.6899 26.948H61.4939C62.3579 26.948 62.6699 26.492 62.7899 24.716C62.4299 24.62 61.8779 24.404 61.6139 24.188C61.5899 25.52 61.5419 25.712 61.3499 25.712H60.9299ZM65.5739 16.916L65.6339 18.464C65.9459 18.416 66.3659 18.38 66.6059 18.368C67.1579 18.332 68.1899 18.296 68.6699 18.272C68.3939 18.836 68.0459 19.652 67.7099 20.444C65.2979 20.552 63.6059 21.968 63.6059 23.828C63.6059 25.04 64.3979 25.772 65.4539 25.772C66.2699 25.772 66.8459 25.436 67.3259 24.716C67.7459 24.056 68.2499 22.856 68.6819 21.836C69.7139 21.98 70.6739 22.34 71.5259 22.808C71.1299 23.9 70.2899 25.04 68.4779 25.82L69.7499 26.864C71.3579 26.024 72.2699 24.968 72.7979 23.612C73.1699 23.888 73.5179 24.164 73.8299 24.452L74.5259 22.784C74.1779 22.544 73.7459 22.268 73.2419 21.98C73.3619 21.308 73.4219 20.564 73.4699 19.76L71.8979 19.58C71.9339 19.94 71.9339 20.42 71.8979 20.888C71.8859 21.02 71.8739 21.152 71.8619 21.296C71.0819 20.96 70.1939 20.672 69.2579 20.528C69.6899 19.508 70.1459 18.464 70.4579 17.948C70.5539 17.78 70.6979 17.624 70.8659 17.444L69.9059 16.7C69.7019 16.784 69.3899 16.856 69.0899 16.868C68.5259 16.916 67.2539 16.976 66.5699 16.976C66.3059 16.976 65.8979 16.952 65.5739 16.916ZM65.0099 23.6C65.0099 22.844 65.7659 22.028 67.1099 21.824C66.7739 22.58 66.4499 23.336 66.1379 23.78C65.9219 24.08 65.7539 24.2 65.5139 24.2C65.2379 24.2 65.0099 23.996 65.0099 23.6ZM80.8139 17.828H81.2339V18.764H84.7739C84.5699 20.108 84.2099 21.308 83.7419 22.34C83.2379 21.284 82.8779 20.072 82.6379 18.788L81.2699 19.064C81.6419 20.876 82.1579 22.484 82.8899 23.816C82.3019 24.632 81.6059 25.28 80.8139 25.724V17.828ZM77.7299 22.724H79.4339V23.804C78.8579 23.876 78.2819 23.96 77.7299 24.032V22.724ZM77.7299 20.252H79.4339V21.452H77.7299V20.252ZM79.4339 17.828V18.968H77.7299V17.828H79.4339ZM85.4099 17.324L85.1699 17.36H81.5819V16.508H75.5579V17.828H76.3739V24.2C75.9659 24.248 75.5939 24.284 75.2699 24.32L75.5459 25.748C76.6499 25.58 78.0539 25.364 79.4339 25.124V27.044H80.8139V25.916C81.1019 26.204 81.4259 26.648 81.6059 26.96C82.4219 26.468 83.1299 25.868 83.7419 25.124C84.3179 25.856 84.9899 26.468 85.8059 26.96C86.0219 26.588 86.4659 26.048 86.7899 25.784C85.9259 25.316 85.2059 24.644 84.6179 23.84C85.5179 22.232 86.0939 20.168 86.3459 17.552L85.4099 17.324ZM88.7219 20.924L89.3459 22.484C90.3659 22.052 92.7659 21.056 94.1579 21.056C95.2019 21.056 95.8739 21.68 95.8739 22.58C95.8739 24.212 93.8579 24.944 91.1099 25.016L91.7459 26.492C95.5619 26.252 97.4699 24.776 97.4699 22.604C97.4699 20.792 96.1979 19.664 94.3019 19.664C92.8499 19.664 90.8099 20.348 89.9939 20.6C89.6339 20.708 89.0819 20.852 88.7219 20.924ZM99.2602 17.744L99.4162 19.388C100.808 19.088 103.256 18.824 104.384 18.704C103.58 19.316 102.608 20.684 102.608 22.412C102.608 25.004 104.984 26.36 107.492 26.528L108.056 24.884C106.028 24.776 104.18 24.056 104.18 22.088C104.18 20.66 105.26 19.1 106.712 18.716C107.348 18.572 108.38 18.572 109.028 18.56L109.016 17.024C108.176 17.048 106.856 17.132 105.62 17.228C103.424 17.42 101.444 17.6 100.448 17.684C100.208 17.708 99.7402 17.732 99.2602 17.744ZM34.1896 34.864L33.2056 34.132C32.9656 34.216 32.4856 34.288 31.9696 34.288H27.7336C27.3736 34.288 26.6416 34.252 26.3176 34.204V35.908C26.5696 35.896 27.2296 35.824 27.7336 35.824H31.8016C31.5376 36.676 30.8056 37.864 30.0136 38.764C28.8856 40.024 27.0256 41.488 25.0936 42.208L26.3296 43.504C27.9736 42.724 29.5696 41.476 30.8416 40.132C31.9696 41.224 33.0856 42.448 33.8656 43.528L35.2336 42.34C34.5256 41.476 33.0736 39.94 31.8856 38.908C32.6896 37.828 33.3616 36.544 33.7696 35.608C33.8776 35.368 34.0936 34.996 34.1896 34.864ZM47.2544 35.44L46.0544 34.456C45.8024 34.54 45.3944 34.588 44.9384 34.588H38.2784C37.8704 34.588 37.2104 34.528 36.8984 34.48V36.16C37.1504 36.136 37.7984 36.076 38.2784 36.076H44.6264C44.0624 37.06 42.9344 38.452 41.5784 39.532C40.8224 38.872 40.0304 38.224 39.5504 37.864L38.2784 38.884C38.9984 39.4 40.2224 40.48 40.9184 41.188C41.6984 41.98 42.7064 43.108 43.2104 43.78L44.6144 42.664C44.1464 42.1 43.4384 41.32 42.7544 40.636C44.4464 39.268 45.9824 37.348 46.8464 35.944C46.9424 35.788 47.0864 35.632 47.2544 35.44ZM54.8864 33.388H53.1104C53.1464 33.592 53.2064 34.12 53.2064 34.432V35.392H50.1584C49.7864 35.392 49.3664 35.344 49.0064 35.308V36.892C49.3424 36.856 49.7984 36.844 50.1584 36.844H53.2064V36.856C53.2064 37.42 53.2064 41.224 53.1944 41.668C53.1824 41.98 53.0744 42.1 52.7624 42.1C52.4624 42.1 51.9344 42.052 51.4184 41.956L51.5744 43.444C52.1744 43.528 52.8824 43.552 53.5184 43.552C54.3704 43.552 54.7784 43.12 54.7784 42.424V36.844H57.5744C57.9104 36.844 58.3784 36.856 58.7504 36.88V35.308C58.4264 35.356 57.9104 35.392 57.5624 35.392H54.7784V34.432C54.7784 34.132 54.8504 33.556 54.8864 33.388ZM52.0664 38.548L50.6984 37.912C50.2064 38.932 49.2464 40.252 48.4424 41.008L49.7504 41.896C50.3984 41.188 51.5144 39.616 52.0664 38.548ZM57.2144 37.876L55.9064 38.584C56.4944 39.328 57.3464 40.78 57.8624 41.8L59.2664 41.032C58.7864 40.156 57.8264 38.644 57.2144 37.876ZM60.6464 34.768L60.8024 36.412C62.1944 36.112 64.6424 35.848 65.7704 35.728C64.9544 36.34 63.9824 37.708 63.9824 39.436C63.9824 42.04 66.3584 43.384 68.8784 43.552L69.4424 41.908C67.4024 41.8 65.5544 41.092 65.5544 39.112C65.5544 37.684 66.6464 36.136 68.0984 35.752C68.7344 35.596 69.7664 35.596 70.4144 35.584L70.4024 34.048C69.5504 34.084 68.2424 34.156 67.0064 34.264C64.8104 34.444 62.8304 34.624 61.8224 34.708C61.5944 34.732 61.1264 34.756 60.6464 34.768ZM68.6984 36.76L67.8104 37.132C68.1944 37.672 68.4464 38.14 68.7464 38.8L69.6584 38.392C69.4304 37.924 68.9984 37.192 68.6984 36.76ZM70.0424 36.208L69.1664 36.616C69.5504 37.144 69.8264 37.588 70.1504 38.236L71.0504 37.804C70.7984 37.336 70.3424 36.628 70.0424 36.208ZM74.2424 38.74C74.2544 38.344 74.2544 37.972 74.2544 37.612V37.288H75.4664V38.74H74.2424ZM75.4664 34.576V35.968H74.2544V34.576H75.4664ZM82.0064 42.52C81.9584 42.52 81.9224 42.496 81.8984 42.448C81.8624 42.4 81.8504 42.232 81.8504 41.932V33.256H77.7104V38.152C77.7104 39.772 77.6264 41.788 76.7144 43.168C76.7864 42.964 76.8104 42.712 76.8104 42.388V33.256H72.9344V37.612C72.9344 39.376 72.8864 41.764 72.1424 43.396C72.4664 43.516 73.0544 43.864 73.3184 44.068C73.8104 42.976 74.0504 41.5 74.1704 40.084H75.4664V42.364C75.4664 42.52 75.4184 42.58 75.2624 42.58C75.1304 42.58 74.6864 42.58 74.2544 42.556C74.4344 42.916 74.6144 43.54 74.6504 43.912C75.4184 43.912 75.9464 43.876 76.3064 43.648C76.4624 43.552 76.5824 43.444 76.6544 43.288C76.9904 43.456 77.5904 43.888 77.8304 44.128C78.9704 42.58 79.1264 40.012 79.1264 38.152V34.624H80.4224V41.956C80.4224 43 80.5184 43.276 80.7464 43.516C80.9504 43.744 81.2984 43.84 81.5744 43.84H82.2584C82.5104 43.84 82.8104 43.78 82.9784 43.636C83.1824 43.48 83.3144 43.252 83.3864 42.904C83.4584 42.556 83.5184 41.752 83.5304 41.116C83.1464 40.984 82.7144 40.744 82.4144 40.492C82.4144 41.2 82.4024 41.788 82.3784 42.028C82.3664 42.292 82.3424 42.4 82.3064 42.448C82.2704 42.508 82.2224 42.52 82.1624 42.52H82.0064ZM92.9744 34.048H91.7384V40.984H92.9744V34.048ZM87.3464 34.048C86.9384 33.688 86.0984 33.208 85.4504 32.932L84.6464 33.988C85.3064 34.288 86.1224 34.816 86.5064 35.2L87.3464 34.048ZM86.8904 37.168C86.4824 36.796 85.6304 36.376 84.9704 36.124L84.1904 37.168C84.8504 37.468 85.6664 37.948 86.0624 38.32L86.8904 37.168ZM85.9424 39.328C85.4744 40.732 84.8384 42.256 84.3944 43.18L85.6784 43.912C86.1704 42.736 86.6984 41.356 87.0944 40.072L85.9424 39.328ZM87.8504 41.224C87.5264 42.004 86.9744 42.808 86.4104 43.348C86.7224 43.516 87.2624 43.864 87.5264 44.08C88.1024 43.48 88.7504 42.496 89.1464 41.584L87.8504 41.224ZM89.5304 41.728C89.9744 42.328 90.5144 43.132 90.7424 43.636L91.8704 42.964C91.6184 42.46 91.0544 41.68 90.6104 41.128L89.5304 41.728ZM89.8904 35.548H88.7144V34.54H89.8904V35.548ZM89.8904 37.708H88.7144V36.688H89.8904V37.708ZM89.8904 39.892H88.7144V38.86H89.8904V39.892ZM91.1384 33.304H87.5144V41.128H91.1384V33.304ZM93.7184 32.848V42.436C93.7184 42.616 93.6584 42.676 93.4544 42.688C93.2624 42.688 92.6864 42.688 92.0744 42.664C92.2544 43.06 92.4344 43.66 92.4824 44.032C93.4184 44.032 94.0424 43.984 94.4624 43.756C94.8824 43.552 95.0144 43.168 95.0144 42.436V32.848H93.7184ZM98.0984 35.404H105.478V37.048H106.954V34.048H102.562V32.848H101.05V34.048H96.6944V37.048H98.0984V35.404ZM102.55 40.636H105.85V39.292H102.55V37.792H105.118V36.436H98.5184V37.792H101.074V42.028C100.366 41.68 99.8024 41.104 99.4424 40.144C99.5504 39.664 99.6344 39.16 99.7064 38.62L98.2184 38.476C98.0024 40.528 97.4144 42.184 96.1184 43.144C96.4544 43.36 97.0544 43.864 97.2944 44.116C97.9784 43.528 98.5064 42.76 98.8904 41.848C99.9944 43.552 101.638 43.912 103.846 43.912H106.846C106.918 43.492 107.146 42.808 107.35 42.46C106.546 42.496 104.566 42.496 103.918 42.496C103.438 42.496 102.982 42.472 102.55 42.424V40.636Z" fill="#A088B7"/>
<path d="M112 54H20V146H112V54Z" fill="white"/>
<path d="M27.5156 72.2613V82.9946H38.249H48.9823V72.2613V61.528H38.249H27.5156V72.2613ZM45.9156 72.2613V79.928H38.249H30.5823V72.2613V64.5946H38.249H45.9156V72.2613Z" fill="#424242"/>
<path d="M33.6484 72.2608V76.8608H38.2484H42.8484V72.2608V67.6608H38.2484H33.6484V72.2608Z" fill="#424242"/>
<path d="M61.249 63.061V64.5943H56.649H52.049V66.1277V67.661H53.5823H55.1156V69.1943V70.7277H53.5823H52.049V72.261V73.7943H53.5823H55.1156V72.261V70.7277H58.1823H61.249V73.7943V76.861H59.7156H58.1823V79.9277V82.9943H56.649H55.1156V79.9277V76.861H53.5823H52.049V79.9277V82.9943H53.5823H55.1156V84.5277V86.061H50.5156H45.9156V87.5943V89.1277H44.3823H42.849V87.5943V86.061H35.1823H27.5156V89.1277V92.1943H29.049H30.5823V95.261V98.3277H29.049H27.5156V105.994V113.661H29.049H30.5823V107.528V101.394H33.649H36.7156V102.928V104.461H35.1823H33.649V109.061V113.661H38.249H42.849V107.528V101.394H39.7823H36.7156V99.861V98.3277H38.249H39.7823V96.7943V95.261H41.3156H42.849V93.7277V92.1943H44.3823H45.9156V93.7277V95.261H48.9823H52.049V96.7943V98.3277H48.9823H45.9156V99.861V101.394H47.449H48.9823V102.928V104.461H47.449H45.9156V105.994V107.528H47.449H48.9823V109.061V110.594H47.449H45.9156V112.128V113.661H47.449H48.9823V112.128V110.594H50.5156H52.049V115.194V119.794H55.1156H58.1823V121.328V122.861H59.7156H61.249V119.794V116.728H62.7823H64.3156V115.194V113.661H65.849H67.3823V116.728V119.794H68.9156H70.449V121.328V122.861H67.3823H64.3156V124.394V125.928H59.7156H55.1156V124.394V122.861H53.5823H52.049V130.528V138.194H56.649H61.249V136.661V135.128H64.3156H67.3823V136.661V138.194H70.449H73.5156V135.128V132.061H75.049H76.5823V133.594V135.128H78.1156H79.649V136.661V138.194H91.9156H104.182V132.061V125.928H102.649H101.116V122.861V119.794H102.649H104.182V118.261V116.728H99.5823H94.9823V115.194V113.661H96.5156H98.049V112.128V110.594H96.5156H94.9823V112.128V113.661H93.449H91.9156V110.594V107.528H93.449H94.9823V104.461V101.394H96.5156H98.049V104.461V107.528H99.5823H101.116V109.061V110.594H102.649H104.182V107.528V104.461H102.649H101.116V102.928V101.394H102.649H104.182V96.7943V92.1943H102.649H101.116V89.1277V86.061H99.5823H98.049V90.661V95.261H99.5823H101.116V96.7943V98.3277H98.049H94.9823V99.861V101.394H93.449H91.9156V98.3277V95.261H93.449H94.9823V93.7277V92.1943H93.449H91.9156V93.7277V95.261H90.3823H88.849V98.3277V101.394H87.3156H85.7823V96.7943V92.1943H87.3156H88.849V89.1277V86.061H87.3156H85.7823V89.1277V92.1943H84.249H82.7156V93.7277V95.261H81.1823H79.649V92.1943V89.1277H81.1823H82.7156V87.5943V86.061H81.1823H79.649V81.461V76.861H76.5823H73.5156V78.3943V79.9277H71.9823H70.449V82.9943V86.061H68.9156H67.3823V82.9943V79.9277H65.849H64.3156V81.461V82.9943H62.7823H61.249V79.9277V76.861H62.7823H64.3156V75.3277V73.7943H68.9156H73.5156V70.7277V67.661H75.049H76.5823V69.1943V70.7277H78.1156H79.649V69.1943V67.661H78.1156H76.5823V66.1277V64.5943H78.1156H79.649V63.061V61.5277H78.1156H76.5823V63.061V64.5943H75.049H73.5156V66.1277V67.661H71.9823H70.449V64.5943V61.5277H68.9156H67.3823V64.5943V67.661H68.9156H70.449V69.1943V70.7277H67.3823H64.3156V69.1943V67.661H62.7823H61.249V66.1277V64.5943H62.7823H64.3156V63.061V61.5277H62.7823H61.249V63.061ZM76.5823 82.9943V86.061H78.1156H79.649V87.5943V89.1277H78.1156H76.5823V90.661V92.1943H73.5156H70.449V90.661V89.1277H71.9823H73.5156V84.5277V79.9277H75.049H76.5823V82.9943ZM64.3156 87.5943V89.1277H65.849H67.3823V90.661V92.1943H65.849H64.3156V93.7277V95.261H67.3823H70.449V96.7943V98.3277H71.9823H73.5156V96.7943V95.261H76.5823H79.649V98.3277V101.394H82.7156H85.7823V102.928V104.461H82.7156H79.649V102.928V101.394H78.1156H76.5823V102.928V104.461H73.5156H70.449V107.528V110.594H68.9156H67.3823V109.061V107.528H65.849H64.3156V109.061V110.594H62.7823H61.249V112.128V113.661H59.7156H58.1823V110.594V107.528H56.649H55.1156V105.994V104.461H53.5823H52.049V105.994V107.528H50.5156H48.9823V105.994V104.461H50.5156H52.049V102.928V101.394H56.649H61.249V102.928V104.461H65.849H70.449V101.394V98.3277H67.3823H64.3156V96.7943V95.261H62.7823H61.249V96.7943V98.3277H58.1823H55.1156V96.7943V95.261H53.5823H52.049V93.7277V92.1943H53.5823H55.1156V90.661V89.1277H56.649H58.1823V87.5943V86.061H61.249H64.3156V87.5943ZM33.649 90.661V92.1943H35.1823H36.7156V93.7277V95.261H35.1823H33.649V93.7277V92.1943H32.1156H30.5823V90.661V89.1277H32.1156H33.649V90.661ZM42.849 90.661V92.1943H41.3156H39.7823V90.661V89.1277H41.3156H42.849V90.661ZM48.9823 90.661V92.1943H47.449H45.9156V90.661V89.1277H47.449H48.9823V90.661ZM91.9156 102.928V104.461H90.3823H88.849V102.928V101.394H90.3823H91.9156V102.928ZM82.7156 109.061V110.594H81.1823H79.649V109.061V107.528H81.1823H82.7156V109.061ZM73.5156 115.194V116.728H75.049H76.5823V119.794V122.861H75.049H73.5156V121.328V119.794H71.9823H70.449V116.728V113.661H71.9823H73.5156V115.194ZM88.849 118.261V122.861H84.249H79.649V118.261V113.661H84.249H88.849V118.261ZM94.9823 118.261V119.794H96.5156H98.049V121.328V122.861H96.5156H94.9823V124.394V125.928H93.449H91.9156V124.394V122.861H93.449H94.9823V121.328V119.794H93.449H91.9156V118.261V116.728H93.449H94.9823V118.261ZM67.3823 127.461V128.994H68.9156H70.449V127.461V125.928H71.9823H73.5156V128.994V132.061H71.9823H70.449V133.594V135.128H68.9156H67.3823V132.061V128.994H65.849H64.3156V130.528V132.061H62.7823H61.249V133.594V135.128H59.7156H58.1823V133.594V132.061H56.649H55.1156V130.528V128.994H56.649H58.1823V130.528V132.061H59.7156H61.249V130.528V128.994H62.7823H64.3156V127.461V125.928H65.849H67.3823V127.461ZM88.849 127.461V128.994H90.3823H91.9156V130.528V132.061H87.3156H82.7156V133.594V135.128H81.1823H79.649V133.594V132.061H78.1156H76.5823V130.528V128.994H81.1823H85.7823V127.461V125.928H87.3156H88.849V127.461ZM101.116 132.061V135.128H98.049H94.9823V133.594V132.061H96.5156H98.049V130.528V128.994H99.5823H101.116V132.061Z" fill="#424242"/>
<path d="M61.2464 90.6612V92.1946H59.713H58.1797V93.7279V95.2612H59.713H61.2464V93.7279V92.1946H62.7797H64.313V90.6612V89.1279H62.7797H61.2464V90.6612Z" fill="#424242"/>
<path d="M73.5156 99.8607V101.394H75.049H76.5823V99.8607V98.3274H75.049H73.5156V99.8607Z" fill="#424242"/>
<path d="M58.1797 105.994V107.528H59.713H61.2464V105.994V104.461H59.713H58.1797V105.994Z" fill="#424242"/>
<path d="M82.7109 118.261V119.794H84.2443H85.7776V118.261V116.728H84.2443H82.7109V118.261Z" fill="#424242"/>
<path d="M82.7109 72.2613V82.9946H93.4443H104.178V72.2613V61.528H93.4443H82.7109V72.2613ZM101.111 72.2613V79.928H93.4443H85.7776V72.2613V64.5946H93.4443H101.111V72.2613Z" fill="#424242"/>
<path d="M88.8516 72.2608V76.8608H93.4516H98.0516V72.2608V67.6608H93.4516H88.8516V72.2608Z" fill="#424242"/>
<path d="M91.9141 87.5941V89.1274H93.4474H94.9807V87.5941V86.0608H93.4474H91.9141V87.5941Z" fill="#424242"/>
<path d="M27.5156 127.461V138.194H38.249H48.9823V127.461V116.728H38.249H27.5156V127.461ZM45.9156 127.461V135.128H38.249H30.5823V127.461V119.794H38.249H45.9156V127.461Z" fill="#424242"/>
<path d="M33.6484 127.461V132.061H38.2484H42.8484V127.461V122.861H38.2484H33.6484V127.461Z" fill="#424242"/>
<rect x="0.5" y="0.5" width="131" height="153" rx="7.5" stroke="#A088B7"/>
</svg>
