<svg width="24" height="14" viewBox="0 0 24 14" fill="none" xmlns="http://www.w3.org/2000/svg">
<rect width="24" height="14" fill="url(#paint0_linear_339_1333)"/>
<path d="M7.73684 1C8.64912 1 9.42105 1.33613 10.0526 2.0084C10.6842 2.64706 11 3.5042 11 4.57983C11 6.36134 10.4386 7.97479 9.31579 9.42017C8.19298 10.8655 6.80702 12.0588 5.15789 13L4 11.6387C4.5614 11.1008 4.94737 10.5798 5.15789 10.0756C5.36842 9.57143 5.47368 8.94958 5.47368 8.21008C5.47368 7.7395 5.31579 7.11765 5 6.34454C4.64912 5.40336 4.47368 4.66387 4.47368 4.12605C4.47368 3.2521 4.78947 2.51261 5.42105 1.90756C6.05263 1.30252 6.82456 1 7.73684 1ZM16.7368 1C17.6491 1 18.4211 1.33613 19.0526 2.0084C19.6842 2.64706 20 3.5042 20 4.57983C20 6.36134 19.4386 7.97479 18.3158 9.42017C17.193 10.8655 15.807 12.0588 14.1579 13L13 11.6387C13.5614 11.1008 13.9474 10.5798 14.1579 10.0756C14.3684 9.57143 14.4737 8.94958 14.4737 8.21008C14.4737 7.7395 14.3158 7.11765 14 6.34454C13.6491 5.40336 13.4737 4.66387 13.4737 4.12605C13.4737 3.2521 13.7895 2.51261 14.4211 1.90756C15.0526 1.30252 15.8246 1 16.7368 1Z" fill="url(#paint1_linear_339_1333)"/>
<defs>
<linearGradient id="paint0_linear_339_1333" x1="0.5" y1="6.08996e-07" x2="24" y2="14" gradientUnits="userSpaceOnUse">
<stop stop-color="#E7FFEE"/>
<stop offset="0.0001" stop-color="#E7FFEE"/>
<stop offset="1" stop-color="#E7FFF0"/>
</linearGradient>
<linearGradient id="paint1_linear_339_1333" x1="5.58996" y1="4.96346" x2="22.5355" y2="7.30718" gradientUnits="userSpaceOnUse">
<stop stop-color="#BDE986"/>
<stop offset="1" stop-color="#7AC8F3"/>
</linearGradient>
</defs>
</svg>
