<svg width="90" height="48" viewBox="0 0 90 48" fill="none" xmlns="http://www.w3.org/2000/svg">
<path d="M6.88481 0.0613371C4.07344 0.0613371 1.94174 2.13125 1.94174 4.86539V17.8564C1.94174 20.5751 1.71003 25.7344 0.103531 29.6889C-0.128176 30.3068 0.0108473 31.11 0.705967 31.3881C0.860438 31.4499 1.01491 31.4808 1.16938 31.4808C1.3393 31.4808 1.50922 31.4499 1.67914 31.3726C1.98808 31.2336 2.23523 30.9865 2.37426 30.6775C3.19295 28.8084 4.13522 24.993 4.36692 19.8645H9.34089V26.7694C9.34089 27.4182 9.09375 28.7157 8.16692 28.9165C7.81164 28.9938 7.48725 29.2255 7.30189 29.5499C7.13197 29.8279 7.07017 30.1369 7.14741 30.4304C7.22464 30.7547 7.44091 31.0328 7.7344 31.1873C8.0279 31.3417 8.36773 31.3881 8.69212 31.3108C10.7775 30.8629 11.8588 28.6848 11.8588 26.7694V4.84995C11.8588 2.11581 9.72708 0.0458984 6.88481 0.0458984V0.0613371ZM4.42872 4.86539C4.42872 3.50604 5.41733 2.57922 6.88481 2.57922C8.35228 2.57922 9.34089 3.4906 9.34089 4.86539V9.3605H4.41326V4.86539H4.42872ZM9.35633 11.7548V17.4702H4.42872V11.7548H9.35633Z" fill="#8D93A5"/>
<path d="M31.9401 26.0438C31.9401 26.0438 31.8937 26.0438 31.8628 26.0438C31.1832 26.0438 30.6271 26.5845 30.5807 27.2796C30.5189 28.2991 29.7775 29.0406 28.8352 29.0406C27.7539 29.0406 27.2596 28.0674 27.2596 27.1097V5.08209C27.2596 2.13169 24.958 0 21.7913 0C18.6247 0 16.3231 2.13169 16.3231 5.08209V17.1463C16.3231 20.7455 15.4117 25.8584 12.832 29.4113C12.3995 29.9983 12.4922 30.8015 13.0328 31.234C13.2954 31.4349 13.6353 31.5275 13.9751 31.4966C14.3304 31.4503 14.6548 31.2804 14.8556 31.0024C16.8946 28.33 18.9336 23.0162 18.9336 17.1463V5.08209C18.9336 3.38291 20.3702 2.626 21.7913 2.626C23.0889 2.626 24.6027 3.27478 24.6027 5.08209V27.1097C24.6027 29.643 26.4255 31.5584 28.8352 31.5584C31.2449 31.5584 33.0523 29.782 33.1759 27.4495C33.2068 26.7389 32.6507 26.1056 31.9401 26.0593V26.0438Z" fill="#8D93A5"/>
<path d="M61.444 13.022C60.996 13.022 60.6253 13.2074 60.3627 13.5472C57.783 16.7139 54.6936 19.5252 51.0635 21.9813C48.3757 23.8041 45.9042 25.148 43.6644 26.013C43.479 26.0902 43.4018 26.0439 43.4018 25.8586V5.62284C43.4018 4.88138 42.7375 4.24805 41.9497 4.24805C41.1619 4.24805 40.575 4.85048 40.575 5.62284L40.6059 25.9358C40.6059 27.6195 41.7644 28.9171 43.3709 28.9171C43.7416 28.9171 44.1123 28.8398 44.5294 28.7008C47.0318 27.7276 49.7196 26.2756 52.5928 24.3293C56.4082 21.7187 59.7294 18.722 62.5253 15.3236C62.757 15.061 62.8651 14.7675 62.8651 14.4277C62.8651 13.6399 62.2318 13.0066 61.444 13.0066V13.022Z" fill="#8D93A5"/>
<path d="M88.9711 16.5444C88.9402 13.6712 88.9402 11.2923 88.9402 9.3151C88.9402 7.33787 87.2564 5.70049 85.2174 5.73139L69.3378 5.91674C68.5963 5.91674 67.9939 6.58097 67.9939 7.33788C67.9939 8.09478 68.6272 8.68177 69.3687 8.68177L85.2174 8.49641C85.8508 8.49641 86.1906 8.75901 86.1906 9.3151C86.1906 9.50047 86.1906 12.0029 86.2215 16.7297C86.2524 21.3484 86.2524 23.6964 86.2524 23.7736C86.2524 24.8549 86.067 25.0866 85.0166 25.0866L68.4264 25.3492C67.685 25.3492 67.0516 25.9825 67.0516 26.724C67.0516 27.4655 67.685 28.0988 68.4264 28.0988L85.063 27.8362C87.7044 27.8053 89.0174 26.4151 89.0174 23.7736C89.0174 21.8736 89.0174 19.4793 88.9865 16.5444H88.9711Z" fill="#8D93A5"/>
<g opacity="0.32">
<path d="M8.53117 47.8499H7.05841V42.6996H1.46598V47.8499H0V36.7046H1.46598V41.4938H7.05841V36.7046H8.53117V47.8499Z" fill="#7D859C"/>
<path d="M17.6051 43.7283L15.7115 38.5167L13.8315 43.7283L13.3904 44.9273L12.3452 47.8431H10.8385L15.0735 36.7046H16.3563L20.6049 47.8431H19.105L18.0462 44.9273L17.6119 43.7283H17.6051Z" fill="#7D859C"/>
<path d="M22.8721 47.8499V36.7046H26.0077C26.9715 36.7046 27.8266 36.9158 28.5664 37.345C29.3062 37.7742 29.883 38.3805 30.2835 39.1707C30.6907 39.961 30.8943 40.8671 30.8943 41.8958V42.6043C30.8943 43.6534 30.6907 44.5731 30.2903 45.3633C29.883 46.1536 29.3062 46.7599 28.5596 47.1823C27.813 47.6047 26.9375 47.8227 25.9398 47.8363H22.8654L22.8721 47.8499ZM24.3381 37.9104V46.6441H25.8788C27.0054 46.6441 27.8877 46.2899 28.5121 45.5882C29.1365 44.8865 29.4555 43.8782 29.4555 42.577V41.923C29.4555 40.6559 29.1568 39.6749 28.5664 38.9732C27.9759 38.2715 27.1343 37.9172 26.0484 37.9036H24.3381V37.9104Z" fill="#7D859C"/>
<path d="M53.5689 43.34H50.9628V47.8499H49.49V36.7046H53.1617C54.4105 36.7046 55.3743 36.9907 56.0462 37.563C56.7181 38.1352 57.0574 38.9664 57.0574 40.0564C57.0574 40.7512 56.8674 41.3576 56.4941 41.8685C56.1208 42.3863 55.5982 42.7678 54.9331 43.0266L57.5393 47.7546V47.8431H55.9715L53.5621 43.3332L53.5689 43.34ZM50.9628 42.141H53.2092C53.9354 42.141 54.5123 41.9503 54.9399 41.5756C55.3675 41.1941 55.5847 40.6899 55.5847 40.0564C55.5847 39.3683 55.381 38.8369 54.9738 38.469C54.5666 38.1012 53.9762 37.9172 53.2024 37.9104H50.9628V42.141Z" fill="#7D859C"/>
<path d="M66.1655 42.6996H61.3536V46.6441H66.9392V47.8431H59.8876V36.7046H66.8645V37.9104H61.3536V41.4938H66.1655V42.6928V42.6996Z" fill="#7D859C"/>
<path d="M77.7036 44.3142C77.5678 45.4927 77.1335 46.3988 76.4005 47.0392C75.6675 47.6796 74.7037 47.9998 73.4957 47.9998C72.1858 47.9998 71.1338 47.5297 70.3465 46.5827C69.5592 45.6426 69.1588 44.3755 69.1588 42.795V41.7254C69.1588 40.6899 69.3421 39.777 69.7086 38.9936C70.075 38.2101 70.5976 37.6038 71.2763 37.1814C71.955 36.759 72.7355 36.5479 73.6246 36.5479C74.8055 36.5479 75.7489 36.8749 76.4616 37.5357C77.1742 38.1965 77.5882 39.1094 77.7036 40.2811H76.2308C76.1018 39.3887 75.8304 38.7483 75.4028 38.3464C74.9752 37.9444 74.3848 37.7469 73.6246 37.7469C72.688 37.7469 71.955 38.0943 71.4256 38.7892C70.8963 39.4841 70.6316 40.4719 70.6316 41.7526V42.829C70.6316 44.0417 70.8827 45.0022 71.3849 45.7176C71.8872 46.4329 72.593 46.7871 73.4957 46.7871C74.3101 46.7871 74.9345 46.6032 75.3689 46.2353C75.8032 45.8674 76.0951 45.2202 76.2308 44.3005H77.7036V44.3142Z" fill="#7D859C"/>
<path d="M89.0173 42.6383C89.0173 43.7283 88.8341 44.682 88.4676 45.4995C88.1011 46.3171 87.5853 46.937 86.9133 47.3594C86.2414 47.7818 85.4609 47.9998 84.5651 47.9998C83.6692 47.9998 82.9158 47.7818 82.2371 47.3526C81.5585 46.9234 81.0359 46.3102 80.6626 45.5064C80.2893 44.7093 80.0993 43.7828 80.0857 42.7337V41.9298C80.0857 40.8602 80.2689 39.9133 80.6422 39.0889C81.0155 38.2646 81.5381 37.6379 82.2168 37.2019C82.8955 36.7659 83.6692 36.5479 84.5447 36.5479C85.4202 36.5479 86.2211 36.7659 86.893 37.195C87.5717 37.6242 88.0943 38.251 88.4608 39.0685C88.8273 39.886 89.0105 40.8398 89.0105 41.923V42.6247L89.0173 42.6383ZM87.5581 41.923C87.5581 40.6013 87.2934 39.5863 86.764 38.8846C86.2347 38.1829 85.4949 37.8286 84.5447 37.8286C83.5945 37.8286 82.8955 38.1829 82.3593 38.8846C81.8231 39.5863 81.5517 40.5741 81.5381 41.8276V42.6451C81.5381 43.9258 81.8028 44.9341 82.339 45.6631C82.8751 46.392 83.6149 46.7599 84.5515 46.7599C85.4881 46.7599 86.2279 46.4124 86.7437 45.7244C87.2595 45.0363 87.531 44.0417 87.5445 42.7541V41.9298L87.5581 41.923Z" fill="#7D859C"/>
<path d="M39.5815 43.7283L37.688 38.5167L35.808 43.7283L35.3668 44.9273L34.3216 47.8431H32.8149L37.05 36.7046H38.3327L42.5813 47.8431H41.0814L40.0227 44.9273L39.5883 43.7283H39.5815Z" fill="#7D859C"/>
</g>
</svg>
