<svg width="56" height="56" viewBox="0 0 56 56" fill="none" xmlns="http://www.w3.org/2000/svg">
<rect x="0.5" y="0.5" width="55" height="55" rx="27.5" stroke="#B9B5F1"/>
<g clip-path="url(#clip0_337_1102)">
<path d="M37.35 43.0668H29.8886C29.2378 43.0668 28.6992 42.5395 28.6992 41.8775V29.0079C28.6992 28.4694 29.0358 27.8298 29.4846 27.5269C29.552 27.482 31.0667 26.4609 33.6137 26.4609C36.1606 26.4609 37.6754 27.482 37.7427 27.5269C38.1915 27.8298 38.5281 28.4694 38.5281 29.0079V41.8887C38.5281 42.5395 38.0008 43.078 37.3388 43.078L37.35 43.0668ZM33.6249 27.482C31.4145 27.482 30.0793 28.3572 30.0681 28.3684C29.8998 28.4806 29.7315 28.806 29.7315 29.0079V41.8887C29.7315 41.9785 29.81 42.057 29.8998 42.057H37.3612C37.451 42.057 37.5295 41.9785 37.5295 41.8887V29.0079C37.5295 28.806 37.3612 28.4806 37.1929 28.3684C37.1817 28.3684 35.8465 27.482 33.6361 27.482H33.6249Z" fill="#B9B5F1"/>
<path d="M30.6856 35.0032C30.4051 35.0032 30.1807 34.7788 30.1807 34.4983V30.3693C30.1807 29.8307 30.5173 29.1911 30.9661 28.8882C30.9885 28.877 31.4934 28.5291 32.391 28.2374C32.6603 28.1477 32.9408 28.2935 33.0306 28.5628C33.1204 28.8321 32.9745 29.1126 32.7052 29.2024C31.9647 29.438 31.5495 29.7185 31.5383 29.7185C31.37 29.8307 31.2017 30.1561 31.2017 30.358V34.4871C31.2017 34.7676 30.9773 34.992 30.6968 34.992L30.6856 35.0032Z" fill="#B9B5F1"/>
<path d="M22.3148 43.9993C19.7679 43.9993 18.2531 42.9783 18.1858 42.9334C17.737 42.6304 17.4004 42.0021 17.4004 41.4635V38.5687H17.4116C17.4004 38.4229 17.4004 38.2545 17.4004 38.0638V37.0428C17.4004 36.852 17.4004 36.6725 17.4116 36.5266H17.4004V31.1634C17.4004 30.6248 17.737 29.9853 18.1858 29.6823C18.4214 29.5252 18.7356 29.5813 18.8927 29.817C19.0498 30.0526 18.9937 30.3668 18.758 30.5238C18.5897 30.636 18.4214 30.9614 18.4214 31.1634V38.4116V41.4523C18.4214 41.6543 18.5897 41.9797 18.758 42.0919C18.7693 42.0919 20.1045 42.9783 22.3148 42.9783C24.5252 42.9783 25.8604 42.1031 25.8716 42.0919C26.0399 41.9797 26.2082 41.6543 26.2082 41.4523V38.8717C26.2082 38.7707 26.2082 38.6585 26.2195 38.5575H26.2082V36.5266C26.2082 36.4257 26.2082 36.3135 26.2082 36.2125V31.1634C26.2082 30.9614 26.0399 30.636 25.8716 30.5238C25.636 30.3668 25.5799 30.0526 25.737 29.817C25.8941 29.5813 26.2082 29.5252 26.4439 29.6823C26.8927 29.9853 27.2293 30.6248 27.2293 31.1634V39.0736V41.4635C27.2293 42.0021 26.8927 42.6416 26.4439 42.9446C26.3765 42.9895 24.8618 44.0105 22.3148 44.0105V43.9993Z" fill="#B9B5F1"/>
<path d="M22.315 31.8833C20.1832 31.8833 18.9826 31.0867 18.9378 31.053C18.4889 30.7501 18.1523 30.1105 18.1523 29.5719V27.283H18.1636C18.1523 27.1596 18.1523 27.0137 18.1523 26.8567V26.0151C18.1523 25.8693 18.1523 25.7234 18.1636 25.5888H18.1523V23.2999C18.1523 22.7613 18.4889 22.1217 18.9378 21.8188C18.9378 21.8188 19.1285 21.6842 19.51 21.5158C19.7681 21.4036 20.071 21.5158 20.1832 21.7851C20.2954 22.0432 20.1832 22.3461 19.9139 22.4583C19.6671 22.5593 19.5324 22.6491 19.51 22.6603C19.3417 22.7725 19.1734 23.0867 19.1734 23.2999V26.7669V29.5607C19.1734 29.7627 19.3417 30.0881 19.51 30.2003C19.51 30.2003 20.5086 30.851 22.315 30.851C24.1215 30.851 25.1089 30.2003 25.1201 30.2003C25.2884 30.0881 25.4567 29.7627 25.4567 29.5607V27.9562C25.4567 27.6757 25.4567 27.4513 25.4791 27.283H25.4679V25.6C25.4679 25.4317 25.4679 25.2073 25.4679 24.9268V23.3223C25.4679 23.1203 25.2996 22.795 25.1313 22.6827C25.1201 22.6827 25.0303 22.6154 24.862 22.5369C24.604 22.4135 24.503 22.1105 24.6152 21.8637C24.7386 21.6056 25.0415 21.4934 25.2884 21.6168C25.5577 21.7403 25.7035 21.8412 25.7035 21.8412C26.1523 22.1442 26.489 22.7837 26.489 23.3223V27.7992V29.5719C26.489 30.1105 26.1523 30.7501 25.7035 31.053C25.6587 31.0867 24.4581 31.8833 22.3263 31.8833H22.315Z" fill="#B9B5F1"/>
<path d="M22.3818 23.5216C20.7998 23.5216 20.0593 23.0503 19.9807 22.9942C19.5319 22.6913 19.1953 22.0517 19.1953 21.5131V18.7866V17.0026C19.1953 16.7221 19.4197 16.4977 19.7002 16.4977C19.9807 16.4977 20.2051 16.7221 20.2051 17.0026V20.0209V21.5131C20.2051 21.7151 20.3734 22.0405 20.5417 22.1527C20.5417 22.1527 21.114 22.5005 22.3706 22.5005C23.6273 22.5005 24.1995 22.1527 24.1995 22.1415C24.3566 22.0293 24.5361 21.7039 24.5361 21.5019V20.6828C24.5361 20.4023 24.5361 20.1779 24.5586 20.0096H24.5473V18.7754C24.5473 18.6071 24.5473 18.3827 24.5473 18.1022V13.4346C24.5473 13.1541 24.7718 12.9297 25.0523 12.9297C25.3328 12.9297 25.5572 13.1541 25.5572 13.4346V20.5258V21.5131C25.5572 22.0517 25.2206 22.6913 24.7718 22.9942C24.6932 23.0503 23.9527 23.5216 22.3706 23.5216H22.3818Z" fill="#B9B5F1"/>
<path d="M20.6319 18.3618C20.2167 18.3618 19.8577 18.2384 19.5996 17.9803C18.7581 17.1388 19.3303 15.3099 20.9236 13.7166C22.5057 12.1121 24.3458 11.5511 25.1761 12.3814C26.0176 13.2229 25.4453 15.0518 23.8521 16.6451C22.7525 17.7447 21.5407 18.3506 20.6207 18.3506L20.6319 18.3618ZM24.1438 13.0098C23.9643 13.0098 23.7399 13.0546 23.5042 13.1444C22.9096 13.3688 22.2251 13.8288 21.6417 14.4235C21.0582 15.0182 20.587 15.6914 20.3626 16.2861C20.1943 16.7349 20.1831 17.1051 20.3177 17.251C20.6094 17.5539 21.8998 17.1724 23.1452 15.927C23.7399 15.3323 24.1999 14.6591 24.4243 14.0645C24.5926 13.6156 24.6038 13.2454 24.4692 13.0995C24.4019 13.0322 24.3009 13.0098 24.155 13.0098H24.1438Z" fill="#B9B5F1"/>
</g>
<line x1="11.9053" y1="11.1992" x2="44.8021" y2="44.096" stroke="#B9B5F1" stroke-linecap="round"/>
<defs>
<clipPath id="clip0_337_1102">
<rect width="21.1388" height="32" fill="white" transform="translate(17.4004 12)"/>
</clipPath>
</defs>
</svg>
