<svg width="56" height="56" viewBox="0 0 56 56" fill="none" xmlns="http://www.w3.org/2000/svg">
<rect x="0.5" y="0.5" width="55" height="55" rx="27.5" stroke="#B9B5F1"/>
<g clip-path="url(#clip0_337_1086)">
<path d="M40.1915 8.5H25.7262C24.729 8.5 23.918 9.30726 23.918 10.2998V19.8811C23.8117 19.9075 23.7186 19.9605 23.6388 20.0399C22.1231 21.7338 14.5182 30.1902 14.1592 31.818C13.787 33.4722 14.1858 44.4827 14.5315 45.5414C14.957 46.8515 22.4555 47.5 22.6018 47.5C24.1839 47.3544 26.6702 43.027 26.9892 42.2727C27.1887 41.8095 27.5742 40.6714 28.2656 38.4746H40.1915C41.1887 38.4746 41.9997 37.6673 41.9997 36.6748V10.2998C41.9997 9.30726 41.1887 8.5 40.1915 8.5V8.5ZM30.1934 25.9554C29.9541 25.8098 29.7148 25.7039 29.4622 25.6245C30.1934 24.9893 31.3235 24.3673 32.9722 24.3673C36.2428 24.3673 37.5059 26.8156 37.559 26.9214C37.6654 27.1332 37.8781 27.2523 38.1042 27.2523C38.1972 27.2523 38.2903 27.2258 38.3701 27.1861C38.6626 27.0406 38.7955 26.6832 38.6493 26.3921C38.5828 26.2598 37.0139 23.163 32.9854 23.163C30.1934 23.163 28.5714 24.6717 27.8401 25.5981C27.6141 25.651 27.3881 25.7304 27.1754 25.8495C26.2447 26.3259 25.6331 27.12 25.1545 27.9669V14.2038H40.8164V33.2207H30.0871C30.1402 33.1149 30.1934 33.009 30.2599 32.9031C30.9778 31.5533 31.8553 29.8858 31.8553 28.6815C31.8553 27.6493 31.1906 26.5509 30.1934 25.9554V25.9554ZM25.7262 9.70428H40.1782C40.5106 9.70428 40.7765 9.96895 40.7765 10.2998V13.0127H25.1279V10.2998C25.1279 9.96895 25.3938 9.70428 25.7262 9.70428V9.70428ZM25.8724 41.7962C25.2874 43.1196 23.1336 46.1766 22.4688 46.309C21.7376 46.3222 16.5524 45.5282 15.6217 45.0385C15.3425 43.5299 14.9968 33.4589 15.3159 32.0826C15.5154 31.2357 19.7433 26.1936 23.918 21.5353V30.4946C23.8515 30.6137 23.7984 30.7328 23.7319 30.8254C22.9873 31.9106 21.0329 34.0545 21.0196 34.0809C20.7936 34.3324 20.8202 34.7029 21.0595 34.9279C21.3121 35.1529 21.6844 35.1264 21.9104 34.8882C21.9902 34.7956 23.9313 32.6649 24.729 31.5136C24.8487 31.3415 24.9551 31.143 25.0481 30.9445C25.0481 30.9313 25.0747 30.9181 25.0747 30.8916C25.2077 30.6269 25.3406 30.3358 25.4736 30.0314C25.9788 28.8403 26.5638 27.5037 27.6939 26.9214C28.5182 26.498 29.2096 26.7891 29.5552 27.0008C30.1934 27.3846 30.6322 28.086 30.6322 28.708C30.6322 29.6079 29.7547 31.2754 29.1697 32.3738C28.9038 32.8767 28.7043 33.2604 28.5714 33.5913C28.5714 33.6045 28.5581 33.631 28.5448 33.6442C28.5182 33.6972 28.4916 33.7633 28.465 33.8163C28.3321 34.1736 28.0263 35.1793 27.654 36.3836L27.1222 38.0643C26.6967 39.4142 26.0985 41.2801 25.8591 41.8227L25.8724 41.7962ZM40.1782 37.2835H28.6379L28.8107 36.7145C29.1165 35.7219 29.3824 34.8882 29.5287 34.4382H40.7765V36.688C40.7765 37.0188 40.5106 37.2835 40.1782 37.2835V37.2835Z" fill="#B9B5F1"/>
<path d="M31.9616 12.1012H33.9692C34.3016 12.1012 34.5675 11.8365 34.5675 11.5057C34.5675 11.1748 34.3016 10.9102 33.9692 10.9102H31.9616C31.6292 10.9102 31.3633 11.1748 31.3633 11.5057C31.3633 11.8365 31.6292 12.1012 31.9616 12.1012Z" fill="#B9B5F1"/>
<path d="M32.9591 15.3164C30.9648 15.3164 29.3428 16.9309 29.3428 18.916C29.3428 20.9011 30.9648 22.5156 32.9591 22.5156C34.9534 22.5156 36.5754 20.9011 36.5754 18.916C36.5754 16.9309 34.9534 15.3164 32.9591 15.3164ZM32.9591 21.3113C31.6296 21.3113 30.5526 20.2394 30.5526 18.916C30.5526 17.5926 31.6296 16.5207 32.9591 16.5207C34.2886 16.5207 35.3656 17.5926 35.3656 18.916C35.3656 20.2394 34.2886 21.3113 32.9591 21.3113Z" fill="#B9B5F1"/>
<path d="M34.5677 35.2852H31.3502C31.0179 35.2852 30.752 35.5498 30.752 35.8807C30.752 36.2115 31.0179 36.4762 31.3502 36.4762H34.5677C34.9001 36.4762 35.166 36.2115 35.166 35.8807C35.166 35.5498 34.9001 35.2852 34.5677 35.2852Z" fill="#B9B5F1"/>
</g>
<defs>
<clipPath id="clip0_337_1086">
<rect width="28" height="39" fill="white" transform="translate(14 8.5)"/>
</clipPath>
</defs>
</svg>
