<svg width="56" height="56" viewBox="0 0 56 56" fill="none" xmlns="http://www.w3.org/2000/svg">
<rect x="0.5" y="0.5" width="55" height="55" rx="27.5" stroke="#B9B5F1"/>
<g clip-path="url(#clip0_337_1114)">
<path d="M31.5035 37.1651C27.7213 37.1651 24.6455 34.0893 24.6455 30.3072C24.6455 26.525 27.7213 23.4492 31.5035 23.4492C35.2856 23.4492 38.3614 26.525 38.3614 30.3072C38.3614 34.0893 35.2856 37.1651 31.5035 37.1651ZM31.5035 24.4745C28.2909 24.4745 25.6708 27.0946 25.6708 30.3072C25.6708 33.5197 28.2909 36.1399 31.5035 36.1399C34.716 36.1399 37.3361 33.5197 37.3361 30.3072C37.3361 27.0946 34.716 24.4745 31.5035 24.4745V24.4745Z" fill="#B9B5F1"/>
<path d="M31.5034 34.6826C29.0883 34.6826 27.1289 32.7232 27.1289 30.3081C27.1289 27.893 29.0883 25.9336 31.5034 25.9336C33.9185 25.9336 35.8779 27.893 35.8779 30.3081C35.8779 32.7232 33.9185 34.6826 31.5034 34.6826ZM31.5034 26.9589C29.6579 26.9589 28.1542 28.4626 28.1542 30.3081C28.1542 32.1536 29.6579 33.6573 31.5034 33.6573C33.3489 33.6573 34.8527 32.1536 34.8527 30.3081C34.8527 28.4626 33.3489 26.9589 31.5034 26.9589Z" fill="#B9B5F1"/>
<path d="M29.7714 30.8194C29.4866 30.8194 29.2588 30.5915 29.2588 30.3067C29.2588 29.065 30.2613 28.0625 31.503 28.0625C31.7878 28.0625 32.0156 28.2903 32.0156 28.5751C32.0156 28.8599 31.7878 29.0878 31.503 29.0878C30.8309 29.0878 30.2955 29.6346 30.2955 30.2953C30.2955 30.5801 30.0676 30.808 29.7828 30.808L29.7714 30.8194Z" fill="#B9B5F1"/>
<path d="M40.9474 31.7079C40.5601 31.7079 40.1956 31.5712 39.9222 31.3092C39.626 31.0358 39.4551 30.6599 39.4323 30.2498C39.4209 29.8397 39.5576 29.4523 39.831 29.1561C40.1044 28.8599 40.4804 28.6891 40.8905 28.6663C41.7335 28.6207 42.4284 29.2815 42.4626 30.1245C42.4967 30.9561 41.836 31.6624 41.0044 31.6965C40.9816 31.6965 40.9588 31.6965 40.9474 31.6965V31.7079ZM40.9474 29.703C40.9474 29.703 40.936 29.703 40.9246 29.703C40.7993 29.703 40.674 29.7599 40.5829 29.8624C40.4918 29.9536 40.4462 30.0789 40.4576 30.2156C40.4576 30.4776 40.6854 30.6827 40.9588 30.6827C41.2208 30.6827 41.4373 30.4434 41.4259 30.1814C41.4259 30.0561 41.3689 29.9308 41.2664 29.8397C41.1753 29.7599 41.0613 29.7143 40.936 29.7143L40.9474 29.703Z" fill="#B9B5F1"/>
<path d="M24.816 25.3541H21.9224C21.444 25.3541 21.0566 24.9668 21.0566 24.4883V22.9049C21.0566 22.4264 21.444 22.0391 21.9224 22.0391H24.816C25.2944 22.0391 25.6704 22.4264 25.6704 22.9049V24.4883C25.6704 24.9668 25.2831 25.3541 24.816 25.3541ZM22.0933 24.3175H24.6451V23.0757H22.0933V24.3175Z" fill="#B9B5F1"/>
<path d="M42.4507 40.0817H13.5493C12.6949 40.0817 12 39.3868 12 38.5324V21.3306C12 20.4762 12.6949 19.7812 13.5493 19.7812H42.4507C43.3051 19.7812 44 20.4762 44 21.3306V38.5324C44 39.3868 43.3051 40.0817 42.4507 40.0817ZM13.5493 20.8179C13.2645 20.8179 13.0367 21.0458 13.0367 21.3306V38.5324C13.0367 38.8172 13.2645 39.045 13.5493 39.045H42.4507C42.7355 39.045 42.9633 38.8172 42.9633 38.5324V21.3306C42.9633 21.0458 42.7355 20.8179 42.4507 20.8179H13.5493V20.8179Z" fill="#B9B5F1"/>
<path d="M19.5644 39.888C19.2796 39.888 19.0518 39.6602 19.0518 39.3754V20.2939C19.0518 20.0091 19.2796 19.7812 19.5644 19.7812C19.8492 19.7812 20.077 20.0091 20.077 20.2939V39.3754C20.077 39.6602 19.8492 39.888 19.5644 39.888Z" fill="#B9B5F1"/>
<path d="M36.1967 20.6137H22.2529L24.5313 16H33.9069L36.1853 20.6137H36.1967ZM23.9162 19.5771H34.5335L33.2689 17.0253H25.1693L23.9048 19.5771H23.9162Z" fill="#B9B5F1"/>
<path d="M20.0769 20.8177H14.6885V17.5938H20.0769V20.8177ZM15.7138 19.781H19.0402V18.619H15.7138V19.781Z" fill="#B9B5F1"/>
</g>
<defs>
<clipPath id="clip0_337_1114">
<rect width="32" height="24.0826" fill="white" transform="translate(12 16)"/>
</clipPath>
</defs>
</svg>
