<svg width="56" height="56" viewBox="0 0 56 56" fill="none" xmlns="http://www.w3.org/2000/svg">
<rect x="0.5" y="0.5" width="55" height="55" rx="27.5" stroke="#B9B5F1"/>
<g clip-path="url(#clip0_337_1100)">
<path d="M30.2432 17.4717C29.9448 17.3846 29.634 17.5587 29.547 17.857C29.547 17.8819 28.826 20.244 26.7249 20.8905C26.0536 21.1018 25.3947 21.2137 24.7731 21.3131C23.1818 21.5866 21.6775 21.8353 20.0862 23.5633C20.0862 23.5633 20.0738 23.5758 20.0614 23.5882C18.4825 25.3535 18.5571 29.4685 18.5571 29.6426C18.5571 29.9534 18.8182 30.1896 19.1165 30.1896C19.4273 30.1896 19.676 29.9285 19.6636 29.6177C19.6511 28.8469 19.7382 27.0567 20.1981 25.6643C20.4592 27.0567 20.9441 29.0707 21.7521 30.662C22.2246 31.6069 22.8586 32.4274 23.4802 33.0863V36.0202C23.4802 36.0202 23.4678 36.7164 22.9456 37.2013C22.5602 37.5618 21.951 37.7856 21.3046 37.7856H18.7685C18.0847 37.8229 15.7475 38.0715 14.4172 39.5882C13.0124 41.1795 13 43.3302 13 43.4173C13 43.7281 13.2486 43.9767 13.5594 43.9767C13.8702 43.9767 14.1189 43.7281 14.1189 43.4173C14.1189 43.4048 14.1437 41.5898 15.2626 40.3217C16.0956 39.3769 17.6496 38.9666 18.8057 38.9044H21.317C22.2618 38.9044 23.1445 38.5812 23.7413 38.0093C24.6115 37.1764 24.6239 36.0575 24.6239 36.0202V34.1554C25.3201 34.7397 25.8547 35.0878 25.9044 35.1251C25.9915 35.1873 26.1033 35.2121 26.2028 35.2121C26.3893 35.2121 26.5758 35.1127 26.6876 34.9511C26.8493 34.69 26.7747 34.3419 26.5012 34.1803C26.4763 34.1678 24.0023 32.6138 22.7716 30.1647C21.7148 28.0513 21.23 25.0303 21.1057 24.1352C22.3613 22.8671 23.5175 22.6558 24.972 22.4196C25.6309 22.3077 26.3271 22.1958 27.073 21.9596C29.7335 21.1391 30.6037 18.2922 30.641 18.1678C30.728 17.8695 30.554 17.5587 30.2556 17.4717H30.2432Z" fill="#B9B5F1"/>
<path d="M35.1168 25.9505C35.1168 25.9505 35.2038 25.963 35.2411 25.963C35.5022 25.963 35.7259 25.7889 35.7881 25.5278C35.813 25.3911 36.5216 22.2085 35.4151 19.3491C34.5325 17.0616 32.1828 15.5574 32.0834 15.4952C31.8223 15.3336 31.4742 15.4082 31.3126 15.6692C31.151 15.9303 31.2256 16.2784 31.4866 16.4525C31.5115 16.4649 33.6125 17.8324 34.3709 19.7594C35.353 22.2955 34.7065 25.2543 34.6941 25.2916C34.6195 25.59 34.8184 25.9008 35.1168 25.963V25.9505Z" fill="#B9B5F1"/>
<path d="M36.6586 37.8097H34.1473C33.5008 37.8097 32.8917 37.5859 32.5063 37.2254C31.9966 36.7281 31.9717 36.0444 31.9717 36.0444V33.8936C32.8171 33.1228 33.8241 32.0288 34.5078 30.6737C34.7192 30.251 34.9181 29.7662 35.117 29.244C35.2165 28.9457 35.0673 28.6224 34.7813 28.523C34.483 28.4235 34.1597 28.5727 34.0603 28.8587C33.8862 29.3435 33.6997 29.7786 33.5133 30.164C32.2949 32.6007 29.8085 34.1547 29.7837 34.1796C29.5226 34.3412 29.4356 34.6893 29.5972 34.9503C29.7091 35.1244 29.8831 35.2114 30.082 35.2114C30.1815 35.2114 30.2809 35.1865 30.3804 35.1244C30.4053 35.112 30.5917 34.9876 30.8652 34.8012V36.0319C30.8652 36.0319 30.8652 37.1881 31.7479 38.021C32.3447 38.5929 33.2273 38.9161 34.1722 38.9161H36.6461C37.8272 38.9783 39.3936 39.3886 40.2141 40.3334C41.333 41.6015 41.3579 43.4041 41.3579 43.429C41.3579 43.7398 41.6065 43.9884 41.9173 43.9884C42.2281 43.9884 42.4767 43.7398 42.4767 43.429C42.4767 43.3419 42.4643 41.1912 41.0595 39.5999C39.7293 38.0832 37.3921 37.847 36.671 37.7973L36.6586 37.8097Z" fill="#B9B5F1"/>
<path d="M42.8868 36.48C42.6631 36.2687 42.3025 36.2811 42.0912 36.5049C41.9669 36.6417 41.3701 36.8033 40.5372 36.5546C39.9653 36.393 38.5978 35.8211 38.2994 34.1428C38.1254 33.1856 38.374 30.1894 38.4735 29.1079C38.5108 28.7971 38.2746 28.5236 37.9762 28.4863C37.6654 28.4614 37.3919 28.6852 37.3546 28.9835C37.3173 29.3938 36.9568 33.0364 37.193 34.3293C37.4789 35.9206 38.6226 37.1638 40.2264 37.6238C40.6242 37.7357 41.022 37.7978 41.395 37.7978C42.0539 37.7978 42.6009 37.6114 42.9366 37.2633C43.1479 37.0395 43.1355 36.679 42.9117 36.4676L42.8868 36.48Z" fill="#B9B5F1"/>
<path d="M14.9391 36.9267C14.9391 36.9267 15.0013 36.9267 15.0386 36.9267C15.1629 36.9018 18.246 36.3423 18.9547 34.3657C19.34 33.2716 18.9422 32.0409 17.7612 30.6982C16.7293 29.5172 16.1947 25.0914 18.1714 21.8964C18.6314 21.1504 18.8055 20.3672 18.9795 19.6213C19.2903 18.2538 19.6011 16.8365 21.7394 15.2825C24.9593 12.9453 28.3533 12.9826 30.964 13.2561C32.8163 13.455 36.6081 14.8101 37.7021 18.4775C38.734 21.9585 37.8886 25.8497 37.8762 25.887C37.814 26.1854 38.0005 26.4962 38.2989 26.5584C38.5972 26.6205 38.908 26.434 38.9702 26.1357C39.0075 25.9616 39.9026 21.9336 38.7713 18.1543C37.6524 14.4744 33.9974 12.4605 31.0634 12.1372C28.4776 11.8513 24.6236 11.7767 21.0557 14.3626C18.5693 16.1652 18.1963 17.8559 17.8606 19.3602C17.699 20.0813 17.5623 20.7029 17.2017 21.2872C15.0013 24.8427 15.4986 29.8155 16.9034 31.4193C17.7985 32.4387 18.1217 33.2965 17.8855 33.9678C17.4877 35.0991 15.5483 35.671 14.8397 35.7953C14.5289 35.8451 14.3299 36.1434 14.3797 36.4418C14.4294 36.7153 14.6656 36.9142 14.9391 36.9142V36.9267Z" fill="#B9B5F1"/>
</g>
<defs>
<clipPath id="clip0_337_1100">
<rect width="30.0606" height="32" fill="white" transform="translate(13 12)"/>
</clipPath>
</defs>
</svg>
