<svg width="24" height="14" viewBox="0 0 24 14" fill="none" xmlns="http://www.w3.org/2000/svg">
<rect width="24" height="14" fill="url(#paint0_linear_339_1324)"/>
<path d="M7.17647 13C6.27451 13 5.5098 12.6866 4.88235 12.0599C4.29412 11.3963 4 10.5668 4 9.57143C4 7.69125 4.56863 6.01383 5.70588 4.53917C6.88235 3.06452 8.2549 1.88479 9.82353 1L10.8824 2.27189C10.2941 2.78802 9.88235 3.32258 9.64706 3.87557C9.41177 4.42857 9.29412 5.12903 9.29412 5.97696C9.29412 6.38249 9.45098 6.99078 9.76471 7.80184C10.1569 8.76037 10.3529 9.51613 10.3529 10.0691C10.3529 10.8802 10.0392 11.5806 9.41177 12.1705C8.78431 12.7235 8.03922 13 7.17647 13ZM16.2941 13C15.3922 13 14.6275 12.6866 14 12.0599C13.4118 11.3963 13.1176 10.5668 13.1176 9.57143C13.1176 7.69125 13.6863 6.01383 14.8235 4.53917C16 3.06452 17.3725 1.88479 18.9412 1L20 2.27189C19.4118 2.78802 19 3.32258 18.7647 3.87557C18.5294 4.42857 18.4118 5.12903 18.4118 5.97696C18.4118 6.38249 18.5686 6.99078 18.8824 7.80184C19.2745 8.76037 19.4706 9.51613 19.4706 10.0691C19.4706 10.8802 19.1569 11.5806 18.5294 12.1705C17.902 12.7235 17.1569 13 16.2941 13Z" fill="url(#paint1_linear_339_1324)"/>
<defs>
<linearGradient id="paint0_linear_339_1324" x1="0.5" y1="6.08996e-07" x2="24" y2="14" gradientUnits="userSpaceOnUse">
<stop stop-color="#FFECE8"/>
<stop offset="1" stop-color="#FFEDE7"/>
</linearGradient>
<linearGradient id="paint1_linear_339_1324" x1="5.58996" y1="4.96346" x2="22.5355" y2="7.30718" gradientUnits="userSpaceOnUse">
<stop stop-color="#FFAAC2"/>
<stop offset="1" stop-color="#FFD98E"/>
</linearGradient>
</defs>
</svg>
