<svg width="56" height="79" viewBox="0 0 56 79" fill="none" xmlns="http://www.w3.org/2000/svg">
<path d="M52.3833 0.5H23.4526C21.4583 0.5 19.8363 2.11452 19.8363 4.09959V23.2621C19.6236 23.3151 19.4374 23.4209 19.2779 23.5797C16.2465 26.9676 1.03666 43.8804 0.318711 47.1359C-0.425829 50.4444 0.371892 72.4654 1.06325 74.5828C1.91415 77.2031 16.9113 78.5 17.2038 78.5C20.3681 78.2089 25.3406 69.554 25.9787 68.0453C26.3776 67.1189 27.1487 64.8427 28.5314 60.4491H52.3833C54.3776 60.4491 55.9996 58.8346 55.9996 56.8495V4.09959C55.9996 2.11452 54.3776 0.5 52.3833 0.5ZM32.3871 35.4108C31.9085 35.1196 31.4298 34.9079 30.9246 34.7491C32.3871 33.4786 34.6473 32.2346 37.9445 32.2346C44.4859 32.2346 47.012 37.1312 47.1183 37.3429C47.3311 37.7664 47.7565 38.0046 48.2085 38.0046C48.3947 38.0046 48.5808 37.9516 48.7404 37.8722C49.3254 37.5811 49.5913 36.8665 49.2988 36.2842C49.1658 36.0195 46.0281 29.8261 37.9711 29.8261C32.3871 29.8261 29.143 32.8434 27.6805 34.6961C27.2285 34.802 26.7765 34.9608 26.351 35.199C24.4897 36.1518 23.2665 37.7399 22.3092 39.4338V11.9075H53.6331V49.9415H32.1744C32.2807 49.7297 32.3871 49.518 32.52 49.3062C33.9559 46.6066 35.7109 43.2716 35.7109 40.8631C35.7109 38.7986 34.3814 36.6018 32.3871 35.4108ZM23.4526 2.90855H52.3567C53.0215 2.90855 53.5533 3.4379 53.5533 4.09959V9.52545H22.256V4.09959C22.256 3.4379 22.7878 2.90855 23.4526 2.90855ZM23.7451 67.0925C22.5751 69.7392 18.2674 75.8532 16.9379 76.1179C15.4754 76.1444 5.10504 74.5563 3.24369 73.577C2.68528 70.5597 1.99392 50.4179 2.6321 47.6653C3.03096 45.9713 11.4868 35.8872 19.8363 26.5706V44.4891C19.7033 44.7274 19.597 44.9656 19.464 45.1508C17.9749 47.3212 14.0661 51.6089 14.0395 51.6619C13.5875 52.1647 13.6406 52.9058 14.1193 53.3558C14.6245 53.8057 15.369 53.7528 15.8211 53.2764C15.9806 53.0911 19.8629 48.8298 21.4583 46.5271C21.6976 46.1831 21.9104 45.7861 22.0965 45.389C22.0965 45.3626 22.1497 45.3361 22.1497 45.2832C22.4156 44.7538 22.6815 44.1715 22.9474 43.5628C23.9578 41.1807 25.1278 38.5075 27.388 37.3429C29.0367 36.4959 30.4194 37.0782 31.1107 37.5017C32.3871 38.2693 33.2646 39.672 33.2646 40.916C33.2646 42.7158 31.5096 46.0507 30.3396 48.2475C29.8078 49.2533 29.4089 50.0209 29.143 50.6826C29.143 50.709 29.1164 50.762 29.0898 50.7884C29.0367 50.8943 28.9835 51.0266 28.9303 51.1325C28.6644 51.8471 28.0528 53.8587 27.3083 56.2672L26.2446 59.6286C25.3937 62.3283 24.1972 66.0602 23.7185 67.1454L23.7451 67.0925ZM52.3567 58.067H29.276L29.6217 56.9289C30.2332 54.9438 30.7651 53.2764 31.0576 52.3765H53.5533V56.876C53.5533 57.5377 53.0215 58.067 52.3567 58.067Z" fill="#B9B5F1"/>
</svg>
