<svg width="20" height="41" viewBox="0 0 20 41" fill="none" xmlns="http://www.w3.org/2000/svg">
<path opacity="0.5" d="M2.5787 1.24979L19.5355 19.5695C19.8333 19.8913 20 20.3228 20 20.7722C20 21.2215 19.8333 21.6531 19.5355 21.9749L2.5787 40.3015C2.43997 40.4515 2.27411 40.5708 2.09089 40.6522C1.90767 40.7337 1.71082 40.7756 1.51195 40.7756C1.31309 40.7756 1.11623 40.7337 0.933016 40.6522C0.749798 40.5708 0.583931 40.4515 0.4452 40.3015C0.159786 39.9937 0 39.5806 0 39.1505C0 38.7203 0.159786 38.3072 0.4452 37.9995L16.3909 20.7722L0.4452 3.54837C0.160767 3.24079 0.00159836 2.82842 0.00159836 2.39908C0.00159836 1.96974 0.160767 1.55737 0.4452 1.24979C0.583931 1.09973 0.749798 0.980466 0.933016 0.899029C1.11623 0.817592 1.31309 0.775635 1.51195 0.775635C1.71082 0.775635 1.90767 0.817592 2.09089 0.899029C2.27411 0.980466 2.43997 1.09973 2.5787 1.24979Z" fill="#7F8EBD"/>
</svg>
