<svg width="20" height="41" viewBox="0 0 20 41" fill="none" xmlns="http://www.w3.org/2000/svg">
<path opacity="0.5" d="M17.4213 1.24979L0.464499 19.5695C0.166679 19.8913 0 20.3228 0 20.7722C0 21.2215 0.166679 21.6531 0.464499 21.9749L17.4213 40.3015C17.56 40.4515 17.7259 40.5708 17.9091 40.6522C18.0923 40.7337 18.2892 40.7756 18.488 40.7756C18.6869 40.7756 18.8838 40.7337 19.067 40.6522C19.2502 40.5708 19.4161 40.4515 19.5548 40.3015C19.8402 39.9937 20 39.5806 20 39.1505C20 38.7203 19.8402 38.3072 19.5548 37.9995L3.60913 20.7722L19.5548 3.54837C19.8392 3.24079 19.9984 2.82842 19.9984 2.39908C19.9984 1.96974 19.8392 1.55737 19.5548 1.24979C19.4161 1.09973 19.2502 0.980466 19.067 0.899029C18.8838 0.817592 18.6869 0.775635 18.488 0.775635C18.2892 0.775635 18.0923 0.817592 17.9091 0.899029C17.7259 0.980466 17.56 1.09973 17.4213 1.24979Z" fill="#7F8EBD"/>
</svg>
