<svg width="16" height="12" viewBox="0 0 16 12" fill="none" xmlns="http://www.w3.org/2000/svg">
<path d="M3.17647 12C2.27451 12 1.5098 11.6866 0.882353 11.0599C0.294118 10.3963 0 9.56682 0 8.57143C0 6.69125 0.568627 5.01383 1.70588 3.53917C2.88235 2.06452 4.2549 0.884792 5.82353 0L6.88235 1.27189C6.29412 1.78802 5.88235 2.32258 5.64706 2.87557C5.41177 3.42857 5.29412 4.12903 5.29412 4.97696C5.29412 5.38249 5.45098 5.99078 5.76471 6.80184C6.15686 7.76037 6.35294 8.51613 6.35294 9.06913C6.35294 9.88019 6.03922 10.5806 5.41177 11.1705C4.78431 11.7235 4.03922 12 3.17647 12ZM12.2941 12C11.3922 12 10.6275 11.6866 10 11.0599C9.41176 10.3963 9.11765 9.56682 9.11765 8.57143C9.11765 6.69125 9.68628 5.01383 10.8235 3.53917C12 2.06452 13.3725 0.884792 14.9412 0L16 1.27189C15.4118 1.78802 15 2.32258 14.7647 2.87557C14.5294 3.42857 14.4118 4.12903 14.4118 4.97696C14.4118 5.38249 14.5686 5.99078 14.8824 6.80184C15.2745 7.76037 15.4706 8.51613 15.4706 9.06913C15.4706 9.88019 15.1569 10.5806 14.5294 11.1705C13.902 11.7235 13.1569 12 12.2941 12Z" fill="url(#paint0_linear_2994_45788)"/>
<defs>
<linearGradient id="paint0_linear_2994_45788" x1="8" y1="0" x2="8" y2="12" gradientUnits="userSpaceOnUse">
<stop stop-color="#8DCCF0"/>
<stop offset="1" stop-color="#ECB7EA"/>
</linearGradient>
</defs>
</svg>
