<svg width="16" height="12" viewBox="0 0 16 12" fill="none" xmlns="http://www.w3.org/2000/svg">
<path d="M3.73684 0C4.64912 0 5.42105 0.336134 6.05263 1.0084C6.68421 1.64706 7 2.5042 7 3.57983C7 5.36134 6.4386 6.97479 5.31579 8.42017C4.19298 9.86555 2.80702 11.0588 1.15789 12L0 10.6387C0.561404 10.1008 0.947368 9.57983 1.15789 9.07563C1.36842 8.57143 1.47368 7.94958 1.47368 7.21008C1.47368 6.7395 1.31579 6.11765 1 5.34454C0.649123 4.40336 0.473684 3.66387 0.473684 3.12605C0.473684 2.2521 0.789474 1.51261 1.42105 0.907563C2.05263 0.302521 2.82456 0 3.73684 0ZM12.7368 0C13.6491 0 14.4211 0.336134 15.0526 1.0084C15.6842 1.64706 16 2.5042 16 3.57983C16 5.36134 15.4386 6.97479 14.3158 8.42017C13.193 9.86555 11.807 11.0588 10.1579 12L9 10.6387C9.5614 10.1008 9.94737 9.57983 10.1579 9.07563C10.3684 8.57143 10.4737 7.94958 10.4737 7.21008C10.4737 6.7395 10.3158 6.11765 10 5.34454C9.64912 4.40336 9.47368 3.66387 9.47368 3.12605C9.47368 2.2521 9.78947 1.51261 10.4211 0.907563C11.0526 0.302521 11.8246 0 12.7368 0Z" fill="url(#paint0_linear_2994_45789)"/>
<defs>
<linearGradient id="paint0_linear_2994_45789" x1="8" y1="0" x2="8" y2="12" gradientUnits="userSpaceOnUse">
<stop stop-color="#8DCCF0"/>
<stop offset="1" stop-color="#ECB7EA"/>
</linearGradient>
</defs>
</svg>
