<svg width="97" height="69" viewBox="0 0 97 69" fill="none" xmlns="http://www.w3.org/2000/svg">
<path opacity="0.7" d="M16.9932 53.8733C16.547 53.8302 16.1855 53.7842 15.9088 53.7355C15.6364 53.7105 15.5001 53.6979 15.5001 53.6979C15.5265 53.5714 15.4842 53.4692 15.3729 53.3914C15.2854 53.3093 15.1095 53.2794 14.8453 53.3016C14.4533 53.1514 14.0745 52.938 13.7089 52.6612C13.3711 52.404 13.0805 52.1384 12.8373 51.8645C12.594 51.5906 12.4064 51.3556 12.2743 51.1595C12.0464 50.8342 11.9261 50.636 11.9136 50.5651C11.9206 50.4664 12.0436 50.3351 12.2828 50.171C12.5094 49.9361 12.6881 49.8437 12.8188 49.8938C12.9731 49.9397 13.1802 50.1468 13.4402 50.5153C13.8433 51.0047 14.4362 51.3267 15.2189 51.4811C16.0252 51.6314 16.8872 51.6134 17.8048 51.4272C18.7419 51.2133 19.6025 50.8422 20.3867 50.314C21.1987 49.8052 21.6777 49.343 21.8238 48.9274C21.9893 48.4839 21.817 47.9903 21.3068 47.4466C21.2026 47.2701 21.0927 47.131 20.9774 47.0295C20.862 46.928 20.6813 46.8015 20.4352 46.6499C20.2128 46.4942 19.8395 46.2432 19.3154 45.8969C18.9317 45.794 18.5737 45.6987 18.2415 45.611C17.9329 45.5192 17.5985 45.4198 17.2384 45.3127C16.8269 45.1903 16.3181 44.9998 15.712 44.7411C15.1253 44.4546 14.5561 44.1285 14.0042 43.7628C13.4523 43.3971 13.0366 43.0439 12.7572 42.7032C12.3165 42.4154 11.9475 41.9808 11.65 41.3997C11.3484 40.7948 11.1588 40.1337 11.081 39.4163C11.0032 38.6989 11.068 38.0295 11.2752 37.4081C11.3587 37.0522 11.5242 36.6087 11.7717 36.0777C12.0388 35.5188 12.3412 34.9537 12.6791 34.3823C13.0171 33.811 13.3515 33.289 13.6824 32.8163C14.0134 32.3437 14.2943 32.0017 14.5251 31.7904C14.6808 31.568 14.8484 31.3435 15.0278 31.1169C15.203 30.8667 15.2906 30.7416 15.2906 30.7416C15.2934 30.6192 15.3184 30.5539 15.3657 30.5455C15.4366 30.533 15.4721 30.5268 15.4721 30.5268C15.5777 30.435 15.8169 30.271 16.1895 30.0347C16.5621 29.7984 16.9452 29.4141 17.3387 28.8816C18.7889 27.8461 19.9791 27.0635 20.9093 26.534C21.8395 26.0044 22.6236 25.6833 23.2618 25.5708C23.8569 25.4903 24.4137 25.5383 24.9322 25.7149C25.4702 25.8638 25.9283 26.112 26.3064 26.4596C26.7081 26.8031 26.9945 27.2522 27.1654 27.8069C27.4309 28.345 27.5003 29.0151 27.3737 29.8173C27.2429 30.5959 26.9758 31.3619 26.5725 32.1153C26.1887 32.841 25.7305 33.4214 25.198 33.8565C24.5862 34.2568 24.1601 34.466 23.9196 34.484C23.6985 34.4743 23.5602 34.2428 23.5047 33.7895C23.4713 33.6004 23.4908 33.3655 23.5631 33.0846C23.6591 32.7997 23.9442 32.2742 24.4184 31.5082C24.9788 30.264 25.2835 29.2964 25.3322 28.6054C25.381 27.9144 25.1627 27.5752 24.6775 27.5876C24.5274 27.5654 24.2674 27.6112 23.8976 27.7252C23.5514 27.8349 23.1621 27.9767 22.7297 28.1504C22.3167 28.2963 21.965 28.4437 21.6744 28.5924C21.3796 28.7175 21.2364 28.8036 21.2447 28.8509C21.2447 28.8509 21.251 28.8864 21.2635 28.9573C21.276 29.0282 21.2329 29.0601 21.1342 29.0532C21.0869 29.0615 20.9027 29.1915 20.5815 29.4431C20.2603 29.6947 19.8786 30.0179 19.4365 30.4126C18.9943 30.8074 18.5521 31.2022 18.11 31.597C17.6678 31.9918 17.2903 32.3386 16.9774 32.6374C16.6841 32.9085 16.5297 33.0698 16.5144 33.1212C16.513 33.3895 16.2828 33.6738 15.824 33.974C15.4013 34.341 15.037 34.8317 14.731 35.4462C14.4487 36.0565 14.1421 36.8051 13.8111 37.6921C13.5051 38.3065 13.3257 38.9474 13.2728 39.6148C13.2157 40.2585 13.3032 40.7548 13.5353 41.1038C13.7202 41.4611 14.1719 41.881 14.8907 42.3636C15.6094 42.8461 16.4775 43.2779 17.4952 43.659C18.378 43.9664 19.178 44.2883 19.8954 44.6249C20.6085 44.9378 21.2014 45.2597 21.6741 45.5907C22.1704 45.9175 22.5165 46.222 22.7125 46.5042C23.067 46.856 23.3408 47.2342 23.534 47.6388C23.7467 48.0156 23.8863 48.3931 23.953 48.7713C24.0433 49.1453 24.0683 49.4942 24.0279 49.8182C23.9292 50.2255 23.7025 50.6676 23.3479 51.1444C23.017 51.617 22.7076 51.8666 22.4198 51.8929C22.1723 52.0097 21.986 52.1278 21.8609 52.2474C21.7593 52.3628 21.6321 52.4705 21.4792 52.5706C21.3304 52.6943 20.9925 52.8513 20.4656 53.0417C19.9623 53.228 19.3936 53.3891 18.7597 53.5253C18.1298 53.6851 17.541 53.8011 16.9932 53.8733ZM31.9122 49.1591C31.6439 49.1576 31.3492 49.0756 31.028 48.9128C30.7264 48.7223 30.4442 48.504 30.1814 48.2579C29.9382 47.984 29.7603 47.7351 29.6477 47.5113C29.6393 47.464 29.5935 47.4111 29.5101 47.3527C29.4503 47.2902 29.4204 47.2589 29.4204 47.2589C29.3134 47.2046 29.2001 46.9078 29.0806 46.3684C28.9806 45.8011 28.9056 45.1685 28.8556 44.4706C28.8057 43.7727 28.7926 43.2145 28.8162 42.796C28.8677 42.397 28.9554 41.8576 29.0792 41.1777C29.1989 40.4743 29.2956 39.848 29.3694 39.2988L29.964 37.0737L28.4771 36.9338C28.3034 36.9157 28.1449 36.8462 28.0017 36.7252C27.8821 36.6001 27.814 36.4902 27.7974 36.3957C27.764 36.2066 27.8308 35.9633 27.9977 35.6658C28.1604 35.3447 28.289 35.1758 28.3835 35.1591C28.5059 35.1619 28.7207 35.1362 29.0279 35.082C29.3588 35.0237 29.6758 34.9556 29.9789 34.8778C30.282 34.8 30.4669 34.743 30.5337 34.7069C30.6199 34.6429 30.704 34.5672 30.786 34.4796C30.8639 34.3684 30.9119 34.2259 30.93 34.0521C31.0023 33.7713 31.067 33.5162 31.124 33.2868C31.1769 33.0338 31.2611 32.7508 31.3765 32.438C31.4878 32.1016 31.5719 31.8187 31.629 31.5893C31.7096 31.3558 31.8348 31.0291 32.0045 30.6092C32.0935 30.4229 32.188 30.1991 32.2882 29.9378C32.3883 29.6764 32.5302 29.4442 32.7137 29.2413C32.8931 29.0147 33.0912 28.8945 33.3081 28.8806C33.5445 28.8389 33.867 28.9404 34.2757 29.1852C34.5065 29.3882 34.6441 29.5467 34.6885 29.6607C34.733 29.7747 34.6781 30.0159 34.5237 30.3843C34.4055 30.8195 34.2518 31.2609 34.0626 31.7085C33.8971 32.152 33.7434 32.5934 33.6016 33.0327C33.3151 33.6194 33.2963 33.9273 33.5451 33.9565C33.794 33.9858 34.4474 33.8218 35.5055 33.4647C36.1701 33.2256 36.6727 33.1735 37.0133 33.3085C37.3497 33.4197 37.577 33.6721 37.6951 34.0656C37.866 34.6203 37.8674 34.9734 37.6991 35.125C37.5309 35.2765 36.9977 35.4314 36.0996 35.5898C35.549 35.7843 35.0749 35.9289 34.6772 36.0234C34.2754 36.0942 33.98 36.1463 33.7909 36.1796C33.4878 36.2574 33.289 36.3047 33.1945 36.3214C33.0999 36.338 32.9623 36.3867 32.7815 36.4673C32.6008 36.5479 32.4735 36.6556 32.3998 36.7905C32.3456 36.8975 32.2879 37.0539 32.2267 37.2597C32.1488 37.3709 32.0508 37.6441 31.9325 38.0792C31.8143 38.5143 31.655 38.9933 31.4548 39.516C31.2989 40.567 31.1903 41.6097 31.129 42.6441C31.0635 43.6548 31.0411 44.6336 31.0619 45.5803C31.0715 46.1879 31.1563 46.5994 31.3161 46.815C31.4718 47.0068 31.802 47.0827 32.3067 47.0424C32.5708 47.0202 32.9844 46.9473 33.5475 46.8236C34.1301 46.6721 34.5784 46.52 34.8927 46.3671C35.1318 46.2031 35.3828 46.037 35.6456 45.8688C35.9042 45.677 36.1392 45.4893 36.3505 45.3058C36.5424 45.1501 36.7343 44.9944 36.9262 44.8388C37.1139 44.6594 37.2077 44.5698 37.2077 44.5698C37.2926 44.3599 37.4122 44.2778 37.5665 44.3237C37.7208 44.3696 37.8702 44.5261 38.0148 44.793C38.0648 45.0766 38.0578 45.3825 37.9938 45.7106C37.9298 46.0387 37.5571 46.4822 36.8758 47.041C35.9289 47.8903 35.0189 48.465 34.1458 48.7652C33.2921 49.0376 32.5476 49.1689 31.9122 49.1591ZM46.913 45.4905C46.4917 46.0034 45.9564 46.3537 45.3071 46.5413C44.6815 46.7247 44.0385 46.7406 43.3781 46.589C42.7136 46.4137 42.1304 46.0779 41.6286 45.5815C41.1351 45.1323 40.7709 44.5873 40.536 43.9464C40.297 43.2818 40.1289 42.3975 40.0317 41.2936C39.9401 40.3593 40.073 39.3855 40.4304 38.372C40.7837 37.3349 41.2621 36.3854 41.8656 35.5235C42.4927 34.6574 43.1477 34.018 43.8303 33.6052C44.1432 33.3063 44.4199 33.1479 44.6604 33.1298C44.9204 33.084 45.3146 33.0389 45.8429 32.9944C46.399 32.9695 46.8195 33.005 47.1045 33.101C47.4132 33.1928 47.671 33.3423 47.8782 33.5494C48.2952 33.8415 48.5941 34.1543 48.7748 34.488C48.9513 34.7981 49.0687 35.1185 49.1271 35.4494C49.1242 35.9861 48.8822 36.6868 48.401 37.5515C47.9394 38.3883 47.2657 39.1286 46.38 39.7721C45.8892 40.0293 45.3344 40.2002 44.7157 40.2849C44.097 40.3696 43.5618 40.3056 43.11 40.0928C42.6276 39.9829 42.3384 40.0705 42.2424 40.3555C42.1423 40.6168 42.1165 41.2307 42.165 42.1969C42.2288 43.1117 42.4164 43.761 42.7278 44.1448C43.035 44.5049 43.3957 44.685 43.81 44.685C44.2994 44.6962 44.6783 44.7025 44.9466 44.704C45.2344 44.6776 45.5583 44.5108 45.9185 44.2036C46.255 43.9006 46.4684 43.7289 46.5588 43.6886C46.645 43.6247 46.7075 43.5649 46.7465 43.5093C46.8049 43.4259 46.9314 43.2451 47.1261 42.9671C47.2624 42.7725 47.3715 42.6314 47.4536 42.5438C47.5314 42.4326 47.6295 42.3666 47.7476 42.3458C47.8658 42.3249 47.9826 42.3652 48.098 42.4668C48.2092 42.5446 48.3162 42.5989 48.4191 42.6295C48.6555 42.5878 48.7277 42.7213 48.6359 43.0299C48.5678 43.3344 48.38 43.7208 48.0727 44.1893C47.7612 44.6342 47.3747 45.0679 46.913 45.4905ZM45.5523 37.9807C45.7915 37.8166 46.0341 37.6033 46.2802 37.3405C46.5221 37.0542 46.7147 36.7643 46.858 36.471C47.0207 36.1499 47.0854 35.8947 47.052 35.7057C46.9937 35.3748 46.7921 35.13 46.4474 34.9715C46.0984 34.7893 45.6313 34.8351 45.0459 35.109C44.7985 35.2257 44.5343 35.4551 44.2534 35.797C43.9683 36.1154 43.7013 36.4671 43.4524 36.8521C43.2272 37.2331 43.0429 37.5702 42.8997 37.8635C42.7801 38.1527 42.7481 38.3167 42.8037 38.3556C42.8954 38.4613 43.113 38.5204 43.4564 38.533C43.7956 38.5219 44.164 38.4691 44.5617 38.3747C44.9829 38.276 45.3131 38.1447 45.5523 37.9807ZM53.6571 51.9779C53.4068 52.217 53.1093 52.2573 52.7645 52.0988C52.4433 51.936 52.1744 51.6545 51.9575 51.254C51.7407 50.8536 51.6733 50.4025 51.7554 49.9006C51.7777 49.7504 51.8069 49.5016 51.8431 49.154C51.8835 48.8301 51.8947 48.5479 51.8766 48.3073C51.8711 48.1377 51.892 47.8416 51.9393 47.4189C51.9908 47.0199 52.0541 46.6189 52.1292 46.2157C52.228 45.8083 52.3101 45.5136 52.3755 45.3315C52.4756 45.0701 52.5222 44.7817 52.5153 44.4661C52.532 44.1463 52.5258 43.9037 52.4966 43.7383C52.5147 43.5645 52.5405 43.365 52.5739 43.1397C52.6309 42.9104 52.6963 42.7282 52.77 42.5934C52.7839 42.396 52.8194 42.1826 52.8764 41.9532C52.9293 41.7002 53.0002 41.4805 53.0892 41.2942C53.1073 41.1204 53.1074 40.9133 53.0893 40.6728C53.0949 40.4281 53.1429 40.2856 53.2333 40.2453C53.2402 40.1466 53.2354 40.0499 53.2187 39.9554C53.2257 39.8567 53.25 39.7184 53.2918 39.5404C53.2932 39.2721 53.3329 38.8752 53.4108 38.3496C53.4887 37.8241 53.5938 37.2451 53.7259 36.6125C53.8651 35.8813 53.8686 35.2104 53.7366 34.6001C53.6241 33.9619 53.3781 33.6032 52.9986 33.5239C52.7928 33.4627 52.6517 33.3536 52.5753 33.1964C52.4946 33.0157 52.4849 32.8224 52.5461 32.6167C52.6073 32.4109 52.7262 32.2559 52.9028 32.1517C53.0989 32.0196 53.3171 31.9446 53.5577 31.9266C53.8218 31.9044 54.0547 31.912 54.2563 31.9496C54.4537 31.9635 54.5448 31.9962 54.5295 32.0476C54.5503 32.1658 54.6219 32.2263 54.7442 32.2291C54.779 32.1499 54.8881 32.2159 55.0716 32.4273C55.2746 32.6108 55.472 32.8319 55.6638 33.0905C55.8556 33.3491 55.9619 33.5375 55.9828 33.6557C55.9522 33.7586 55.939 33.8218 55.9431 33.8455C55.9431 33.8455 55.9904 33.8371 56.0849 33.8205C56.0849 33.8205 56.2045 33.7385 56.4437 33.5744C56.6786 33.3868 56.9234 33.1852 57.1778 32.9698C57.4517 32.7265 57.6276 32.5493 57.7055 32.4381C57.7055 32.4381 57.7604 32.404 57.8703 32.3359C57.9996 32.24 58.1032 32.1364 58.181 32.0252C58.6204 31.7528 59.1223 31.6277 59.6868 31.6501C60.2749 31.6682 60.7614 31.8017 61.1465 32.0507C61.7234 32.5582 62.0598 33.0838 62.1556 33.6274C62.2751 34.1668 62.2424 34.8793 62.0573 35.7649C62.0309 35.8914 61.96 36.1111 61.8445 36.4239C61.7485 36.7089 61.6505 36.9821 61.5504 37.2434C61.4461 37.4811 61.3939 37.6 61.3939 37.6C61.0003 38.5467 60.4872 39.3683 59.8545 40.0648C59.2218 40.7612 58.5648 41.3888 57.8835 41.9476C57.6763 42.1547 57.4511 42.3285 57.2078 42.4689C56.9839 42.5815 56.7795 42.6662 56.5946 42.7232C56.4055 42.7566 56.2714 42.7558 56.1921 42.7211C55.8988 42.5778 55.5916 42.2177 55.2705 41.6407C55.2065 41.9688 55.1425 42.2969 55.0785 42.625C55.034 42.9253 55.0083 43.1248 55.0013 43.2235C55.0068 43.3931 55.0082 43.5391 55.0054 43.6614C54.9984 43.7602 54.9539 43.8533 54.8719 43.9409C54.8719 43.9409 54.8684 43.9902 54.8614 44.0889C54.8545 44.1876 54.7968 44.344 54.6883 44.5581C54.5728 45.2852 54.4643 45.9136 54.3627 46.4433C54.2653 46.9966 54.1888 47.461 54.1331 47.8363C54.0816 48.2353 54.0454 48.5829 54.0245 48.879C54.0898 49.5255 54.0702 50.1748 53.9659 50.8268C53.8657 51.5025 53.7627 51.8862 53.6571 51.9779ZM56.0943 41.1299C56.1806 41.0659 56.3585 40.9005 56.6283 40.6336C56.9175 40.3389 57.2359 40.0025 57.5835 39.6244C57.927 39.2227 58.2392 38.8508 58.5201 38.5088C58.8246 38.1627 59.0234 37.9083 59.1166 37.7457C59.2682 37.4996 59.4058 37.2438 59.5296 36.9783C59.6492 36.6891 59.7292 36.3826 59.7696 36.0586C59.8071 35.8571 59.8524 35.6298 59.9052 35.3767C59.9581 35.1237 60.0012 34.8846 60.0346 34.6594C60.0958 34.4536 60.0979 34.2583 60.041 34.0734C60.0034 33.8606 59.9013 33.6959 59.7345 33.5791C59.6358 33.5721 59.3646 33.693 58.9211 33.9418C58.4734 34.167 57.9972 34.5068 57.4924 34.9614C56.9835 35.3923 56.5643 35.9171 56.2347 36.5357C55.8509 37.2614 55.6012 37.9878 55.4857 38.7149C55.3939 39.4378 55.4014 40.0336 55.5084 40.5021C55.6391 40.9665 55.8344 41.1757 56.0943 41.1299ZM67.374 41.2612C66.9541 41.5058 66.5905 41.6552 66.2832 41.7094C65.9954 41.7358 65.6514 41.6502 65.251 41.4528C64.7269 41.1065 64.4983 40.7082 64.5651 40.2577C64.6513 39.7795 64.9642 39.2735 65.5037 38.7397C65.8833 38.4047 66.1656 38.2087 66.3505 38.1517C66.559 38.0905 66.8927 38.117 67.3515 38.2311C68.1397 38.5551 68.5345 38.9973 68.5358 39.5576C68.5607 40.1137 68.1735 40.6816 67.374 41.2612ZM86.4044 39.2216C85.8135 39.3258 85.224 39.3688 84.6359 39.3507C84.0673 39.3047 83.5988 39.2045 83.2304 39.0502C82.8578 38.8722 82.6584 38.6393 82.632 38.3515C82.5889 37.9691 82.6362 37.7536 82.7739 37.705C82.9074 37.6327 83.2403 37.5862 83.7728 37.5654C84.6056 37.5892 85.4704 37.4489 86.3671 37.1445C87.2639 36.8402 88.0829 36.4399 88.8239 35.9437C89.565 35.4474 90.1205 34.9352 90.4904 34.4069C91.0202 33.6799 91.1955 33.0154 91.0162 32.4133C90.8606 31.8072 90.4005 31.34 89.6359 31.0117C89.2911 30.8532 88.8302 30.7273 88.2533 30.6341C87.6763 30.5409 87.1077 30.4949 86.5474 30.4962C86.0066 30.4697 85.5728 30.4975 85.2461 30.5795C85.0376 30.6406 84.8603 30.6719 84.7143 30.6732C84.592 30.6704 84.3626 30.6134 84.0261 30.5021C83.8552 30.3617 83.6939 30.2073 83.5424 30.0391C83.3867 29.8472 83.2769 29.7082 83.2129 29.622C83.1685 29.508 83.2067 29.3794 83.3277 29.2362C83.4723 29.0888 83.7796 28.8275 84.2496 28.4522C84.7154 28.0532 85.4398 27.4625 86.4228 26.6799C87.3197 25.9612 88.0225 25.3864 88.5314 24.9555C89.0598 24.4968 89.4707 24.1319 89.7641 23.8608C90.0769 23.562 90.323 23.2993 90.5024 23.0727C90.8278 22.4304 90.976 22.0265 90.9468 21.8611C90.9176 21.6956 90.5853 21.608 89.95 21.5982C89.3508 21.6551 88.7773 21.7197 88.2295 21.7919C87.6817 21.8641 87.4161 21.9475 87.4328 22.042C87.4328 22.042 87.421 22.0441 87.3974 22.0483C87.3974 22.0483 87.3619 22.0545 87.291 22.067C87.1645 22.0406 86.9066 22.0983 86.5173 22.24C86.128 22.3818 85.7526 22.5333 85.3911 22.6945C85.0532 22.8515 84.8787 22.9676 84.8676 23.0427C84.8523 23.0941 84.7251 23.2018 84.4859 23.3659C84.2662 23.5021 84.0327 23.6286 83.7852 23.7453C83.5613 23.8579 83.4139 23.9204 83.343 23.9329C83.2165 23.9065 83.0539 23.8133 82.8551 23.6534C82.6758 23.4657 82.5201 23.2738 82.388 23.0778C82.2518 22.8581 82.1969 22.685 82.2234 22.5585C82.254 22.4556 82.3749 22.3124 82.5863 22.1289C82.8171 21.9177 83.0834 21.7001 83.3851 21.4763C83.6826 21.2289 83.951 21.0232 84.1901 20.8591C84.5044 20.7063 84.9528 20.5541 85.5353 20.4026C86.1415 20.247 86.7518 20.115 87.3664 20.0066C87.9767 19.8747 88.4258 19.7955 88.7136 19.7691C89.8216 19.6956 90.7107 19.8312 91.3808 20.1761C92.0509 20.521 92.5235 21.0591 92.7986 21.7904C92.9279 22.1088 92.9995 22.3765 93.0133 22.5934C93.0272 22.8102 92.9604 23.0535 92.813 23.3232C92.6615 23.5693 92.3868 23.9467 91.9891 24.4555C91.4649 24.9379 91.0367 25.3424 90.7043 25.669C90.372 25.9957 89.8631 26.4266 89.1776 26.9618C89.033 27.1091 88.8356 27.3024 88.5853 27.5415C88.335 27.7806 88.1063 28.0037 87.8991 28.2108C87.6877 28.3943 87.5862 28.5096 87.5946 28.5569C87.5946 28.5569 87.6481 28.584 87.7551 28.6383C87.858 28.6689 87.9887 28.7189 88.1472 28.7885C88.3057 28.858 88.4544 28.9415 88.5934 29.0388C89.3205 29.1543 90.0135 29.422 90.6725 29.842C91.3314 30.2619 91.8082 30.6165 92.1029 30.9057C92.563 31.5801 92.818 32.2662 92.868 32.9642C92.9416 33.6579 92.8198 34.3496 92.5028 35.0391C92.1815 35.705 91.651 36.3591 90.9113 37.0013C90.3162 37.4961 89.6043 37.9506 88.7756 38.3648C87.9428 38.7554 87.1524 39.041 86.4044 39.2216Z" fill="url(#paint0_linear_3_9711)"/>
<line x1="9.83915" y1="61.5041" x2="94.8391" y2="50.5041" stroke="url(#paint1_linear_3_9711)"/>
<defs>
<linearGradient id="paint0_linear_3_9711" x1="12.6124" y1="31.3271" x2="106.265" y2="30.6647" gradientUnits="userSpaceOnUse">
<stop stop-color="#A3BDF2"/>
<stop offset="1" stop-color="#FFAAC2"/>
</linearGradient>
<linearGradient id="paint1_linear_3_9711" x1="18.3924" y1="61.2345" x2="20.8573" y2="71.2765" gradientUnits="userSpaceOnUse">
<stop stop-color="#A3BDF2"/>
<stop offset="1" stop-color="#FFAAC2"/>
</linearGradient>
</defs>
</svg>
