<svg width="48" height="48" viewBox="0 0 48 48" fill="none" xmlns="http://www.w3.org/2000/svg">
<circle cx="24" cy="24" r="23.5" fill="white" stroke="#EDEDED"/>
<g clip-path="url(#clip0_1411_1183)">
<path d="M37.5163 17.3985C37.3604 16.8174 37.0556 16.2877 36.6323 15.8622C36.209 15.4367 35.6821 15.1303 35.1041 14.9736C32.9749 14.3911 24.4424 14.3911 24.4424 14.3911C24.4424 14.3911 15.9077 14.3911 13.783 14.9646C13.2037 15.1216 12.6758 15.4292 12.2523 15.8565C11.8289 16.2837 11.5248 16.8156 11.3708 17.3985C10.8003 19.5365 10.8003 24.0001 10.8003 24.0001C10.8003 24.0001 10.8003 28.4637 11.3708 30.6018C11.5262 31.1831 11.8309 31.713 12.2542 32.1386C12.6776 32.5642 13.2048 32.8704 13.783 33.0267C15.9099 33.6001 24.4424 33.6001 24.4424 33.6001C24.4424 33.6001 32.9771 33.6001 35.1041 33.0267C35.6821 32.87 36.209 32.5636 36.6323 32.1381C37.0556 31.7126 37.3604 31.1829 37.5163 30.6018C38.0845 28.4637 38.0845 24.0001 38.0845 24.0001C38.0845 24.0001 38.0778 19.5365 37.5163 17.3985Z" fill="#FF0000"/>
<path d="M21.7134 28.1135L28.8039 23.9999L21.7134 19.8862V28.1135Z" fill="white"/>
</g>
<defs>
<clipPath id="clip0_1411_1183">
<rect width="27.2842" height="19.2" fill="white" transform="translate(10.8003 14.3999)"/>
</clipPath>
</defs>
</svg>
